<?xml version="1.0" encoding="utf-8"?>
<!-- Generator: Adobe Illustrator 23.0.3, SVG Export Plug-In . SVG Version: 6.00 Build 0)  -->
<svg version="1.1" id="Layer_1" xmlns="http://www.w3.org/2000/svg" xmlns:xlink="http://www.w3.org/1999/xlink" x="0px" y="0px"
	 viewBox="0 0 512 512" style="enable-background:new 0 0 512 512;" xml:space="preserve">
<style type="text/css">
	.st0{fill:#F9AE18;}
	.st1{fill:#AFD036;}
</style>
<g>
	<path class="st0" d="M307.5,324.5c0,25.8-0.1,51.6,0.1,77.4c0.1,5.5-0.8,7.6-7.1,7.6c-49.3-0.3-98.7,0-148-0.2
		c-71-0.3-133.4-50.6-148.8-120c-19.2-86.2,37.6-170.7,124.6-185.4c82-13.9,160.7,40.8,176.4,122.6c1.7,9,2.8,18.1,2.8,27.4
		C307.5,277.4,307.5,301,307.5,324.5z M205,276.7c0-7.2,0.1-14.3,0-21.5c-0.3-26.4-21.4-49.1-47-50.6c-28-1.6-51.5,17.2-55.1,44.1
		c-3.7,26.9,14.4,52.4,41.5,57c19,3.2,38.4,0.7,57.6,1.2c3.6,0.1,3-2.5,3-4.6C205.1,293.7,205,285.2,205,276.7z"/>
	<path class="st1" d="M460.1,204.2c-14.8,0-29.6-0.1-44.4,0.1c-4.4,0.1-6.2-0.7-6.2-5.7c0.2-30.5,0.2-60.9,0-91.4c0-4,1-5.4,5.2-5.3
		c30.7,0.2,61.4,0.2,92.1,0c4.3,0,5.2,1.4,5.2,5.4c-0.1,30.5-0.2,60.9,0,91.4c0,4.3-1,5.8-5.5,5.7C491,204,475.5,204.2,460.1,204.2z
		"/>
	<path class="st1" d="M460.7,409.3c-15,0-30-0.2-45,0.1c-4.4,0.1-5.7-1.2-5.6-5.6c0.2-30.2,0.3-60.5,0.2-90.7c0-4.6,1.5-5.7,5.7-5.6
		c30,0.1,60,0.2,90,0c4.9,0,6,1.8,5.9,6.2c-0.2,29.8-0.2,59.6,0,89.4c0,4.9-1,6.6-6.3,6.4C490.7,409.1,475.7,409.3,460.7,409.3z"/>
</g>
</svg>
