<?xml version="1.0" encoding="UTF-8"?>
<svg width="360px" height="275px" viewBox="0 0 360 275" version="1.1" xmlns="http://www.w3.org/2000/svg" xmlns:xlink="http://www.w3.org/1999/xlink">
    <!-- Generator: Sketch 51.2 (57519) - http://www.bohemiancoding.com/sketch -->
    <title>Placeholder (gray on white)</title>
    <desc>Created with Sketch.</desc>
    <defs>
        <path d="M216.453835,275 L0,275 L0,0 L277.0834,0 L216.453835,275 Z" id="path-1"></path>
    </defs>
    <g id="Page-1" stroke="none" stroke-width="1" fill="none" fill-rule="evenodd">
        <g id="Placeholder-(gray-on-white)">
            <rect id="Background" fill="#FFFFFF" x="0" y="0" width="360" height="275"></rect>
            <g id="Masked-pattern">
                <mask id="mask-2" fill="white">
                    <use xlink:href="#path-1"></use>
                </mask>
                <use id="Mask" fill-opacity="0" fill="#FFFFFF" xlink:href="#path-1"></use>
                <g id="Pattern" mask="url(#mask-2)" fill="#F6F7F8">
                    <g transform="translate(58.815367, 123.930348) rotate(-315.000000) translate(-58.815367, -123.930348) translate(-385.184633, -177.332810)">
                        <path d="M313.340122,210.305002 C313.227725,210.312155 313.114311,210.315789 313,210.315789 C312.825202,210.315789 312.6525,210.307292 312.482327,210.290709 L304.611762,234.513818 C305.471683,235.364563 306,236.518568 306,237.789474 C306,240.405559 303.761424,242.526316 301,242.526316 C298.238576,242.526316 296,240.405559 296,237.789474 C296,235.21131 298.174147,233.114219 300.880249,233.053964 L308.918279,208.31545 C308.339936,207.542623 308,206.598394 308,205.578947 C308,202.962862 310.238576,200.842105 313,200.842105 C315.761424,200.842105 318,202.962862 318,205.578947 C318,206.676102 317.606265,207.686135 316.945356,208.489147 L328.342863,241.589909 C330.944366,241.756817 333,243.808878 333,246.315789 C333,248.931875 330.761424,251.052632 328,251.052632 C325.238576,251.052632 323,248.931875 323,246.315789 C323,244.963753 323.597922,243.744019 324.556925,242.880963 L313.340122,210.305002 Z" id="Combined-Shape-Copy-57"></path>
                        <path d="M313.340122,260.515529 C313.227725,260.522682 313.114311,260.526316 313,260.526316 C312.825202,260.526316 312.6525,260.517818 312.482327,260.501235 L304.611762,284.724344 C305.471683,285.575089 306,286.729094 306,288 C306,290.616086 303.761424,292.736842 301,292.736842 C298.238576,292.736842 296,290.616086 296,288 C296,285.421836 298.174147,283.324746 300.880249,283.26449 L308.918279,258.525976 C308.339936,257.753149 308,256.80892 308,255.789474 C308,253.173388 310.238576,251.052632 313,251.052632 C315.761424,251.052632 318,253.173388 318,255.789474 C318,256.886628 317.606265,257.896661 316.945356,258.699674 L328.342863,291.800436 C330.944366,291.967343 333,294.019405 333,296.526316 C333,299.142401 330.761424,301.263158 328,301.263158 C325.238576,301.263158 323,299.142401 323,296.526316 C323,295.174279 323.597922,293.954545 324.556925,293.091489 L313.340122,260.515529 Z" id="Combined-Shape-Copy-58"></path>
                        <path d="M387.340122,210.305002 C387.227725,210.312155 387.114311,210.315789 387,210.315789 C386.825202,210.315789 386.6525,210.307292 386.482327,210.290709 L378.611762,234.513818 C379.471683,235.364563 380,236.518568 380,237.789474 C380,240.405559 377.761424,242.526316 375,242.526316 C372.238576,242.526316 370,240.405559 370,237.789474 C370,235.21131 372.174147,233.114219 374.880249,233.053964 L382.918279,208.31545 C382.339936,207.542623 382,206.598394 382,205.578947 C382,202.962862 384.238576,200.842105 387,200.842105 C389.761424,200.842105 392,202.962862 392,205.578947 C392,206.676102 391.606265,207.686135 390.945356,208.489147 L402.342863,241.589909 C404.944366,241.756817 407,243.808878 407,246.315789 C407,248.931875 404.761424,251.052632 402,251.052632 C399.238576,251.052632 397,248.931875 397,246.315789 C397,244.963753 397.597922,243.744019 398.556925,242.880963 L387.340122,210.305002 Z" id="Combined-Shape-Copy-60"></path>
                        <path d="M387.340122,260.515529 C387.227725,260.522682 387.114311,260.526316 387,260.526316 C386.825202,260.526316 386.6525,260.517818 386.482327,260.501235 L378.611762,284.724344 C379.471683,285.575089 380,286.729094 380,288 C380,290.616086 377.761424,292.736842 375,292.736842 C372.238576,292.736842 370,290.616086 370,288 C370,285.421836 372.174147,283.324746 374.880249,283.26449 L382.918279,258.525976 C382.339936,257.753149 382,256.80892 382,255.789474 C382,253.173388 384.238576,251.052632 387,251.052632 C389.761424,251.052632 392,253.173388 392,255.789474 C392,256.886628 391.606265,257.896661 390.945356,258.699674 L402.342863,291.800436 C404.944366,291.967343 407,294.019405 407,296.526316 C407,299.142401 404.761424,301.263158 402,301.263158 C399.238576,301.263158 397,299.142401 397,296.526316 C397,295.174279 397.597922,293.954545 398.556925,293.091489 L387.340122,260.515529 Z" id="Combined-Shape-Copy-61"></path>
                        <path d="M387.340122,160.094476 C387.227725,160.101629 387.114311,160.105263 387,160.105263 C386.825202,160.105263 386.6525,160.096766 386.482327,160.080183 L378.611762,184.303292 C379.471683,185.154037 380,186.308042 380,187.578947 C380,190.195033 377.761424,192.315789 375,192.315789 C372.238576,192.315789 370,190.195033 370,187.578947 C370,185.000784 372.174147,182.903693 374.880249,182.843437 L382.918279,158.104923 C382.339936,157.332096 382,156.387867 382,155.368421 C382,152.752335 384.238576,150.631579 387,150.631579 C389.761424,150.631579 392,152.752335 392,155.368421 C392,156.465576 391.606265,157.475609 390.945356,158.278621 L402.342863,191.379383 C404.944366,191.54629 407,193.598352 407,196.105263 C407,198.721349 404.761424,200.842105 402,200.842105 C399.238576,200.842105 397,198.721349 397,196.105263 C397,194.753227 397.597922,193.533493 398.556925,192.670437 L387.340122,160.094476 Z" id="Combined-Shape-Copy-62"></path>
                        <path d="M424.340122,210.305002 C424.227725,210.312155 424.114311,210.315789 424,210.315789 C423.825202,210.315789 423.6525,210.307292 423.482327,210.290709 L415.611762,234.513818 C416.471683,235.364563 417,236.518568 417,237.789474 C417,240.405559 414.761424,242.526316 412,242.526316 C409.238576,242.526316 407,240.405559 407,237.789474 C407,235.21131 409.174147,233.114219 411.880249,233.053964 L419.918279,208.31545 C419.339936,207.542623 419,206.598394 419,205.578947 C419,202.962862 421.238576,200.842105 424,200.842105 C426.761424,200.842105 429,202.962862 429,205.578947 C429,206.676102 428.606265,207.686135 427.945356,208.489147 L439.342863,241.589909 C441.944366,241.756817 444,243.808878 444,246.315789 C444,248.931875 441.761424,251.052632 439,251.052632 C436.238576,251.052632 434,248.931875 434,246.315789 C434,244.963753 434.597922,243.744019 435.556925,242.880963 L424.340122,210.305002 Z" id="Combined-Shape-Copy-66" transform="translate(425.500000, 225.947368) scale(1, -1) translate(-425.500000, -225.947368) "></path>
                        <path d="M424.340122,109.88395 C424.227725,109.891103 424.114311,109.894737 424,109.894737 C423.825202,109.894737 423.6525,109.886239 423.482327,109.869656 L415.611762,134.092765 C416.471683,134.94351 417,136.097515 417,137.368421 C417,139.984507 414.761424,142.105263 412,142.105263 C409.238576,142.105263 407,139.984507 407,137.368421 C407,134.790257 409.174147,132.693167 411.880249,132.632911 L419.918279,107.894397 C419.339936,107.12157 419,106.177341 419,105.157895 C419,102.541809 421.238576,100.421053 424,100.421053 C426.761424,100.421053 429,102.541809 429,105.157895 C429,106.255049 428.606265,107.265082 427.945356,108.068095 L439.342863,141.168857 C441.944366,141.335764 444,143.387826 444,145.894737 C444,148.510822 441.761424,150.631579 439,150.631579 C436.238576,150.631579 434,148.510822 434,145.894737 C434,144.5427 434.597922,143.322966 435.556925,142.45991 L424.340122,109.88395 Z" id="Combined-Shape-Copy-49" transform="translate(425.500000, 125.526316) scale(1, -1) translate(-425.500000, -125.526316) "></path>
                        <path d="M424.340122,260.515529 C424.227725,260.522682 424.114311,260.526316 424,260.526316 C423.825202,260.526316 423.6525,260.517818 423.482327,260.501235 L415.611762,284.724344 C416.471683,285.575089 417,286.729094 417,288 C417,290.616086 414.761424,292.736842 412,292.736842 C409.238576,292.736842 407,290.616086 407,288 C407,285.421836 409.174147,283.324746 411.880249,283.26449 L419.918279,258.525976 C419.339936,257.753149 419,256.80892 419,255.789474 C419,253.173388 421.238576,251.052632 424,251.052632 C426.761424,251.052632 429,253.173388 429,255.789474 C429,256.886628 428.606265,257.896661 427.945356,258.699674 L439.342863,291.800436 C441.944366,291.967343 444,294.019405 444,296.526316 C444,299.142401 441.761424,301.263158 439,301.263158 C436.238576,301.263158 434,299.142401 434,296.526316 C434,295.174279 434.597922,293.954545 435.556925,293.091489 L424.340122,260.515529 Z" id="Combined-Shape-Copy-67" transform="translate(425.500000, 276.157895) scale(1, -1) translate(-425.500000, -276.157895) "></path>
                        <path d="M424.340122,160.094476 C424.227725,160.101629 424.114311,160.105263 424,160.105263 C423.825202,160.105263 423.6525,160.096766 423.482327,160.080183 L415.611762,184.303292 C416.471683,185.154037 417,186.308042 417,187.578947 C417,190.195033 414.761424,192.315789 412,192.315789 C409.238576,192.315789 407,190.195033 407,187.578947 C407,185.000784 409.174147,182.903693 411.880249,182.843437 L419.918279,158.104923 C419.339936,157.332096 419,156.387867 419,155.368421 C419,152.752335 421.238576,150.631579 424,150.631579 C426.761424,150.631579 429,152.752335 429,155.368421 C429,156.465576 428.606265,157.475609 427.945356,158.278621 L439.342863,191.379383 C441.944366,191.54629 444,193.598352 444,196.105263 C444,198.721349 441.761424,200.842105 439,200.842105 C436.238576,200.842105 434,198.721349 434,196.105263 C434,194.753227 434.597922,193.533493 435.556925,192.670437 L424.340122,160.094476 Z" id="Combined-Shape-Copy-68" transform="translate(425.500000, 175.736842) scale(1, -1) translate(-425.500000, -175.736842) "></path>
                        <path d="M350.340122,210.305002 C350.227725,210.312155 350.114311,210.315789 350,210.315789 C349.825202,210.315789 349.6525,210.307292 349.482327,210.290709 L341.611762,234.513818 C342.471683,235.364563 343,236.518568 343,237.789474 C343,240.405559 340.761424,242.526316 338,242.526316 C335.238576,242.526316 333,240.405559 333,237.789474 C333,235.21131 335.174147,233.114219 337.880249,233.053964 L345.918279,208.31545 C345.339936,207.542623 345,206.598394 345,205.578947 C345,202.962862 347.238576,200.842105 350,200.842105 C352.761424,200.842105 355,202.962862 355,205.578947 C355,206.676102 354.606265,207.686135 353.945356,208.489147 L365.342863,241.589909 C367.944366,241.756817 370,243.808878 370,246.315789 C370,248.931875 367.761424,251.052632 365,251.052632 C362.238576,251.052632 360,248.931875 360,246.315789 C360,244.963753 360.597922,243.744019 361.556925,242.880963 L350.340122,210.305002 Z" id="Combined-Shape-Copy-69" transform="translate(351.500000, 225.947368) scale(1, -1) translate(-351.500000, -225.947368) "></path>
                        <path d="M350.340122,260.515529 C350.227725,260.522682 350.114311,260.526316 350,260.526316 C349.825202,260.526316 349.6525,260.517818 349.482327,260.501235 L341.611762,284.724344 C342.471683,285.575089 343,286.729094 343,288 C343,290.616086 340.761424,292.736842 338,292.736842 C335.238576,292.736842 333,290.616086 333,288 C333,285.421836 335.174147,283.324746 337.880249,283.26449 L345.918279,258.525976 C345.339936,257.753149 345,256.80892 345,255.789474 C345,253.173388 347.238576,251.052632 350,251.052632 C352.761424,251.052632 355,253.173388 355,255.789474 C355,256.886628 354.606265,257.896661 353.945356,258.699674 L365.342863,291.800436 C367.944366,291.967343 370,294.019405 370,296.526316 C370,299.142401 367.761424,301.263158 365,301.263158 C362.238576,301.263158 360,299.142401 360,296.526316 C360,295.174279 360.597922,293.954545 361.556925,293.091489 L350.340122,260.515529 Z" id="Combined-Shape-Copy-70" transform="translate(351.500000, 276.157895) scale(1, -1) translate(-351.500000, -276.157895) "></path>
                        <path d="M350.340122,160.094476 C350.227725,160.101629 350.114311,160.105263 350,160.105263 C349.825202,160.105263 349.6525,160.096766 349.482327,160.080183 L341.611762,184.303292 C342.471683,185.154037 343,186.308042 343,187.578947 C343,190.195033 340.761424,192.315789 338,192.315789 C335.238576,192.315789 333,190.195033 333,187.578947 C333,185.000784 335.174147,182.903693 337.880249,182.843437 L345.918279,158.104923 C345.339936,157.332096 345,156.387867 345,155.368421 C345,152.752335 347.238576,150.631579 350,150.631579 C352.761424,150.631579 355,152.752335 355,155.368421 C355,156.465576 354.606265,157.475609 353.945356,158.278621 L365.342863,191.379383 C367.944366,191.54629 370,193.598352 370,196.105263 C370,198.721349 367.761424,200.842105 365,200.842105 C362.238576,200.842105 360,198.721349 360,196.105263 C360,194.753227 360.597922,193.533493 361.556925,192.670437 L350.340122,160.094476 Z" id="Combined-Shape-Copy-71" transform="translate(351.500000, 175.736842) scale(1, -1) translate(-351.500000, -175.736842) "></path>
                        <path d="M387.340122,310.726055 C387.227725,310.733208 387.114311,310.736842 387,310.736842 C386.825202,310.736842 386.6525,310.728345 386.482327,310.711762 L378.611762,334.934871 C379.471683,335.785616 380,336.939621 380,338.210526 C380,340.826612 377.761424,342.947368 375,342.947368 C372.238576,342.947368 370,340.826612 370,338.210526 C370,335.632363 372.174147,333.535272 374.880249,333.475016 L382.918279,308.736502 C382.339936,307.963675 382,307.019446 382,306 C382,303.383914 384.238576,301.263158 387,301.263158 C389.761424,301.263158 392,303.383914 392,306 C392,307.097155 391.606265,308.107187 390.945356,308.9102 L402.342863,342.010962 C404.944366,342.177869 407,344.229931 407,346.736842 C407,349.352928 404.761424,351.473684 402,351.473684 C399.238576,351.473684 397,349.352928 397,346.736842 C397,345.384806 397.597922,344.165072 398.556925,343.302016 L387.340122,310.726055 Z" id="Combined-Shape-Copy-44"></path>
                        <path d="M424.340122,360.936581 C424.227725,360.943734 424.114311,360.947368 424,360.947368 C423.825202,360.947368 423.6525,360.938871 423.482327,360.922288 L415.611762,385.145397 C416.471683,385.996142 417,387.150147 417,388.421053 C417,391.037138 414.761424,393.157895 412,393.157895 C409.238576,393.157895 407,391.037138 407,388.421053 C407,385.842889 409.174147,383.745798 411.880249,383.685542 L419.918279,358.947029 C419.339936,358.174202 419,357.229973 419,356.210526 C419,353.594441 421.238576,351.473684 424,351.473684 C426.761424,351.473684 429,353.594441 429,356.210526 C429,357.307681 428.606265,358.317714 427.945356,359.120726 L439.342863,392.221488 C441.944366,392.388396 444,394.440457 444,396.947368 C444,399.563454 441.761424,401.684211 439,401.684211 C436.238576,401.684211 434,399.563454 434,396.947368 C434,395.595332 434.597922,394.375598 435.556925,393.512542 L424.340122,360.936581 Z" id="Combined-Shape-Copy-48" transform="translate(425.500000, 376.578947) scale(1, -1) translate(-425.500000, -376.578947) "></path>
                        <path d="M424.340122,310.726055 C424.227725,310.733208 424.114311,310.736842 424,310.736842 C423.825202,310.736842 423.6525,310.728345 423.482327,310.711762 L415.611762,334.934871 C416.471683,335.785616 417,336.939621 417,338.210526 C417,340.826612 414.761424,342.947368 412,342.947368 C409.238576,342.947368 407,340.826612 407,338.210526 C407,335.632363 409.174147,333.535272 411.880249,333.475016 L419.918279,308.736502 C419.339936,307.963675 419,307.019446 419,306 C419,303.383914 421.238576,301.263158 424,301.263158 C426.761424,301.263158 429,303.383914 429,306 C429,307.097155 428.606265,308.107187 427.945356,308.9102 L439.342863,342.010962 C441.944366,342.177869 444,344.229931 444,346.736842 C444,349.352928 441.761424,351.473684 439,351.473684 C436.238576,351.473684 434,349.352928 434,346.736842 C434,345.384806 434.597922,344.165072 435.556925,343.302016 L424.340122,310.726055 Z" id="Combined-Shape-Copy-50" transform="translate(425.500000, 326.368421) scale(1, -1) translate(-425.500000, -326.368421) "></path>
                        <path d="M350.340122,310.726055 C350.227725,310.733208 350.114311,310.736842 350,310.736842 C349.825202,310.736842 349.6525,310.728345 349.482327,310.711762 L341.611762,334.934871 C342.471683,335.785616 343,336.939621 343,338.210526 C343,340.826612 340.761424,342.947368 338,342.947368 C335.238576,342.947368 333,340.826612 333,338.210526 C333,335.632363 335.174147,333.535272 337.880249,333.475016 L345.918279,308.736502 C345.339936,307.963675 345,307.019446 345,306 C345,303.383914 347.238576,301.263158 350,301.263158 C352.761424,301.263158 355,303.383914 355,306 C355,307.097155 354.606265,308.107187 353.945356,308.9102 L365.342863,342.010962 C367.944366,342.177869 370,344.229931 370,346.736842 C370,349.352928 367.761424,351.473684 365,351.473684 C362.238576,351.473684 360,349.352928 360,346.736842 C360,345.384806 360.597922,344.165072 361.556925,343.302016 L350.340122,310.726055 Z" id="Combined-Shape-Copy-53" transform="translate(351.500000, 326.368421) scale(1, -1) translate(-351.500000, -326.368421) "></path>
                        <path d="M461.340122,210.305002 C461.227725,210.312155 461.114311,210.315789 461,210.315789 C460.825202,210.315789 460.6525,210.307292 460.482327,210.290709 L452.611762,234.513818 C453.471683,235.364563 454,236.518568 454,237.789474 C454,240.405559 451.761424,242.526316 449,242.526316 C446.238576,242.526316 444,240.405559 444,237.789474 C444,235.21131 446.174147,233.114219 448.880249,233.053964 L456.918279,208.31545 C456.339936,207.542623 456,206.598394 456,205.578947 C456,202.962862 458.238576,200.842105 461,200.842105 C463.761424,200.842105 466,202.962862 466,205.578947 C466,206.676102 465.606265,207.686135 464.945356,208.489147 L476.342863,241.589909 C478.944366,241.756817 481,243.808878 481,246.315789 C481,248.931875 478.761424,251.052632 476,251.052632 C473.238576,251.052632 471,248.931875 471,246.315789 C471,244.963753 471.597922,243.744019 472.556925,242.880963 L461.340122,210.305002 Z" id="Combined-Shape"></path>
                        <path d="M461.340122,59.6734235 C461.227725,59.6805764 461.114311,59.6842105 461,59.6842105 C460.825202,59.6842105 460.6525,59.6757129 460.482327,59.65913 L452.611762,83.8822392 C453.471683,84.7329841 454,85.8869892 454,87.1578947 C454,89.7739804 451.761424,91.8947368 449,91.8947368 C446.238576,91.8947368 444,89.7739804 444,87.1578947 C444,84.5797311 446.174147,82.4826404 448.880249,82.4223846 L456.918279,57.6838706 C456.339936,56.9110437 456,55.9668148 456,54.9473684 C456,52.3312828 458.238576,50.2105263 461,50.2105263 C463.761424,50.2105263 466,52.3312828 466,54.9473684 C466,56.0445229 465.606265,57.0545559 464.945356,57.8575685 L476.342863,90.9583305 C478.944366,91.1252378 481,93.1772993 481,95.6842105 C481,98.3002962 478.761424,100.421053 476,100.421053 C473.238576,100.421053 471,98.3002962 471,95.6842105 C471,94.3321742 471.597922,93.1124399 472.556925,92.249384 L461.340122,59.6734235 Z" id="Combined-Shape-Copy-18"></path>
                        <path d="M683.340122,59.6734235 C683.227725,59.6805764 683.114311,59.6842105 683,59.6842105 C682.825202,59.6842105 682.6525,59.6757129 682.482327,59.65913 L674.611762,83.8822392 C675.471683,84.7329841 676,85.8869892 676,87.1578947 C676,89.7739804 673.761424,91.8947368 671,91.8947368 C668.238576,91.8947368 666,89.7739804 666,87.1578947 C666,84.5797311 668.174147,82.4826404 670.880249,82.4223846 L678.918279,57.6838706 C678.339936,56.9110437 678,55.9668148 678,54.9473684 C678,52.3312828 680.238576,50.2105263 683,50.2105263 C685.761424,50.2105263 688,52.3312828 688,54.9473684 C688,56.0445229 687.606265,57.0545559 686.945356,57.8575685 L698.342863,90.9583305 C700.944366,91.1252378 703,93.1772993 703,95.6842105 C703,98.3002962 700.761424,100.421053 698,100.421053 C695.238576,100.421053 693,98.3002962 693,95.6842105 C693,94.3321742 693.597922,93.1124399 694.556925,92.249384 L683.340122,59.6734235 Z" id="Combined-Shape-Copy-36"></path>
                        <path d="M683.340122,210.305002 C683.227725,210.312155 683.114311,210.315789 683,210.315789 C682.825202,210.315789 682.6525,210.307292 682.482327,210.290709 L674.611762,234.513818 C675.471683,235.364563 676,236.518568 676,237.789474 C676,240.405559 673.761424,242.526316 671,242.526316 C668.238576,242.526316 666,240.405559 666,237.789474 C666,235.21131 668.174147,233.114219 670.880249,233.053964 L678.918279,208.31545 C678.339936,207.542623 678,206.598394 678,205.578947 C678,202.962862 680.238576,200.842105 683,200.842105 C685.761424,200.842105 688,202.962862 688,205.578947 C688,206.676102 687.606265,207.686135 686.945356,208.489147 L698.342863,241.589909 C700.944366,241.756817 703,243.808878 703,246.315789 C703,248.931875 700.761424,251.052632 698,251.052632 C695.238576,251.052632 693,248.931875 693,246.315789 C693,244.963753 693.597922,243.744019 694.556925,242.880963 L683.340122,210.305002 Z" id="Combined-Shape-Copy-54"></path>
                        <path d="M461.340122,260.515529 C461.227725,260.522682 461.114311,260.526316 461,260.526316 C460.825202,260.526316 460.6525,260.517818 460.482327,260.501235 L452.611762,284.724344 C453.471683,285.575089 454,286.729094 454,288 C454,290.616086 451.761424,292.736842 449,292.736842 C446.238576,292.736842 444,290.616086 444,288 C444,285.421836 446.174147,283.324746 448.880249,283.26449 L456.918279,258.525976 C456.339936,257.753149 456,256.80892 456,255.789474 C456,253.173388 458.238576,251.052632 461,251.052632 C463.761424,251.052632 466,253.173388 466,255.789474 C466,256.886628 465.606265,257.896661 464.945356,258.699674 L476.342863,291.800436 C478.944366,291.967343 481,294.019405 481,296.526316 C481,299.142401 478.761424,301.263158 476,301.263158 C473.238576,301.263158 471,299.142401 471,296.526316 C471,295.174279 471.597922,293.954545 472.556925,293.091489 L461.340122,260.515529 Z" id="Combined-Shape-Copy-6"></path>
                        <path d="M461.340122,109.88395 C461.227725,109.891103 461.114311,109.894737 461,109.894737 C460.825202,109.894737 460.6525,109.886239 460.482327,109.869656 L452.611762,134.092765 C453.471683,134.94351 454,136.097515 454,137.368421 C454,139.984507 451.761424,142.105263 449,142.105263 C446.238576,142.105263 444,139.984507 444,137.368421 C444,134.790257 446.174147,132.693167 448.880249,132.632911 L456.918279,107.894397 C456.339936,107.12157 456,106.177341 456,105.157895 C456,102.541809 458.238576,100.421053 461,100.421053 C463.761424,100.421053 466,102.541809 466,105.157895 C466,106.255049 465.606265,107.265082 464.945356,108.068095 L476.342863,141.168857 C478.944366,141.335764 481,143.387826 481,145.894737 C481,148.510822 478.761424,150.631579 476,150.631579 C473.238576,150.631579 471,148.510822 471,145.894737 C471,144.5427 471.597922,143.322966 472.556925,142.45991 L461.340122,109.88395 Z" id="Combined-Shape-Copy-19"></path>
                        <path d="M683.340122,109.88395 C683.227725,109.891103 683.114311,109.894737 683,109.894737 C682.825202,109.894737 682.6525,109.886239 682.482327,109.869656 L674.611762,134.092765 C675.471683,134.94351 676,136.097515 676,137.368421 C676,139.984507 673.761424,142.105263 671,142.105263 C668.238576,142.105263 666,139.984507 666,137.368421 C666,134.790257 668.174147,132.693167 670.880249,132.632911 L678.918279,107.894397 C678.339936,107.12157 678,106.177341 678,105.157895 C678,102.541809 680.238576,100.421053 683,100.421053 C685.761424,100.421053 688,102.541809 688,105.157895 C688,106.255049 687.606265,107.265082 686.945356,108.068095 L698.342863,141.168857 C700.944366,141.335764 703,143.387826 703,145.894737 C703,148.510822 700.761424,150.631579 698,150.631579 C695.238576,150.631579 693,148.510822 693,145.894737 C693,144.5427 693.597922,143.322966 694.556925,142.45991 L683.340122,109.88395 Z" id="Combined-Shape-Copy-37"></path>
                        <path d="M683.340122,260.515529 C683.227725,260.522682 683.114311,260.526316 683,260.526316 C682.825202,260.526316 682.6525,260.517818 682.482327,260.501235 L674.611762,284.724344 C675.471683,285.575089 676,286.729094 676,288 C676,290.616086 673.761424,292.736842 671,292.736842 C668.238576,292.736842 666,290.616086 666,288 C666,285.421836 668.174147,283.324746 670.880249,283.26449 L678.918279,258.525976 C678.339936,257.753149 678,256.80892 678,255.789474 C678,253.173388 680.238576,251.052632 683,251.052632 C685.761424,251.052632 688,253.173388 688,255.789474 C688,256.886628 687.606265,257.896661 686.945356,258.699674 L698.342863,291.800436 C700.944366,291.967343 703,294.019405 703,296.526316 C703,299.142401 700.761424,301.263158 698,301.263158 C695.238576,301.263158 693,299.142401 693,296.526316 C693,295.174279 693.597922,293.954545 694.556925,293.091489 L683.340122,260.515529 Z" id="Combined-Shape-Copy-55"></path>
                        <path d="M461.340122,160.094476 C461.227725,160.101629 461.114311,160.105263 461,160.105263 C460.825202,160.105263 460.6525,160.096766 460.482327,160.080183 L452.611762,184.303292 C453.471683,185.154037 454,186.308042 454,187.578947 C454,190.195033 451.761424,192.315789 449,192.315789 C446.238576,192.315789 444,190.195033 444,187.578947 C444,185.000784 446.174147,182.903693 448.880249,182.843437 L456.918279,158.104923 C456.339936,157.332096 456,156.387867 456,155.368421 C456,152.752335 458.238576,150.631579 461,150.631579 C463.761424,150.631579 466,152.752335 466,155.368421 C466,156.465576 465.606265,157.475609 464.945356,158.278621 L476.342863,191.379383 C478.944366,191.54629 481,193.598352 481,196.105263 C481,198.721349 478.761424,200.842105 476,200.842105 C473.238576,200.842105 471,198.721349 471,196.105263 C471,194.753227 471.597922,193.533493 472.556925,192.670437 L461.340122,160.094476 Z" id="Combined-Shape-Copy-12"></path>
                        <path d="M683.340122,160.094476 C683.227725,160.101629 683.114311,160.105263 683,160.105263 C682.825202,160.105263 682.6525,160.096766 682.482327,160.080183 L674.611762,184.303292 C675.471683,185.154037 676,186.308042 676,187.578947 C676,190.195033 673.761424,192.315789 671,192.315789 C668.238576,192.315789 666,190.195033 666,187.578947 C666,185.000784 668.174147,182.903693 670.880249,182.843437 L678.918279,158.104923 C678.339936,157.332096 678,156.387867 678,155.368421 C678,152.752335 680.238576,150.631579 683,150.631579 C685.761424,150.631579 688,152.752335 688,155.368421 C688,156.465576 687.606265,157.475609 686.945356,158.278621 L698.342863,191.379383 C700.944366,191.54629 703,193.598352 703,196.105263 C703,198.721349 700.761424,200.842105 698,200.842105 C695.238576,200.842105 693,198.721349 693,196.105263 C693,194.753227 693.597922,193.533493 694.556925,192.670437 L683.340122,160.094476 Z" id="Combined-Shape-Copy-56"></path>
                        <path d="M535.340122,210.305002 C535.227725,210.312155 535.114311,210.315789 535,210.315789 C534.825202,210.315789 534.6525,210.307292 534.482327,210.290709 L526.611762,234.513818 C527.471683,235.364563 528,236.518568 528,237.789474 C528,240.405559 525.761424,242.526316 523,242.526316 C520.238576,242.526316 518,240.405559 518,237.789474 C518,235.21131 520.174147,233.114219 522.880249,233.053964 L530.918279,208.31545 C530.339936,207.542623 530,206.598394 530,205.578947 C530,202.962862 532.238576,200.842105 535,200.842105 C537.761424,200.842105 540,202.962862 540,205.578947 C540,206.676102 539.606265,207.686135 538.945356,208.489147 L550.342863,241.589909 C552.944366,241.756817 555,243.808878 555,246.315789 C555,248.931875 552.761424,251.052632 550,251.052632 C547.238576,251.052632 545,248.931875 545,246.315789 C545,244.963753 545.597922,243.744019 546.556925,242.880963 L535.340122,210.305002 Z" id="Combined-Shape-Copy-2"></path>
                        <path d="M535.340122,59.6734235 C535.227725,59.6805764 535.114311,59.6842105 535,59.6842105 C534.825202,59.6842105 534.6525,59.6757129 534.482327,59.65913 L526.611762,83.8822392 C527.471683,84.7329841 528,85.8869892 528,87.1578947 C528,89.7739804 525.761424,91.8947368 523,91.8947368 C520.238576,91.8947368 518,89.7739804 518,87.1578947 C518,84.5797311 520.174147,82.4826404 522.880249,82.4223846 L530.918279,57.6838706 C530.339936,56.9110437 530,55.9668148 530,54.9473684 C530,52.3312828 532.238576,50.2105263 535,50.2105263 C537.761424,50.2105263 540,52.3312828 540,54.9473684 C540,56.0445229 539.606265,57.0545559 538.945356,57.8575685 L550.342863,90.9583305 C552.944366,91.1252378 555,93.1772993 555,95.6842105 C555,98.3002962 552.761424,100.421053 550,100.421053 C547.238576,100.421053 545,98.3002962 545,95.6842105 C545,94.3321742 545.597922,93.1124399 546.556925,92.249384 L535.340122,59.6734235 Z" id="Combined-Shape-Copy-21"></path>
                        <path d="M757.340122,210.305002 C757.227725,210.312155 757.114311,210.315789 757,210.315789 C756.825202,210.315789 756.6525,210.307292 756.482327,210.290709 L748.611762,234.513818 C749.471683,235.364563 750,236.518568 750,237.789474 C750,240.405559 747.761424,242.526316 745,242.526316 C742.238576,242.526316 740,240.405559 740,237.789474 C740,235.21131 742.174147,233.114219 744.880249,233.053964 L752.918279,208.31545 C752.339936,207.542623 752,206.598394 752,205.578947 C752,202.962862 754.238576,200.842105 757,200.842105 C759.761424,200.842105 762,202.962862 762,205.578947 C762,206.676102 761.606265,207.686135 760.945356,208.489147 L772.342863,241.589909 C774.944366,241.756817 777,243.808878 777,246.315789 C777,248.931875 774.761424,251.052632 772,251.052632 C769.238576,251.052632 767,248.931875 767,246.315789 C767,244.963753 767.597922,243.744019 768.556925,242.880963 L757.340122,210.305002 Z" id="Combined-Shape-Copy-57"></path>
                        <path d="M535.340122,260.515529 C535.227725,260.522682 535.114311,260.526316 535,260.526316 C534.825202,260.526316 534.6525,260.517818 534.482327,260.501235 L526.611762,284.724344 C527.471683,285.575089 528,286.729094 528,288 C528,290.616086 525.761424,292.736842 523,292.736842 C520.238576,292.736842 518,290.616086 518,288 C518,285.421836 520.174147,283.324746 522.880249,283.26449 L530.918279,258.525976 C530.339936,257.753149 530,256.80892 530,255.789474 C530,253.173388 532.238576,251.052632 535,251.052632 C537.761424,251.052632 540,253.173388 540,255.789474 C540,256.886628 539.606265,257.896661 538.945356,258.699674 L550.342863,291.800436 C552.944366,291.967343 555,294.019405 555,296.526316 C555,299.142401 552.761424,301.263158 550,301.263158 C547.238576,301.263158 545,299.142401 545,296.526316 C545,295.174279 545.597922,293.954545 546.556925,293.091489 L535.340122,260.515529 Z" id="Combined-Shape-Copy-7"></path>
                        <path d="M535.340122,109.88395 C535.227725,109.891103 535.114311,109.894737 535,109.894737 C534.825202,109.894737 534.6525,109.886239 534.482327,109.869656 L526.611762,134.092765 C527.471683,134.94351 528,136.097515 528,137.368421 C528,139.984507 525.761424,142.105263 523,142.105263 C520.238576,142.105263 518,139.984507 518,137.368421 C518,134.790257 520.174147,132.693167 522.880249,132.632911 L530.918279,107.894397 C530.339936,107.12157 530,106.177341 530,105.157895 C530,102.541809 532.238576,100.421053 535,100.421053 C537.761424,100.421053 540,102.541809 540,105.157895 C540,106.255049 539.606265,107.265082 538.945356,108.068095 L550.342863,141.168857 C552.944366,141.335764 555,143.387826 555,145.894737 C555,148.510822 552.761424,150.631579 550,150.631579 C547.238576,150.631579 545,148.510822 545,145.894737 C545,144.5427 545.597922,143.322966 546.556925,142.45991 L535.340122,109.88395 Z" id="Combined-Shape-Copy-22"></path>
                        <path d="M535.340122,160.094476 C535.227725,160.101629 535.114311,160.105263 535,160.105263 C534.825202,160.105263 534.6525,160.096766 534.482327,160.080183 L526.611762,184.303292 C527.471683,185.154037 528,186.308042 528,187.578947 C528,190.195033 525.761424,192.315789 523,192.315789 C520.238576,192.315789 518,190.195033 518,187.578947 C518,185.000784 520.174147,182.903693 522.880249,182.843437 L530.918279,158.104923 C530.339936,157.332096 530,156.387867 530,155.368421 C530,152.752335 532.238576,150.631579 535,150.631579 C537.761424,150.631579 540,152.752335 540,155.368421 C540,156.465576 539.606265,157.475609 538.945356,158.278621 L550.342863,191.379383 C552.944366,191.54629 555,193.598352 555,196.105263 C555,198.721349 552.761424,200.842105 550,200.842105 C547.238576,200.842105 545,198.721349 545,196.105263 C545,194.753227 545.597922,193.533493 546.556925,192.670437 L535.340122,160.094476 Z" id="Combined-Shape-Copy-13"></path>
                        <path d="M535.340122,9.46289718 C535.227725,9.4700501 535.114311,9.47368421 535,9.47368421 C534.825202,9.47368421 534.6525,9.46518662 534.482327,9.4486037 L526.611762,33.6717128 C527.471683,34.5224578 528,35.6764628 528,36.9473684 C528,39.5634541 525.761424,41.6842105 523,41.6842105 C520.238576,41.6842105 518,39.5634541 518,36.9473684 C518,34.3692047 520.174147,32.2721141 522.880249,32.2118582 L530.918279,7.47334432 C530.339936,6.70051735 530,5.75628847 530,4.73684211 C530,2.12075645 532.238576,0 535,0 C537.761424,0 540,2.12075645 540,4.73684211 C540,5.83399662 539.606265,6.84402958 538.945356,7.64704214 L550.342863,40.7478042 C552.944366,40.9147114 555,42.966773 555,45.4736842 C555,48.0897699 552.761424,50.2105263 550,50.2105263 C547.238576,50.2105263 545,48.0897699 545,45.4736842 C545,44.1216479 545.597922,42.9019136 546.556925,42.0388577 L535.340122,9.46289718 Z" id="Combined-Shape-Copy-23"></path>
                        <path d="M757.340122,160.094476 C757.227725,160.101629 757.114311,160.105263 757,160.105263 C756.825202,160.105263 756.6525,160.096766 756.482327,160.080183 L748.611762,184.303292 C749.471683,185.154037 750,186.308042 750,187.578947 C750,190.195033 747.761424,192.315789 745,192.315789 C742.238576,192.315789 740,190.195033 740,187.578947 C740,185.000784 742.174147,182.903693 744.880249,182.843437 L752.918279,158.104923 C752.339936,157.332096 752,156.387867 752,155.368421 C752,152.752335 754.238576,150.631579 757,150.631579 C759.761424,150.631579 762,152.752335 762,155.368421 C762,156.465576 761.606265,157.475609 760.945356,158.278621 L772.342863,191.379383 C774.944366,191.54629 777,193.598352 777,196.105263 C777,198.721349 774.761424,200.842105 772,200.842105 C769.238576,200.842105 767,198.721349 767,196.105263 C767,194.753227 767.597922,193.533493 768.556925,192.670437 L757.340122,160.094476 Z" id="Combined-Shape-Copy-59"></path>
                        <path d="M609.340122,210.305002 C609.227725,210.312155 609.114311,210.315789 609,210.315789 C608.825202,210.315789 608.6525,210.307292 608.482327,210.290709 L600.611762,234.513818 C601.471683,235.364563 602,236.518568 602,237.789474 C602,240.405559 599.761424,242.526316 597,242.526316 C594.238576,242.526316 592,240.405559 592,237.789474 C592,235.21131 594.174147,233.114219 596.880249,233.053964 L604.918279,208.31545 C604.339936,207.542623 604,206.598394 604,205.578947 C604,202.962862 606.238576,200.842105 609,200.842105 C611.761424,200.842105 614,202.962862 614,205.578947 C614,206.676102 613.606265,207.686135 612.945356,208.489147 L624.342863,241.589909 C626.944366,241.756817 629,243.808878 629,246.315789 C629,248.931875 626.761424,251.052632 624,251.052632 C621.238576,251.052632 619,248.931875 619,246.315789 C619,244.963753 619.597922,243.744019 620.556925,242.880963 L609.340122,210.305002 Z" id="Combined-Shape-Copy-4"></path>
                        <path d="M609.340122,59.6734235 C609.227725,59.6805764 609.114311,59.6842105 609,59.6842105 C608.825202,59.6842105 608.6525,59.6757129 608.482327,59.65913 L600.611762,83.8822392 C601.471683,84.7329841 602,85.8869892 602,87.1578947 C602,89.7739804 599.761424,91.8947368 597,91.8947368 C594.238576,91.8947368 592,89.7739804 592,87.1578947 C592,84.5797311 594.174147,82.4826404 596.880249,82.4223846 L604.918279,57.6838706 C604.339936,56.9110437 604,55.9668148 604,54.9473684 C604,52.3312828 606.238576,50.2105263 609,50.2105263 C611.761424,50.2105263 614,52.3312828 614,54.9473684 C614,56.0445229 613.606265,57.0545559 612.945356,57.8575685 L624.342863,90.9583305 C626.944366,91.1252378 629,93.1772993 629,95.6842105 C629,98.3002962 626.761424,100.421053 624,100.421053 C621.238576,100.421053 619,98.3002962 619,95.6842105 C619,94.3321742 619.597922,93.1124399 620.556925,92.249384 L609.340122,59.6734235 Z" id="Combined-Shape-Copy-24"></path>
                        <path d="M609.340122,260.515529 C609.227725,260.522682 609.114311,260.526316 609,260.526316 C608.825202,260.526316 608.6525,260.517818 608.482327,260.501235 L600.611762,284.724344 C601.471683,285.575089 602,286.729094 602,288 C602,290.616086 599.761424,292.736842 597,292.736842 C594.238576,292.736842 592,290.616086 592,288 C592,285.421836 594.174147,283.324746 596.880249,283.26449 L604.918279,258.525976 C604.339936,257.753149 604,256.80892 604,255.789474 C604,253.173388 606.238576,251.052632 609,251.052632 C611.761424,251.052632 614,253.173388 614,255.789474 C614,256.886628 613.606265,257.896661 612.945356,258.699674 L624.342863,291.800436 C626.944366,291.967343 629,294.019405 629,296.526316 C629,299.142401 626.761424,301.263158 624,301.263158 C621.238576,301.263158 619,299.142401 619,296.526316 C619,295.174279 619.597922,293.954545 620.556925,293.091489 L609.340122,260.515529 Z" id="Combined-Shape-Copy-8"></path>
                        <path d="M609.340122,109.88395 C609.227725,109.891103 609.114311,109.894737 609,109.894737 C608.825202,109.894737 608.6525,109.886239 608.482327,109.869656 L600.611762,134.092765 C601.471683,134.94351 602,136.097515 602,137.368421 C602,139.984507 599.761424,142.105263 597,142.105263 C594.238576,142.105263 592,139.984507 592,137.368421 C592,134.790257 594.174147,132.693167 596.880249,132.632911 L604.918279,107.894397 C604.339936,107.12157 604,106.177341 604,105.157895 C604,102.541809 606.238576,100.421053 609,100.421053 C611.761424,100.421053 614,102.541809 614,105.157895 C614,106.255049 613.606265,107.265082 612.945356,108.068095 L624.342863,141.168857 C626.944366,141.335764 629,143.387826 629,145.894737 C629,148.510822 626.761424,150.631579 624,150.631579 C621.238576,150.631579 619,148.510822 619,145.894737 C619,144.5427 619.597922,143.322966 620.556925,142.45991 L609.340122,109.88395 Z" id="Combined-Shape-Copy-25"></path>
                        <path d="M609.340122,160.094476 C609.227725,160.101629 609.114311,160.105263 609,160.105263 C608.825202,160.105263 608.6525,160.096766 608.482327,160.080183 L600.611762,184.303292 C601.471683,185.154037 602,186.308042 602,187.578947 C602,190.195033 599.761424,192.315789 597,192.315789 C594.238576,192.315789 592,190.195033 592,187.578947 C592,185.000784 594.174147,182.903693 596.880249,182.843437 L604.918279,158.104923 C604.339936,157.332096 604,156.387867 604,155.368421 C604,152.752335 606.238576,150.631579 609,150.631579 C611.761424,150.631579 614,152.752335 614,155.368421 C614,156.465576 613.606265,157.475609 612.945356,158.278621 L624.342863,191.379383 C626.944366,191.54629 629,193.598352 629,196.105263 C629,198.721349 626.761424,200.842105 624,200.842105 C621.238576,200.842105 619,198.721349 619,196.105263 C619,194.753227 619.597922,193.533493 620.556925,192.670437 L609.340122,160.094476 Z" id="Combined-Shape-Copy-14"></path>
                        <path d="M609.340122,9.46289718 C609.227725,9.4700501 609.114311,9.47368421 609,9.47368421 C608.825202,9.47368421 608.6525,9.46518662 608.482327,9.4486037 L600.611762,33.6717128 C601.471683,34.5224578 602,35.6764628 602,36.9473684 C602,39.5634541 599.761424,41.6842105 597,41.6842105 C594.238576,41.6842105 592,39.5634541 592,36.9473684 C592,34.3692047 594.174147,32.2721141 596.880249,32.2118582 L604.918279,7.47334432 C604.339936,6.70051735 604,5.75628847 604,4.73684211 C604,2.12075645 606.238576,0 609,0 C611.761424,0 614,2.12075645 614,4.73684211 C614,5.83399662 613.606265,6.84402958 612.945356,7.64704214 L624.342863,40.7478042 C626.944366,40.9147114 629,42.966773 629,45.4736842 C629,48.0897699 626.761424,50.2105263 624,50.2105263 C621.238576,50.2105263 619,48.0897699 619,45.4736842 C619,44.1216479 619.597922,42.9019136 620.556925,42.0388577 L609.340122,9.46289718 Z" id="Combined-Shape-Copy-26"></path>
                        <path d="M498.340122,210.305002 C498.227725,210.312155 498.114311,210.315789 498,210.315789 C497.825202,210.315789 497.6525,210.307292 497.482327,210.290709 L489.611762,234.513818 C490.471683,235.364563 491,236.518568 491,237.789474 C491,240.405559 488.761424,242.526316 486,242.526316 C483.238576,242.526316 481,240.405559 481,237.789474 C481,235.21131 483.174147,233.114219 485.880249,233.053964 L493.918279,208.31545 C493.339936,207.542623 493,206.598394 493,205.578947 C493,202.962862 495.238576,200.842105 498,200.842105 C500.761424,200.842105 503,202.962862 503,205.578947 C503,206.676102 502.606265,207.686135 501.945356,208.489147 L513.342863,241.589909 C515.944366,241.756817 518,243.808878 518,246.315789 C518,248.931875 515.761424,251.052632 513,251.052632 C510.238576,251.052632 508,248.931875 508,246.315789 C508,244.963753 508.597922,243.744019 509.556925,242.880963 L498.340122,210.305002 Z" id="Combined-Shape-Copy" transform="translate(499.500000, 225.947368) scale(1, -1) translate(-499.500000, -225.947368) "></path>
                        <path d="M498.340122,59.6734235 C498.227725,59.6805764 498.114311,59.6842105 498,59.6842105 C497.825202,59.6842105 497.6525,59.6757129 497.482327,59.65913 L489.611762,83.8822392 C490.471683,84.7329841 491,85.8869892 491,87.1578947 C491,89.7739804 488.761424,91.8947368 486,91.8947368 C483.238576,91.8947368 481,89.7739804 481,87.1578947 C481,84.5797311 483.174147,82.4826404 485.880249,82.4223846 L493.918279,57.6838706 C493.339936,56.9110437 493,55.9668148 493,54.9473684 C493,52.3312828 495.238576,50.2105263 498,50.2105263 C500.761424,50.2105263 503,52.3312828 503,54.9473684 C503,56.0445229 502.606265,57.0545559 501.945356,57.8575685 L513.342863,90.9583305 C515.944366,91.1252378 518,93.1772993 518,95.6842105 C518,98.3002962 515.761424,100.421053 513,100.421053 C510.238576,100.421053 508,98.3002962 508,95.6842105 C508,94.3321742 508.597922,93.1124399 509.556925,92.249384 L498.340122,59.6734235 Z" id="Combined-Shape-Copy-27" transform="translate(499.500000, 75.315789) scale(1, -1) translate(-499.500000, -75.315789) "></path>
                        <path d="M720.340122,210.305002 C720.227725,210.312155 720.114311,210.315789 720,210.315789 C719.825202,210.315789 719.6525,210.307292 719.482327,210.290709 L711.611762,234.513818 C712.471683,235.364563 713,236.518568 713,237.789474 C713,240.405559 710.761424,242.526316 708,242.526316 C705.238576,242.526316 703,240.405559 703,237.789474 C703,235.21131 705.174147,233.114219 707.880249,233.053964 L715.918279,208.31545 C715.339936,207.542623 715,206.598394 715,205.578947 C715,202.962862 717.238576,200.842105 720,200.842105 C722.761424,200.842105 725,202.962862 725,205.578947 C725,206.676102 724.606265,207.686135 723.945356,208.489147 L735.342863,241.589909 C737.944366,241.756817 740,243.808878 740,246.315789 C740,248.931875 737.761424,251.052632 735,251.052632 C732.238576,251.052632 730,248.931875 730,246.315789 C730,244.963753 730.597922,243.744019 731.556925,242.880963 L720.340122,210.305002 Z" id="Combined-Shape-Copy-63" transform="translate(721.500000, 225.947368) scale(1, -1) translate(-721.500000, -225.947368) "></path>
                        <path d="M498.340122,260.515529 C498.227725,260.522682 498.114311,260.526316 498,260.526316 C497.825202,260.526316 497.6525,260.517818 497.482327,260.501235 L489.611762,284.724344 C490.471683,285.575089 491,286.729094 491,288 C491,290.616086 488.761424,292.736842 486,292.736842 C483.238576,292.736842 481,290.616086 481,288 C481,285.421836 483.174147,283.324746 485.880249,283.26449 L493.918279,258.525976 C493.339936,257.753149 493,256.80892 493,255.789474 C493,253.173388 495.238576,251.052632 498,251.052632 C500.761424,251.052632 503,253.173388 503,255.789474 C503,256.886628 502.606265,257.896661 501.945356,258.699674 L513.342863,291.800436 C515.944366,291.967343 518,294.019405 518,296.526316 C518,299.142401 515.761424,301.263158 513,301.263158 C510.238576,301.263158 508,299.142401 508,296.526316 C508,295.174279 508.597922,293.954545 509.556925,293.091489 L498.340122,260.515529 Z" id="Combined-Shape-Copy-9" transform="translate(499.500000, 276.157895) scale(1, -1) translate(-499.500000, -276.157895) "></path>
                        <path d="M498.340122,109.88395 C498.227725,109.891103 498.114311,109.894737 498,109.894737 C497.825202,109.894737 497.6525,109.886239 497.482327,109.869656 L489.611762,134.092765 C490.471683,134.94351 491,136.097515 491,137.368421 C491,139.984507 488.761424,142.105263 486,142.105263 C483.238576,142.105263 481,139.984507 481,137.368421 C481,134.790257 483.174147,132.693167 485.880249,132.632911 L493.918279,107.894397 C493.339936,107.12157 493,106.177341 493,105.157895 C493,102.541809 495.238576,100.421053 498,100.421053 C500.761424,100.421053 503,102.541809 503,105.157895 C503,106.255049 502.606265,107.265082 501.945356,108.068095 L513.342863,141.168857 C515.944366,141.335764 518,143.387826 518,145.894737 C518,148.510822 515.761424,150.631579 513,150.631579 C510.238576,150.631579 508,148.510822 508,145.894737 C508,144.5427 508.597922,143.322966 509.556925,142.45991 L498.340122,109.88395 Z" id="Combined-Shape-Copy-28" transform="translate(499.500000, 125.526316) scale(1, -1) translate(-499.500000, -125.526316) "></path>
                        <path d="M720.340122,109.88395 C720.227725,109.891103 720.114311,109.894737 720,109.894737 C719.825202,109.894737 719.6525,109.886239 719.482327,109.869656 L711.611762,134.092765 C712.471683,134.94351 713,136.097515 713,137.368421 C713,139.984507 710.761424,142.105263 708,142.105263 C705.238576,142.105263 703,139.984507 703,137.368421 C703,134.790257 705.174147,132.693167 707.880249,132.632911 L715.918279,107.894397 C715.339936,107.12157 715,106.177341 715,105.157895 C715,102.541809 717.238576,100.421053 720,100.421053 C722.761424,100.421053 725,102.541809 725,105.157895 C725,106.255049 724.606265,107.265082 723.945356,108.068095 L735.342863,141.168857 C737.944366,141.335764 740,143.387826 740,145.894737 C740,148.510822 737.761424,150.631579 735,150.631579 C732.238576,150.631579 730,148.510822 730,145.894737 C730,144.5427 730.597922,143.322966 731.556925,142.45991 L720.340122,109.88395 Z" id="Combined-Shape-Copy-46" transform="translate(721.500000, 125.526316) scale(1, -1) translate(-721.500000, -125.526316) "></path>
                        <path d="M720.340122,260.515529 C720.227725,260.522682 720.114311,260.526316 720,260.526316 C719.825202,260.526316 719.6525,260.517818 719.482327,260.501235 L711.611762,284.724344 C712.471683,285.575089 713,286.729094 713,288 C713,290.616086 710.761424,292.736842 708,292.736842 C705.238576,292.736842 703,290.616086 703,288 C703,285.421836 705.174147,283.324746 707.880249,283.26449 L715.918279,258.525976 C715.339936,257.753149 715,256.80892 715,255.789474 C715,253.173388 717.238576,251.052632 720,251.052632 C722.761424,251.052632 725,253.173388 725,255.789474 C725,256.886628 724.606265,257.896661 723.945356,258.699674 L735.342863,291.800436 C737.944366,291.967343 740,294.019405 740,296.526316 C740,299.142401 737.761424,301.263158 735,301.263158 C732.238576,301.263158 730,299.142401 730,296.526316 C730,295.174279 730.597922,293.954545 731.556925,293.091489 L720.340122,260.515529 Z" id="Combined-Shape-Copy-64" transform="translate(721.500000, 276.157895) scale(1, -1) translate(-721.500000, -276.157895) "></path>
                        <path d="M498.340122,160.094476 C498.227725,160.101629 498.114311,160.105263 498,160.105263 C497.825202,160.105263 497.6525,160.096766 497.482327,160.080183 L489.611762,184.303292 C490.471683,185.154037 491,186.308042 491,187.578947 C491,190.195033 488.761424,192.315789 486,192.315789 C483.238576,192.315789 481,190.195033 481,187.578947 C481,185.000784 483.174147,182.903693 485.880249,182.843437 L493.918279,158.104923 C493.339936,157.332096 493,156.387867 493,155.368421 C493,152.752335 495.238576,150.631579 498,150.631579 C500.761424,150.631579 503,152.752335 503,155.368421 C503,156.465576 502.606265,157.475609 501.945356,158.278621 L513.342863,191.379383 C515.944366,191.54629 518,193.598352 518,196.105263 C518,198.721349 515.761424,200.842105 513,200.842105 C510.238576,200.842105 508,198.721349 508,196.105263 C508,194.753227 508.597922,193.533493 509.556925,192.670437 L498.340122,160.094476 Z" id="Combined-Shape-Copy-15" transform="translate(499.500000, 175.736842) scale(1, -1) translate(-499.500000, -175.736842) "></path>
                        <path d="M720.340122,160.094476 C720.227725,160.101629 720.114311,160.105263 720,160.105263 C719.825202,160.105263 719.6525,160.096766 719.482327,160.080183 L711.611762,184.303292 C712.471683,185.154037 713,186.308042 713,187.578947 C713,190.195033 710.761424,192.315789 708,192.315789 C705.238576,192.315789 703,190.195033 703,187.578947 C703,185.000784 705.174147,182.903693 707.880249,182.843437 L715.918279,158.104923 C715.339936,157.332096 715,156.387867 715,155.368421 C715,152.752335 717.238576,150.631579 720,150.631579 C722.761424,150.631579 725,152.752335 725,155.368421 C725,156.465576 724.606265,157.475609 723.945356,158.278621 L735.342863,191.379383 C737.944366,191.54629 740,193.598352 740,196.105263 C740,198.721349 737.761424,200.842105 735,200.842105 C732.238576,200.842105 730,198.721349 730,196.105263 C730,194.753227 730.597922,193.533493 731.556925,192.670437 L720.340122,160.094476 Z" id="Combined-Shape-Copy-65" transform="translate(721.500000, 175.736842) scale(1, -1) translate(-721.500000, -175.736842) "></path>
                        <path d="M646.340122,210.305002 C646.227725,210.312155 646.114311,210.315789 646,210.315789 C645.825202,210.315789 645.6525,210.307292 645.482327,210.290709 L637.611762,234.513818 C638.471683,235.364563 639,236.518568 639,237.789474 C639,240.405559 636.761424,242.526316 634,242.526316 C631.238576,242.526316 629,240.405559 629,237.789474 C629,235.21131 631.174147,233.114219 633.880249,233.053964 L641.918279,208.31545 C641.339936,207.542623 641,206.598394 641,205.578947 C641,202.962862 643.238576,200.842105 646,200.842105 C648.761424,200.842105 651,202.962862 651,205.578947 C651,206.676102 650.606265,207.686135 649.945356,208.489147 L661.342863,241.589909 C663.944366,241.756817 666,243.808878 666,246.315789 C666,248.931875 663.761424,251.052632 661,251.052632 C658.238576,251.052632 656,248.931875 656,246.315789 C656,244.963753 656.597922,243.744019 657.556925,242.880963 L646.340122,210.305002 Z" id="Combined-Shape-Copy-5" transform="translate(647.500000, 225.947368) scale(1, -1) translate(-647.500000, -225.947368) "></path>
                        <path d="M646.340122,59.6734235 C646.227725,59.6805764 646.114311,59.6842105 646,59.6842105 C645.825202,59.6842105 645.6525,59.6757129 645.482327,59.65913 L637.611762,83.8822392 C638.471683,84.7329841 639,85.8869892 639,87.1578947 C639,89.7739804 636.761424,91.8947368 634,91.8947368 C631.238576,91.8947368 629,89.7739804 629,87.1578947 C629,84.5797311 631.174147,82.4826404 633.880249,82.4223846 L641.918279,57.6838706 C641.339936,56.9110437 641,55.9668148 641,54.9473684 C641,52.3312828 643.238576,50.2105263 646,50.2105263 C648.761424,50.2105263 651,52.3312828 651,54.9473684 C651,56.0445229 650.606265,57.0545559 649.945356,57.8575685 L661.342863,90.9583305 C663.944366,91.1252378 666,93.1772993 666,95.6842105 C666,98.3002962 663.761424,100.421053 661,100.421053 C658.238576,100.421053 656,98.3002962 656,95.6842105 C656,94.3321742 656.597922,93.1124399 657.556925,92.249384 L646.340122,59.6734235 Z" id="Combined-Shape-Copy-30" transform="translate(647.500000, 75.315789) scale(1, -1) translate(-647.500000, -75.315789) "></path>
                        <path d="M646.340122,260.515529 C646.227725,260.522682 646.114311,260.526316 646,260.526316 C645.825202,260.526316 645.6525,260.517818 645.482327,260.501235 L637.611762,284.724344 C638.471683,285.575089 639,286.729094 639,288 C639,290.616086 636.761424,292.736842 634,292.736842 C631.238576,292.736842 629,290.616086 629,288 C629,285.421836 631.174147,283.324746 633.880249,283.26449 L641.918279,258.525976 C641.339936,257.753149 641,256.80892 641,255.789474 C641,253.173388 643.238576,251.052632 646,251.052632 C648.761424,251.052632 651,253.173388 651,255.789474 C651,256.886628 650.606265,257.896661 649.945356,258.699674 L661.342863,291.800436 C663.944366,291.967343 666,294.019405 666,296.526316 C666,299.142401 663.761424,301.263158 661,301.263158 C658.238576,301.263158 656,299.142401 656,296.526316 C656,295.174279 656.597922,293.954545 657.556925,293.091489 L646.340122,260.515529 Z" id="Combined-Shape-Copy-10" transform="translate(647.500000, 276.157895) scale(1, -1) translate(-647.500000, -276.157895) "></path>
                        <path d="M646.340122,109.88395 C646.227725,109.891103 646.114311,109.894737 646,109.894737 C645.825202,109.894737 645.6525,109.886239 645.482327,109.869656 L637.611762,134.092765 C638.471683,134.94351 639,136.097515 639,137.368421 C639,139.984507 636.761424,142.105263 634,142.105263 C631.238576,142.105263 629,139.984507 629,137.368421 C629,134.790257 631.174147,132.693167 633.880249,132.632911 L641.918279,107.894397 C641.339936,107.12157 641,106.177341 641,105.157895 C641,102.541809 643.238576,100.421053 646,100.421053 C648.761424,100.421053 651,102.541809 651,105.157895 C651,106.255049 650.606265,107.265082 649.945356,108.068095 L661.342863,141.168857 C663.944366,141.335764 666,143.387826 666,145.894737 C666,148.510822 663.761424,150.631579 661,150.631579 C658.238576,150.631579 656,148.510822 656,145.894737 C656,144.5427 656.597922,143.322966 657.556925,142.45991 L646.340122,109.88395 Z" id="Combined-Shape-Copy-31" transform="translate(647.500000, 125.526316) scale(1, -1) translate(-647.500000, -125.526316) "></path>
                        <path d="M646.340122,160.094476 C646.227725,160.101629 646.114311,160.105263 646,160.105263 C645.825202,160.105263 645.6525,160.096766 645.482327,160.080183 L637.611762,184.303292 C638.471683,185.154037 639,186.308042 639,187.578947 C639,190.195033 636.761424,192.315789 634,192.315789 C631.238576,192.315789 629,190.195033 629,187.578947 C629,185.000784 631.174147,182.903693 633.880249,182.843437 L641.918279,158.104923 C641.339936,157.332096 641,156.387867 641,155.368421 C641,152.752335 643.238576,150.631579 646,150.631579 C648.761424,150.631579 651,152.752335 651,155.368421 C651,156.465576 650.606265,157.475609 649.945356,158.278621 L661.342863,191.379383 C663.944366,191.54629 666,193.598352 666,196.105263 C666,198.721349 663.761424,200.842105 661,200.842105 C658.238576,200.842105 656,198.721349 656,196.105263 C656,194.753227 656.597922,193.533493 657.556925,192.670437 L646.340122,160.094476 Z" id="Combined-Shape-Copy-16" transform="translate(647.500000, 175.736842) scale(1, -1) translate(-647.500000, -175.736842) "></path>
                        <path d="M572.340122,210.305002 C572.227725,210.312155 572.114311,210.315789 572,210.315789 C571.825202,210.315789 571.6525,210.307292 571.482327,210.290709 L563.611762,234.513818 C564.471683,235.364563 565,236.518568 565,237.789474 C565,240.405559 562.761424,242.526316 560,242.526316 C557.238576,242.526316 555,240.405559 555,237.789474 C555,235.21131 557.174147,233.114219 559.880249,233.053964 L567.918279,208.31545 C567.339936,207.542623 567,206.598394 567,205.578947 C567,202.962862 569.238576,200.842105 572,200.842105 C574.761424,200.842105 577,202.962862 577,205.578947 C577,206.676102 576.606265,207.686135 575.945356,208.489147 L587.342863,241.589909 C589.944366,241.756817 592,243.808878 592,246.315789 C592,248.931875 589.761424,251.052632 587,251.052632 C584.238576,251.052632 582,248.931875 582,246.315789 C582,244.963753 582.597922,243.744019 583.556925,242.880963 L572.340122,210.305002 Z" id="Combined-Shape-Copy-3" transform="translate(573.500000, 225.947368) scale(1, -1) translate(-573.500000, -225.947368) "></path>
                        <path d="M572.340122,59.6734235 C572.227725,59.6805764 572.114311,59.6842105 572,59.6842105 C571.825202,59.6842105 571.6525,59.6757129 571.482327,59.65913 L563.611762,83.8822392 C564.471683,84.7329841 565,85.8869892 565,87.1578947 C565,89.7739804 562.761424,91.8947368 560,91.8947368 C557.238576,91.8947368 555,89.7739804 555,87.1578947 C555,84.5797311 557.174147,82.4826404 559.880249,82.4223846 L567.918279,57.6838706 C567.339936,56.9110437 567,55.9668148 567,54.9473684 C567,52.3312828 569.238576,50.2105263 572,50.2105263 C574.761424,50.2105263 577,52.3312828 577,54.9473684 C577,56.0445229 576.606265,57.0545559 575.945356,57.8575685 L587.342863,90.9583305 C589.944366,91.1252378 592,93.1772993 592,95.6842105 C592,98.3002962 589.761424,100.421053 587,100.421053 C584.238576,100.421053 582,98.3002962 582,95.6842105 C582,94.3321742 582.597922,93.1124399 583.556925,92.249384 L572.340122,59.6734235 Z" id="Combined-Shape-Copy-33" transform="translate(573.500000, 75.315789) scale(1, -1) translate(-573.500000, -75.315789) "></path>
                        <path d="M572.340122,260.515529 C572.227725,260.522682 572.114311,260.526316 572,260.526316 C571.825202,260.526316 571.6525,260.517818 571.482327,260.501235 L563.611762,284.724344 C564.471683,285.575089 565,286.729094 565,288 C565,290.616086 562.761424,292.736842 560,292.736842 C557.238576,292.736842 555,290.616086 555,288 C555,285.421836 557.174147,283.324746 559.880249,283.26449 L567.918279,258.525976 C567.339936,257.753149 567,256.80892 567,255.789474 C567,253.173388 569.238576,251.052632 572,251.052632 C574.761424,251.052632 577,253.173388 577,255.789474 C577,256.886628 576.606265,257.896661 575.945356,258.699674 L587.342863,291.800436 C589.944366,291.967343 592,294.019405 592,296.526316 C592,299.142401 589.761424,301.263158 587,301.263158 C584.238576,301.263158 582,299.142401 582,296.526316 C582,295.174279 582.597922,293.954545 583.556925,293.091489 L572.340122,260.515529 Z" id="Combined-Shape-Copy-11" transform="translate(573.500000, 276.157895) scale(1, -1) translate(-573.500000, -276.157895) "></path>
                        <path d="M572.340122,109.88395 C572.227725,109.891103 572.114311,109.894737 572,109.894737 C571.825202,109.894737 571.6525,109.886239 571.482327,109.869656 L563.611762,134.092765 C564.471683,134.94351 565,136.097515 565,137.368421 C565,139.984507 562.761424,142.105263 560,142.105263 C557.238576,142.105263 555,139.984507 555,137.368421 C555,134.790257 557.174147,132.693167 559.880249,132.632911 L567.918279,107.894397 C567.339936,107.12157 567,106.177341 567,105.157895 C567,102.541809 569.238576,100.421053 572,100.421053 C574.761424,100.421053 577,102.541809 577,105.157895 C577,106.255049 576.606265,107.265082 575.945356,108.068095 L587.342863,141.168857 C589.944366,141.335764 592,143.387826 592,145.894737 C592,148.510822 589.761424,150.631579 587,150.631579 C584.238576,150.631579 582,148.510822 582,145.894737 C582,144.5427 582.597922,143.322966 583.556925,142.45991 L572.340122,109.88395 Z" id="Combined-Shape-Copy-34" transform="translate(573.500000, 125.526316) scale(1, -1) translate(-573.500000, -125.526316) "></path>
                        <path d="M572.340122,160.094476 C572.227725,160.101629 572.114311,160.105263 572,160.105263 C571.825202,160.105263 571.6525,160.096766 571.482327,160.080183 L563.611762,184.303292 C564.471683,185.154037 565,186.308042 565,187.578947 C565,190.195033 562.761424,192.315789 560,192.315789 C557.238576,192.315789 555,190.195033 555,187.578947 C555,185.000784 557.174147,182.903693 559.880249,182.843437 L567.918279,158.104923 C567.339936,157.332096 567,156.387867 567,155.368421 C567,152.752335 569.238576,150.631579 572,150.631579 C574.761424,150.631579 577,152.752335 577,155.368421 C577,156.465576 576.606265,157.475609 575.945356,158.278621 L587.342863,191.379383 C589.944366,191.54629 592,193.598352 592,196.105263 C592,198.721349 589.761424,200.842105 587,200.842105 C584.238576,200.842105 582,198.721349 582,196.105263 C582,194.753227 582.597922,193.533493 583.556925,192.670437 L572.340122,160.094476 Z" id="Combined-Shape-Copy-17" transform="translate(573.500000, 175.736842) scale(1, -1) translate(-573.500000, -175.736842) "></path>
                        <path d="M572.340122,9.46289718 C572.227725,9.4700501 572.114311,9.47368421 572,9.47368421 C571.825202,9.47368421 571.6525,9.46518662 571.482327,9.4486037 L563.611762,33.6717128 C564.471683,34.5224578 565,35.6764628 565,36.9473684 C565,39.5634541 562.761424,41.6842105 560,41.6842105 C557.238576,41.6842105 555,39.5634541 555,36.9473684 C555,34.3692047 557.174147,32.2721141 559.880249,32.2118582 L567.918279,7.47334432 C567.339936,6.70051735 567,5.75628847 567,4.73684211 C567,2.12075645 569.238576,0 572,0 C574.761424,0 577,2.12075645 577,4.73684211 C577,5.83399662 576.606265,6.84402958 575.945356,7.64704214 L587.342863,40.7478042 C589.944366,40.9147114 592,42.966773 592,45.4736842 C592,48.0897699 589.761424,50.2105263 587,50.2105263 C584.238576,50.2105263 582,48.0897699 582,45.4736842 C582,44.1216479 582.597922,42.9019136 583.556925,42.0388577 L572.340122,9.46289718 Z" id="Combined-Shape-Copy-35" transform="translate(573.500000, 25.105263) scale(1, -1) translate(-573.500000, -25.105263) "></path>
                        <path d="M461.340122,360.936581 C461.227725,360.943734 461.114311,360.947368 461,360.947368 C460.825202,360.947368 460.6525,360.938871 460.482327,360.922288 L452.611762,385.145397 C453.471683,385.996142 454,387.150147 454,388.421053 C454,391.037138 451.761424,393.157895 449,393.157895 C446.238576,393.157895 444,391.037138 444,388.421053 C444,385.842889 446.174147,383.745798 448.880249,383.685542 L456.918279,358.947029 C456.339936,358.174202 456,357.229973 456,356.210526 C456,353.594441 458.238576,351.473684 461,351.473684 C463.761424,351.473684 466,353.594441 466,356.210526 C466,357.307681 465.606265,358.317714 464.945356,359.120726 L476.342863,392.221488 C478.944366,392.388396 481,394.440457 481,396.947368 C481,399.563454 478.761424,401.684211 476,401.684211 C473.238576,401.684211 471,399.563454 471,396.947368 C471,395.595332 471.597922,394.375598 472.556925,393.512542 L461.340122,360.936581 Z" id="Combined-Shape-Copy-18"></path>
                        <path d="M461.340122,411.147108 C461.227725,411.154261 461.114311,411.157895 461,411.157895 C460.825202,411.157895 460.6525,411.149397 460.482327,411.132814 L452.611762,435.355923 C453.471683,436.206668 454,437.360673 454,438.631579 C454,441.247665 451.761424,443.368421 449,443.368421 C446.238576,443.368421 444,441.247665 444,438.631579 C444,436.053415 446.174147,433.956325 448.880249,433.896069 L456.918279,409.157555 C456.339936,408.384728 456,407.440499 456,406.421053 C456,403.804967 458.238576,401.684211 461,401.684211 C463.761424,401.684211 466,403.804967 466,406.421053 C466,407.518207 465.606265,408.52824 464.945356,409.331253 L476.342863,442.432015 C478.944366,442.598922 481,444.650983 481,447.157895 C481,449.77398 478.761424,451.894737 476,451.894737 C473.238576,451.894737 471,449.77398 471,447.157895 C471,445.805858 471.597922,444.586124 472.556925,443.723068 L461.340122,411.147108 Z" id="Combined-Shape-Copy-19"></path>
                        <path d="M461.340122,310.726055 C461.227725,310.733208 461.114311,310.736842 461,310.736842 C460.825202,310.736842 460.6525,310.728345 460.482327,310.711762 L452.611762,334.934871 C453.471683,335.785616 454,336.939621 454,338.210526 C454,340.826612 451.761424,342.947368 449,342.947368 C446.238576,342.947368 444,340.826612 444,338.210526 C444,335.632363 446.174147,333.535272 448.880249,333.475016 L456.918279,308.736502 C456.339936,307.963675 456,307.019446 456,306 C456,303.383914 458.238576,301.263158 461,301.263158 C463.761424,301.263158 466,303.383914 466,306 C466,307.097155 465.606265,308.107187 464.945356,308.9102 L476.342863,342.010962 C478.944366,342.177869 481,344.229931 481,346.736842 C481,349.352928 478.761424,351.473684 476,351.473684 C473.238576,351.473684 471,349.352928 471,346.736842 C471,345.384806 471.597922,344.165072 472.556925,343.302016 L461.340122,310.726055 Z" id="Combined-Shape-Copy-20"></path>
                        <path d="M535.340122,360.936581 C535.227725,360.943734 535.114311,360.947368 535,360.947368 C534.825202,360.947368 534.6525,360.938871 534.482327,360.922288 L526.611762,385.145397 C527.471683,385.996142 528,387.150147 528,388.421053 C528,391.037138 525.761424,393.157895 523,393.157895 C520.238576,393.157895 518,391.037138 518,388.421053 C518,385.842889 520.174147,383.745798 522.880249,383.685542 L530.918279,358.947029 C530.339936,358.174202 530,357.229973 530,356.210526 C530,353.594441 532.238576,351.473684 535,351.473684 C537.761424,351.473684 540,353.594441 540,356.210526 C540,357.307681 539.606265,358.317714 538.945356,359.120726 L550.342863,392.221488 C552.944366,392.388396 555,394.440457 555,396.947368 C555,399.563454 552.761424,401.684211 550,401.684211 C547.238576,401.684211 545,399.563454 545,396.947368 C545,395.595332 545.597922,394.375598 546.556925,393.512542 L535.340122,360.936581 Z" id="Combined-Shape-Copy-21"></path>
                        <path d="M535.340122,411.147108 C535.227725,411.154261 535.114311,411.157895 535,411.157895 C534.825202,411.157895 534.6525,411.149397 534.482327,411.132814 L526.611762,435.355923 C527.471683,436.206668 528,437.360673 528,438.631579 C528,441.247665 525.761424,443.368421 523,443.368421 C520.238576,443.368421 518,441.247665 518,438.631579 C518,436.053415 520.174147,433.956325 522.880249,433.896069 L530.918279,409.157555 C530.339936,408.384728 530,407.440499 530,406.421053 C530,403.804967 532.238576,401.684211 535,401.684211 C537.761424,401.684211 540,403.804967 540,406.421053 C540,407.518207 539.606265,408.52824 538.945356,409.331253 L550.342863,442.432015 C552.944366,442.598922 555,444.650983 555,447.157895 C555,449.77398 552.761424,451.894737 550,451.894737 C547.238576,451.894737 545,449.77398 545,447.157895 C545,445.805858 545.597922,444.586124 546.556925,443.723068 L535.340122,411.147108 Z" id="Combined-Shape-Copy-22"></path>
                        <path d="M535.340122,310.726055 C535.227725,310.733208 535.114311,310.736842 535,310.736842 C534.825202,310.736842 534.6525,310.728345 534.482327,310.711762 L526.611762,334.934871 C527.471683,335.785616 528,336.939621 528,338.210526 C528,340.826612 525.761424,342.947368 523,342.947368 C520.238576,342.947368 518,340.826612 518,338.210526 C518,335.632363 520.174147,333.535272 522.880249,333.475016 L530.918279,308.736502 C530.339936,307.963675 530,307.019446 530,306 C530,303.383914 532.238576,301.263158 535,301.263158 C537.761424,301.263158 540,303.383914 540,306 C540,307.097155 539.606265,308.107187 538.945356,308.9102 L550.342863,342.010962 C552.944366,342.177869 555,344.229931 555,346.736842 C555,349.352928 552.761424,351.473684 550,351.473684 C547.238576,351.473684 545,349.352928 545,346.736842 C545,345.384806 545.597922,344.165072 546.556925,343.302016 L535.340122,310.726055 Z" id="Combined-Shape-Copy-23"></path>
                        <path d="M609.340122,360.936581 C609.227725,360.943734 609.114311,360.947368 609,360.947368 C608.825202,360.947368 608.6525,360.938871 608.482327,360.922288 L600.611762,385.145397 C601.471683,385.996142 602,387.150147 602,388.421053 C602,391.037138 599.761424,393.157895 597,393.157895 C594.238576,393.157895 592,391.037138 592,388.421053 C592,385.842889 594.174147,383.745798 596.880249,383.685542 L604.918279,358.947029 C604.339936,358.174202 604,357.229973 604,356.210526 C604,353.594441 606.238576,351.473684 609,351.473684 C611.761424,351.473684 614,353.594441 614,356.210526 C614,357.307681 613.606265,358.317714 612.945356,359.120726 L624.342863,392.221488 C626.944366,392.388396 629,394.440457 629,396.947368 C629,399.563454 626.761424,401.684211 624,401.684211 C621.238576,401.684211 619,399.563454 619,396.947368 C619,395.595332 619.597922,394.375598 620.556925,393.512542 L609.340122,360.936581 Z" id="Combined-Shape-Copy-24"></path>
                        <path d="M609.340122,310.726055 C609.227725,310.733208 609.114311,310.736842 609,310.736842 C608.825202,310.736842 608.6525,310.728345 608.482327,310.711762 L600.611762,334.934871 C601.471683,335.785616 602,336.939621 602,338.210526 C602,340.826612 599.761424,342.947368 597,342.947368 C594.238576,342.947368 592,340.826612 592,338.210526 C592,335.632363 594.174147,333.535272 596.880249,333.475016 L604.918279,308.736502 C604.339936,307.963675 604,307.019446 604,306 C604,303.383914 606.238576,301.263158 609,301.263158 C611.761424,301.263158 614,303.383914 614,306 C614,307.097155 613.606265,308.107187 612.945356,308.9102 L624.342863,342.010962 C626.944366,342.177869 629,344.229931 629,346.736842 C629,349.352928 626.761424,351.473684 624,351.473684 C621.238576,351.473684 619,349.352928 619,346.736842 C619,345.384806 619.597922,344.165072 620.556925,343.302016 L609.340122,310.726055 Z" id="Combined-Shape-Copy-26"></path>
                        <path d="M498.340122,360.936581 C498.227725,360.943734 498.114311,360.947368 498,360.947368 C497.825202,360.947368 497.6525,360.938871 497.482327,360.922288 L489.611762,385.145397 C490.471683,385.996142 491,387.150147 491,388.421053 C491,391.037138 488.761424,393.157895 486,393.157895 C483.238576,393.157895 481,391.037138 481,388.421053 C481,385.842889 483.174147,383.745798 485.880249,383.685542 L493.918279,358.947029 C493.339936,358.174202 493,357.229973 493,356.210526 C493,353.594441 495.238576,351.473684 498,351.473684 C500.761424,351.473684 503,353.594441 503,356.210526 C503,357.307681 502.606265,358.317714 501.945356,359.120726 L513.342863,392.221488 C515.944366,392.388396 518,394.440457 518,396.947368 C518,399.563454 515.761424,401.684211 513,401.684211 C510.238576,401.684211 508,399.563454 508,396.947368 C508,395.595332 508.597922,394.375598 509.556925,393.512542 L498.340122,360.936581 Z" id="Combined-Shape-Copy-27" transform="translate(499.500000, 376.578947) scale(1, -1) translate(-499.500000, -376.578947) "></path>
                        <path d="M498.340122,411.147108 C498.227725,411.154261 498.114311,411.157895 498,411.157895 C497.825202,411.157895 497.6525,411.149397 497.482327,411.132814 L489.611762,435.355923 C490.471683,436.206668 491,437.360673 491,438.631579 C491,441.247665 488.761424,443.368421 486,443.368421 C483.238576,443.368421 481,441.247665 481,438.631579 C481,436.053415 483.174147,433.956325 485.880249,433.896069 L493.918279,409.157555 C493.339936,408.384728 493,407.440499 493,406.421053 C493,403.804967 495.238576,401.684211 498,401.684211 C500.761424,401.684211 503,403.804967 503,406.421053 C503,407.518207 502.606265,408.52824 501.945356,409.331253 L513.342863,442.432015 C515.944366,442.598922 518,444.650983 518,447.157895 C518,449.77398 515.761424,451.894737 513,451.894737 C510.238576,451.894737 508,449.77398 508,447.157895 C508,445.805858 508.597922,444.586124 509.556925,443.723068 L498.340122,411.147108 Z" id="Combined-Shape-Copy-28" transform="translate(499.500000, 426.789474) scale(1, -1) translate(-499.500000, -426.789474) "></path>
                        <path d="M498.340122,461.357634 C498.227725,461.364787 498.114311,461.368421 498,461.368421 C497.825202,461.368421 497.6525,461.359923 497.482327,461.343341 L489.611762,485.56645 C490.471683,486.417195 491,487.5712 491,488.842105 C491,491.458191 488.761424,493.578947 486,493.578947 C483.238576,493.578947 481,491.458191 481,488.842105 C481,486.263942 483.174147,484.166851 485.880249,484.106595 L493.918279,459.368081 C493.339936,458.595254 493,457.651025 493,456.631579 C493,454.015493 495.238576,451.894737 498,451.894737 C500.761424,451.894737 503,454.015493 503,456.631579 C503,457.728733 502.606265,458.738766 501.945356,459.541779 L513.342863,492.642541 C515.944366,492.809448 518,494.86151 518,497.368421 C518,499.984507 515.761424,502.105263 513,502.105263 C510.238576,502.105263 508,499.984507 508,497.368421 C508,496.016385 508.597922,494.79665 509.556925,493.933595 L498.340122,461.357634 Z" id="Combined-Shape-Copy-15" transform="translate(499.500000, 477.000000) scale(1, -1) translate(-499.500000, -477.000000) "></path>
                        <path d="M498.340122,310.726055 C498.227725,310.733208 498.114311,310.736842 498,310.736842 C497.825202,310.736842 497.6525,310.728345 497.482327,310.711762 L489.611762,334.934871 C490.471683,335.785616 491,336.939621 491,338.210526 C491,340.826612 488.761424,342.947368 486,342.947368 C483.238576,342.947368 481,340.826612 481,338.210526 C481,335.632363 483.174147,333.535272 485.880249,333.475016 L493.918279,308.736502 C493.339936,307.963675 493,307.019446 493,306 C493,303.383914 495.238576,301.263158 498,301.263158 C500.761424,301.263158 503,303.383914 503,306 C503,307.097155 502.606265,308.107187 501.945356,308.9102 L513.342863,342.010962 C515.944366,342.177869 518,344.229931 518,346.736842 C518,349.352928 515.761424,351.473684 513,351.473684 C510.238576,351.473684 508,349.352928 508,346.736842 C508,345.384806 508.597922,344.165072 509.556925,343.302016 L498.340122,310.726055 Z" id="Combined-Shape-Copy-29" transform="translate(499.500000, 326.368421) scale(1, -1) translate(-499.500000, -326.368421) "></path>
                        <path d="M646.340122,310.726055 C646.227725,310.733208 646.114311,310.736842 646,310.736842 C645.825202,310.736842 645.6525,310.728345 645.482327,310.711762 L637.611762,334.934871 C638.471683,335.785616 639,336.939621 639,338.210526 C639,340.826612 636.761424,342.947368 634,342.947368 C631.238576,342.947368 629,340.826612 629,338.210526 C629,335.632363 631.174147,333.535272 633.880249,333.475016 L641.918279,308.736502 C641.339936,307.963675 641,307.019446 641,306 C641,303.383914 643.238576,301.263158 646,301.263158 C648.761424,301.263158 651,303.383914 651,306 C651,307.097155 650.606265,308.107187 649.945356,308.9102 L661.342863,342.010962 C663.944366,342.177869 666,344.229931 666,346.736842 C666,349.352928 663.761424,351.473684 661,351.473684 C658.238576,351.473684 656,349.352928 656,346.736842 C656,345.384806 656.597922,344.165072 657.556925,343.302016 L646.340122,310.726055 Z" id="Combined-Shape-Copy-32" transform="translate(647.500000, 326.368421) scale(1, -1) translate(-647.500000, -326.368421) "></path>
                        <path d="M572.340122,360.936581 C572.227725,360.943734 572.114311,360.947368 572,360.947368 C571.825202,360.947368 571.6525,360.938871 571.482327,360.922288 L563.611762,385.145397 C564.471683,385.996142 565,387.150147 565,388.421053 C565,391.037138 562.761424,393.157895 560,393.157895 C557.238576,393.157895 555,391.037138 555,388.421053 C555,385.842889 557.174147,383.745798 559.880249,383.685542 L567.918279,358.947029 C567.339936,358.174202 567,357.229973 567,356.210526 C567,353.594441 569.238576,351.473684 572,351.473684 C574.761424,351.473684 577,353.594441 577,356.210526 C577,357.307681 576.606265,358.317714 575.945356,359.120726 L587.342863,392.221488 C589.944366,392.388396 592,394.440457 592,396.947368 C592,399.563454 589.761424,401.684211 587,401.684211 C584.238576,401.684211 582,399.563454 582,396.947368 C582,395.595332 582.597922,394.375598 583.556925,393.512542 L572.340122,360.936581 Z" id="Combined-Shape-Copy-33" transform="translate(573.500000, 376.578947) scale(1, -1) translate(-573.500000, -376.578947) "></path>
                        <path d="M572.340122,411.147108 C572.227725,411.154261 572.114311,411.157895 572,411.157895 C571.825202,411.157895 571.6525,411.149397 571.482327,411.132814 L563.611762,435.355923 C564.471683,436.206668 565,437.360673 565,438.631579 C565,441.247665 562.761424,443.368421 560,443.368421 C557.238576,443.368421 555,441.247665 555,438.631579 C555,436.053415 557.174147,433.956325 559.880249,433.896069 L567.918279,409.157555 C567.339936,408.384728 567,407.440499 567,406.421053 C567,403.804967 569.238576,401.684211 572,401.684211 C574.761424,401.684211 577,403.804967 577,406.421053 C577,407.518207 576.606265,408.52824 575.945356,409.331253 L587.342863,442.432015 C589.944366,442.598922 592,444.650983 592,447.157895 C592,449.77398 589.761424,451.894737 587,451.894737 C584.238576,451.894737 582,449.77398 582,447.157895 C582,445.805858 582.597922,444.586124 583.556925,443.723068 L572.340122,411.147108 Z" id="Combined-Shape-Copy-34" transform="translate(573.500000, 426.789474) scale(1, -1) translate(-573.500000, -426.789474) "></path>
                        <path d="M572.340122,310.726055 C572.227725,310.733208 572.114311,310.736842 572,310.736842 C571.825202,310.736842 571.6525,310.728345 571.482327,310.711762 L563.611762,334.934871 C564.471683,335.785616 565,336.939621 565,338.210526 C565,340.826612 562.761424,342.947368 560,342.947368 C557.238576,342.947368 555,340.826612 555,338.210526 C555,335.632363 557.174147,333.535272 559.880249,333.475016 L567.918279,308.736502 C567.339936,307.963675 567,307.019446 567,306 C567,303.383914 569.238576,301.263158 572,301.263158 C574.761424,301.263158 577,303.383914 577,306 C577,307.097155 576.606265,308.107187 575.945356,308.9102 L587.342863,342.010962 C589.944366,342.177869 592,344.229931 592,346.736842 C592,349.352928 589.761424,351.473684 587,351.473684 C584.238576,351.473684 582,349.352928 582,346.736842 C582,345.384806 582.597922,344.165072 583.556925,343.302016 L572.340122,310.726055 Z" id="Combined-Shape-Copy-35" transform="translate(573.500000, 326.368421) scale(1, -1) translate(-573.500000, -326.368421) "></path>
                    </g>
                </g>
            </g>
        </g>
    </g>
</svg>