<?xml version="1.0" encoding="UTF-8"?>
<svg width="85px" height="53px" viewBox="0 0 85 53" version="1.1" xmlns="http://www.w3.org/2000/svg" xmlns:xlink="http://www.w3.org/1999/xlink">
    <!-- Generator: Sketch 47.1 (45422) - http://www.bohemiancoding.com/sketch -->
    <title>Group</title>
    <desc>Created with Sketch.</desc>
    <defs></defs>
    <g id="Page-1" stroke="none" stroke-width="1" fill="none" fill-rule="evenodd">
        <g id="Group" fill="#F6F7F8">
            <path d="M62.5323128,9.94915203 C62.2651565,9.98266081 61.9920353,10 61.7142857,10 C61.4097287,10 61.1107366,9.97915226 60.8190717,9.93899876 L52.4098333,35.8199732 C53.2247624,36.6842044 53.7142857,37.792081 53.7142857,39 C53.7142857,41.7614237 51.1559129,44 48,44 C44.8440871,44 42.2857143,41.7614237 42.2857143,39 C42.2857143,36.2385763 44.8440871,34 48,34 C48.0647839,34 48.129316,34.0009433 48.1935793,34.0028151 L56.7916511,7.54067121 C56.2886546,6.79612134 56,5.92755643 56,5 C56,2.23857625 58.5583729,0 61.7142857,0 C64.8701986,0 67.4285714,2.23857625 67.4285714,5 C67.4285714,5.9675109 67.1145137,6.87083871 66.5707335,7.6361901 L78.7477764,43.0008904 C78.7841515,43.0003 78.8206071,43 78.8571429,43 C82.0130557,43 84.5714286,45.2385763 84.5714286,48 C84.5714286,50.7614237 82.0130557,53 78.8571429,53 C75.70123,53 73.1428571,50.7614237 73.1428571,48 C73.1428571,46.7589832 73.6595745,45.6235665 74.5150279,44.7494835 L62.5323128,9.94915203 Z" id="Combined-Shape-Copy-44"></path>
            <path d="M20.2465985,9.94915203 C19.9794422,9.98266081 19.706321,10 19.4285714,10 C19.1240145,10 18.8250224,9.97915226 18.5333574,9.93899876 L10.124119,35.8199732 C10.9390481,36.6842044 11.4285714,37.792081 11.4285714,39 C11.4285714,41.7614237 8.87019857,44 5.71428571,44 C2.55837286,44 0,41.7614237 0,39 C0,36.2385763 2.55837286,34 5.71428571,34 C5.7790696,34 5.84360169,34.0009433 5.90786502,34.0028151 L14.5059368,7.54067121 C14.0029403,6.79612134 13.7142857,5.92755643 13.7142857,5 C13.7142857,2.23857625 16.2726586,0 19.4285714,0 C22.5844843,0 25.1428571,2.23857625 25.1428571,5 C25.1428571,5.9675109 24.8287994,6.87083871 24.2850192,7.6361901 L36.4620621,43.0008904 C36.4984372,43.0003 36.5348928,43 36.5714286,43 C39.7273414,43 42.2857143,45.2385763 42.2857143,48 C42.2857143,50.7614237 39.7273414,53 36.5714286,53 C33.4155157,53 30.8571429,50.7614237 30.8571429,48 C30.8571429,46.7589832 31.3738602,45.6235665 32.2293136,44.7494835 L20.2465985,9.94915203 Z" id="Combined-Shape-Copy-50" transform="translate(21.142857, 26.500000) scale(1, -1) translate(-21.142857, -26.500000) "></path>
        </g>
    </g>
</svg>