<?xml version="1.0" encoding="utf-8"?>
<!-- Generator: Adobe Illustrator 17.1.0, SVG Export Plug-In . SVG Version: 6.00 Build 0)  -->
<!DOCTYPE svg PUBLIC "-//W3C//DTD SVG 1.1//EN" "http://www.w3.org/Graphics/SVG/1.1/DTD/svg11.dtd">
<svg version="1.1" id="Layer_1" xmlns="http://www.w3.org/2000/svg" xmlns:xlink="http://www.w3.org/1999/xlink" x="0px" y="0px"
	 viewBox="0 0 512 512" enable-background="new 0 0 512 512" xml:space="preserve">
<path id="path-1_1_" display="none" d="M419.6,399c-35.8-27.2-66.2-51.8-66.2-51.8s-16.1-13.2-42.9,12.3l103.8,79.9
	C414.2,439.4,432.1,410.4,419.6,399 M236.1,139.1c0,0-1.8-67.6-1.8-86c0-18.4-35.8-21.1-35.8-21.1l1.8,123.8
	C220.1,163.7,236.1,139.1,236.1,139.1 M245.1,358.6L214.7,305c0,0-23.3-40.4-45.6-88.7c-15.2-36.9,19.7-55.3,19.7-55.3
	S186,104,184.3,32c-71.6,12.3-85,42.1-88.6,50.9c-25.1,92.2,17.9,209.8,33.1,235.3c89.5,146.6,173.6,164.2,187,161.6
	c42-0.9,85.9-29.9,85.9-29.9L300.6,370C258.5,385.8,245.1,358.6,245.1,358.6"/>
<path id="path-1_2_" display="none" d="M429.3,405.3H82.7c-5.1,0-9.8-1.7-13.6-4.5L221.9,247l32,32.2l32.8-33.1l154.4,155.5l8.3-8.3
	C445.4,400.4,437.9,405.3,429.3,405.3L429.3,405.3z M59.4,130.2c0-12.9,10.4-23.4,23.2-23.4l127.5,128.4L59.9,386.3
	c-0.3-1.5-0.5-3-0.5-4.5V130.2z M452.6,130.2v251.6c0,2.3-0.4,4.4-1,6.5l-153-154.1l126.7-127.5h4.1
	C442.1,106.7,452.6,117.2,452.6,130.2L452.6,130.2z M433.4,78.7H78.6c-25.7,0-46.6,21-46.6,46.9v260.9c0,25.9,20.8,46.9,46.6,46.9
	h354.9c25.7,0,46.6-21,46.6-46.9V125.6C480,99.7,459.2,78.7,433.4,78.7L433.4,78.7z"/>
<g>
	<path id="Combined-Shape" d="M83.5,284.7c27.9,38.4,72.9,63.3,123.7,63.3c39.7,0,75.8-15.2,103.1-40.2l17.1,16
		c-2.8,9.8-0.3,20.7,7.6,28l99.1,92.8c11.1,10.4,28.4,9.7,38.7-1.5c10.3-11.2,9.6-28.7-1.5-39.1l-99.1-92.7c-8.3-7.7-20-9.3-29.7-5
		L326.1,291c21.6-26.7,34.5-60.7,34.5-97.8c0-39.6-14.8-75.8-39-103.2c-10.3-11.7-22.4-21.8-35.8-29.8l-31.2,34.6
		c36.1,17.7,61,55.1,61,98.4c0,60.4-48.5,109.4-108.3,109.4c-39.2,0-73.5-21-92.5-52.4L83.5,284.7z"/>
	<path id="Combined-Shape_1_" d="M60.9,305.4c-8.3-11.6-15-24.4-19.9-38.2c-5.8-16.3-9-34-9-52.3c0-85.5,68.7-154.9,153.4-154.9
		c28.2,0,54.7,7.7,77.4,21.1l-31.3,34.7c-14-6.7-29.6-10.4-46.1-10.4c-59.8,0-108.3,49-108.3,109.4c0,20.4,5.5,39.4,15.1,55.8
		L60.9,305.4z"/>
</g>
</svg>
