<?xml version="1.0" encoding="utf-8"?>
<!-- Generator: Adobe Illustrator 17.1.0, SVG Export Plug-In . SVG Version: 6.00 Build 0)  -->
<!DOCTYPE svg PUBLIC "-//W3C//DTD SVG 1.1//EN" "http://www.w3.org/Graphics/SVG/1.1/DTD/svg11.dtd">
<svg version="1.1" id="Layer_1" xmlns="http://www.w3.org/2000/svg" xmlns:xlink="http://www.w3.org/1999/xlink" x="0px" y="0px"
	 viewBox="0 -467 512 512" enable-background="new 0 -467 512 512" xml:space="preserve">
<path d="M440.8-381h-70.1v-54h-34.6v54H175.9v-54h-34.5v54H71.2c-9.8,0-17.8,8-17.8,17.9v29.1h405.2v-29.1
	C458.6-373,450.6-381,440.8-381z"/>
<path d="M53.4-303.6V-4.8c0,9.9,8,17.8,17.8,17.8h369.6c9.8,0,17.8-8,17.8-17.8v-298.7H53.4z M159.6-22.2H88.7v-70.5h70.9V-22.2z
	 M159.6-110H88.7v-70.5h70.9V-110z M159.6-197.8H88.7v-70.5h70.9V-197.8z M247.6-22.2h-70.9v-70.5h70.9V-22.2z M247.6-110h-70.9
	v-70.5h70.9V-110z M247.6-197.8h-70.9v-70.5h70.9V-197.8z M335.3-22.2h-70.9v-70.5h70.9V-22.2z M335.3-110h-70.9v-70.5h70.9V-110z
	 M335.3-197.8h-70.9v-70.5h70.9V-197.8z M423.3-22.2h-70.9v-70.5h70.9V-22.2z M423.3-110h-70.9v-70.5h70.9V-110z M423.3-197.8h-70.9
	v-70.5h70.9V-197.8z"/>
</svg>
