<?xml version="1.0" encoding="utf-8"?>
<!-- Generator: Adobe Illustrator 17.1.0, SVG Export Plug-In . SVG Version: 6.00 Build 0)  -->
<!DOCTYPE svg PUBLIC "-//W3C//DTD SVG 1.1//EN" "http://www.w3.org/Graphics/SVG/1.1/DTD/svg11.dtd">
<svg version="1.1" id="Layer_1" xmlns="http://www.w3.org/2000/svg" xmlns:xlink="http://www.w3.org/1999/xlink" x="0px" y="0px"
	 viewBox="0 0 512 512" enable-background="new 0 0 512 512" xml:space="preserve">
<path display="none" d="M470.5,246.5h-42.1l-0.5-6.2c-3.5-40-21.2-77.8-49.8-106.3c-28.6-28.5-66.3-46.2-106.2-49.7l-6.2-0.5V41.5
	c0-4.6-3.8-9.5-9.5-9.5c-4.6,0-9.5,3.8-9.5,9.5v42.1l-6.2,0.5c-40,3.5-77.8,21.2-106.3,49.8c-28.5,28.6-46.2,66.3-49.7,106.2
	l-0.5,6.2H41.5c-5.4,0-9.5,4.1-9.5,9.5c0,5.7,4.9,9.5,9.5,9.5h42.1l0.5,6.2c3.5,40,21.2,77.8,49.8,106.3
	c28.6,28.5,66.3,46.2,106.2,49.7l6.2,0.5v42.1c0,4.6,3.8,9.5,9.5,9.5c4.6,0,9.5-3.8,9.5-9.5v-42.1l6.2-0.5
	c40-3.5,77.8-21.2,106.3-49.8c28.5-28.6,46.2-66.3,49.7-106.2l0.5-6.2h42.1c4.6,0,9.5-3.8,9.5-9.5
	C480,251.4,476.2,246.5,470.5,246.5z M256,326.6c-4.6,0-9.5,3.8-9.5,9.5v73.4l-7.6-0.8c-34.5-3.8-67.1-19.5-91.7-44.2
	c-24.7-24.7-40.2-57.1-43.9-91.5l-0.8-7.5h73.4c4.6,0,9.5-3.8,9.5-9.5c0-5-4.5-9.5-9.5-9.5h-73.4l0.8-7.6
	c3.8-34.5,19.5-67.1,44.2-91.7c24.7-24.7,57.1-40.2,91.5-43.9l7.5-0.8v73.4c0,4.6,3.8,9.5,9.5,9.5c4.6,0,9.5-3.8,9.5-9.5v-73.4
	l7.6,0.8c34.5,3.8,67.1,19.5,91.7,44.2c24.7,24.7,40.2,57.1,43.9,91.5l0.8,7.5h-73.4c-4.6,0-9.5,3.8-9.5,9.5c0,4.6,3.8,9.5,9.5,9.5
	h73.4l-0.8,7.6c-3.8,34.5-19.5,67.1-44.2,91.7c-24.7,24.7-57.1,40.2-91.5,43.9l-7.5,0.8v-73.4C265.5,331.5,261.7,326.6,256,326.6z"
	/>
<path id="Shape-Copy" display="none" d="M51.6,271.6h34.2c7.2,82.1,73,147.4,154.6,154.6v34.2c0,8.4,6.8,15.6,15.6,15.6
	c8.4,0,15.6-6.8,15.6-15.6v-34.2c82.1-7.2,147.4-73,154.6-154.6h34.2c8.4,0,15.6-6.8,15.6-15.6c0-8.4-6.8-15.6-15.6-15.6h-34.2
	C419,158.3,353.3,93,271.6,85.8V51.6c0-8.4-6.8-15.6-15.6-15.6c-8.4,0-15.6,6.8-15.6,15.6v34.2C158.3,93,93,158.7,85.8,240.4H51.6
	c-8.7,0-15.6,6.8-15.6,15.6C36,264.7,43.2,271.6,51.6,271.6L51.6,271.6z M179.6,240.4h-62.7c7.2-65,58.9-116.6,123.5-123.5v62.7
	c0,8.4,6.8,15.6,15.6,15.6c8.4,0,15.6-6.8,15.6-15.6v-62.7c65,7.2,116.6,58.9,123.5,123.5h-62.7c-8.4,0-15.6,6.8-15.6,15.6
	c0,8.4,6.8,15.6,15.6,15.6h62.7c-7.2,65-58.9,116.6-123.5,123.5v-62.7c0-8.4-6.8-15.6-15.6-15.6c-8.4,0-15.6,6.8-15.6,15.6v62.7
	c-65-7.2-116.6-58.9-123.5-123.5h62.7c8.4,0,15.6-6.8,15.6-15.6C195.2,247.6,188,240.4,179.6,240.4L179.6,240.4z"/>
<path display="none" d="M376.3,467.6c-9.5,0-17.2-7.7-17.2-17.1l0.2-347.9l-53.3,53c-6.5,6.4-17.7,6.4-24.1,0c-3.3-3.3-5-7.5-5-12.1
	s1.8-8.8,5-12.1l82.5-82c6.1-6.2,17.9-6.2,24.1,0l82.5,82c3.3,3.2,5,7.5,5,12s-1.8,8.8-5,12.1c-6.4,6.4-17.7,6.4-24.2,0l-53.3-53
	v347.9C393.4,459.9,385.7,467.6,376.3,467.6z"/>
<path display="none" d="M135.6,467.5c-4.5,0-8.8-1.8-12.1-4.9l-82.5-82c-3.3-3.2-5-7.5-5-12.1c0-4.5,1.8-8.8,5-12
	c6.5-6.5,17.7-6.5,24.2,0l53.2,53V61.5c0-9.4,7.7-17.1,17.2-17.1s17.2,7.7,17.2,17.1v347.9l53.3-53c6.5-6.4,17.7-6.4,24.2,0
	c6.6,6.7,6.6,17.5,0.1,24.1l-82.5,82.1C144.5,465.8,140.2,467.5,135.6,467.5z"/>
<polygon id="Triangle-Copy-3" display="none" points="376,256 136,448 136,64 "/>
<polygon id="Triangle-Copy-3_1_" display="none" points="136,256 376,64 376,448 "/>
<polygon id="Triangle-Copy-3_2_" display="none" points="256,376 64,136 448,136 "/>
<path id="Fill-1" display="none" d="M200,74c-69.6,0-126,56.4-126,126s56.4,126,126,126s126-56.4,126-126S269.6,74,200,74L200,74z
	 M467.7,408.3c7.6,7.6,12.3,18.1,12.3,29.7c0,23.2-18.8,42-42,42c-11.6,0-22.1-4.7-29.7-12.3L285.2,344.6
	c-25,14.8-54.1,23.4-85.2,23.4c-92.8,0-168-75.2-168-168S107.2,32,200,32s168,75.2,168,168c0,31.1-8.6,60.2-23.4,85.2L467.7,408.3z"
	/>
<g id="Group" display="none">
	<path id="Fill-1_1_" display="inline" d="M439.6,459.6H72.4c-6.6,0-12.1-5.7-12.1-12.4v-232h391.4v232
		C451.7,453.9,446.2,459.6,439.6,459.6 M439.6,68.3h-43v29h43c6.6,0,12.1,5.7,12.1,12.4v76.4H60.3v-76.4c0-6.7,5.6-12.4,12.1-12.4
		H124v37.1c0,8,6.3,14.5,14.1,14.5c7.8,0,14.1-6.5,14.1-14.5V97.3h0.1v-29h-0.1V37.9c0-8-6.3-14.5-14.1-14.5
		c-7.8,0-14.1,6.5-14.1,14.5v30.4H72.4C50.2,68.3,32,86.9,32,109.7v337.4c0,22.8,18.2,41.5,40.4,41.5h367.2
		c22.2,0,40.4-18.7,40.4-41.5V109.7C480,86.9,461.8,68.3,439.6,68.3"/>
	<path id="Fill-8" display="inline" d="M337.8,134.4c0,8,6.3,14.5,14.1,14.5s14.1-6.5,14.1-14.5V37.9c0-8-6.3-14.5-14.1-14.5
		s-14.1,6.5-14.1,14.5v30.4h-45.4v29h45.4V134.4z"/>
	<path id="Fill-11" display="inline" d="M232,134.4c0,8,6.3,14.5,14.1,14.5c7.8,0,14.1-6.5,14.1-14.5V97.3h0.1v-29h-0.1V37.9
		c0-8-6.3-14.5-14.1-14.5c-7.8,0-14.1,6.5-14.1,14.5v30.4h-45.4v29H232V134.4z"/>
</g>
<g display="none">
	<polygon id="Fill-1_2_" display="inline" points="352.3,181 255.3,277.5 198.8,221.2 179.9,239.9 255.5,315.1 274.3,296.4 
		274.1,296.2 371.1,199.7 	"/>
	<path id="Fill-2" display="inline" d="M267.1,451.9v-44.6c0-7.3-6-13.3-13.3-13.3c-7.4,0-13.3,5.9-13.3,13.3v44.2
		C143.3,444,65.7,366.2,59.1,269.3h42.5c7.4,0,13.3-5.9,13.3-13.3c0-7.3-6-13.3-13.3-13.3H59.1C65.7,145.8,143.3,68,240.4,60.4v44.2
		c0,7.3,6,13.3,13.3,13.3c7.4,0,13.3-5.9,13.3-13.3V60.1c99.3,5.5,179.1,84.3,185.8,182.7h-46.9c-7.4,0-13.3,5.9-13.3,13.3
		c0,7.3,6,13.3,13.3,13.3h46.9C446.2,367.6,366.4,446.4,267.1,451.9 M256,33.2C132.3,33.2,32,133,32,256
		c0,123,100.3,222.7,224,222.7c123.8,0,224-99.7,224-222.7C480,133,379.7,33.2,256,33.2"/>
</g>
<g display="none">
	<path id="Fill-3" display="inline" d="M153.9,458.9l-2.6,0.5c-11,2.1-23.2,2.1-34.7,0l-2.3-0.5c-3.2-0.8-4.7-2.4-4.8-2.7v-18.8
		c0-0.6-0.3-1.2-0.3-1.8h49.2c0,0.6-0.1,2.3-0.1,2.6l0,17.8C158.1,456.7,156.6,458.2,153.9,458.9L153.9,458.9z M81.2,271
		c0-35.1,16.2-150.3,21.1-184.7l0.5-3.8c2.3-10.9,10.9-19.5,22.1-21.9c0.2,0,0.3-0.1,0.5-0.1l3-0.5c82.1-12.2,172.8-12.2,255.3,0
		l2.8,0.4c0.2,0,0.3,0.1,0.5,0.1c11.2,2.4,19.8,11,22.2,22.6l0.4,3c5,34.5,21.1,149.6,21.1,184.8v137.2c0,4.4-3.5,7.9-8.7,8.5h-89.7
		c-0.1,0-0.2,0.1-0.3,0.1c-0.4,0-0.7,0-1.1,0L182.5,417c-1-0.2-1.9-0.2-2.9-0.2c-0.1,0-0.5,0-0.9,0H89.5c-4.8-0.4-8.3-4.1-8.3-8.6
		V271z M402.5,456.2c-0.2,0.5-1.6,2-4.6,2.8l-0.6,0.3c-0.6,0-1.4,0-2,0.2c-11.3,2.1-23.3,2.1-34.9-0.1l-1.8-0.3
		c-3.3-0.9-4.8-2.4-4.9-2.7l-0.1-16.6c0.1-0.7,0.1-3.1,0.1-3.8c0-0.1,0-0.1-0.1-0.2h49.2c-0.1,0.6-0.4,1.2-0.4,1.8L402.5,456.2z
		 M354.1,477.5l2.9,0.5c6.8,1.3,13.9,2,21.1,2c7.1,0,14.1-0.6,19.1-1.7c0.6,0,1.5-0.1,2.1-0.2l3.4-0.7c11.6-3,19.3-11.4,19.3-21
		v-18.8c0-1,0.9-1.7,2.1-1.9c14.9-1.3,26.2-13.1,26.2-27.5V271c0-35.4-14.9-142.8-21.3-187.5l-0.7-4.7c-3.9-18.6-18.7-33-38-36.8
		c-1.4-0.3-2.7-0.4-3.9-0.6c-84-12.5-177.1-12.5-260.8,0c-1.3,0.2-2.7,0.4-2.3,0.5c-0.7,0-1.3,0.1-2,0.2
		c-19.1,3.8-33.9,18.3-38,38.3L83,83.7c-6.4,44.5-21.3,152-21.3,187.4v137.2c0,13.4,9.9,24.2,23.7,26.7c0.3,0.1,0.5,0.1,0.8,0.2
		c0.7,0.1,1.3,0.5,2.1,0.6c0.8,0.1,1.7,0.8,1.7,1.8v18.8c0,9.6,7.8,18,19.6,21.1l3.5,0.7c13.8,2.5,28.8,2.5,41.8,0l3.7-0.7
		c11.7-3.1,19.3-11.3,19.3-21l0-19c0.1-0.9,0.7-1.5,3.2-1.6l151.8-0.1c0.8,0.1,1.5,0.8,1.5,2.7v18
		C334.2,466.1,341.8,474.3,354.1,477.5L354.1,477.5z"/>
	<path id="Fill-1_4_" display="inline" d="M131.6,249.2c0-11.5,6.4-71.1,9.6-100.1c0.9-4.3,2.4-7.5,4.4-9.4c1-1,2.8-2.3,6.5-2.3
		l104,0.2l103.9-0.2c3.7,0,5.5,1.3,6.5,2.4c1.9,1.9,3.4,5.1,4.2,8.6c3.4,29.9,9.7,89.4,9.7,100.9v2.6c0,2.8-1.2,5.4-3.3,7.3
		c-2,1.8-4.6,2.7-7.3,2.7H142.3c-2.7,0-5.4-1-7.3-2.7c-2.2-1.9-3.3-4.5-3.3-7.3V249.2z M142.3,278.6h227.5c7.1,0,13.9-2.5,19-7.2
		c5.8-5.1,8.9-12.1,8.9-19.7v-2.6c0-15.3-9.4-99.2-10-103.6c-1.6-7.6-4.6-13.6-8.9-17.8c-4.9-4.8-11.4-7.4-18.8-7.4L256,120.7
		l-103.9-0.2h0c-7.4,0-14,2.6-18.8,7.3c-4.3,4.2-7.4,10.2-9.1,18.6c-0.4,3.6-9.8,87.5-9.8,102.8v2.6c0,7.5,3.2,14.5,8.9,19.7
		C128.4,276.1,135.2,278.6,142.3,278.6L142.3,278.6z"/>
	<path id="Fill-6" display="inline" d="M146.9,371.9c-6.9,0-12.5-5.3-12.5-11.8s5.6-11.8,12.5-11.8c6.9,0,12.5,5.3,12.5,11.8
		S153.8,371.9,146.9,371.9 M146.9,329.2c-17.7,0-32,13.8-32,30.8c0,17,14.4,30.8,32,30.8c17.6,0,32-13.8,32-30.8
		C178.9,343.1,164.5,329.2,146.9,329.2"/>
	<path id="Fill-8_1_" display="inline" d="M359.5,371.9c-6.9,0-12.5-5.3-12.5-11.8s5.6-11.8,12.5-11.8c6.9,0,12.5,5.3,12.5,11.8
		S366.4,371.9,359.5,371.9 M359.5,329.2c-17.7,0-32,13.8-32,30.8c0,17,14.4,30.8,32,30.8c17.7,0,32-13.8,32-30.8
		C391.6,343.1,377.2,329.2,359.5,329.2"/>
</g>
<path display="none" d="M412.2,395.1h-24l-85-336.5C299.5,43.9,284.1,32,268.8,32h-25.4c-15.3,0-30.7,11.9-34.4,26.6l-85.1,336.5
	h-24c-16.3,0-29.5,13.1-29.5,29.2v26.5c0,16.1,13.2,29.2,29.5,29.2h312.3c16.3,0,29.5-13.1,29.5-29.2v-26.5
	C441.7,408.2,428.4,395.1,412.2,395.1z M425.3,424.3v26.5c0,7.1-5.9,12.9-13.1,12.9H99.8c-7.2,0-13.1-5.8-13.1-12.9v-26.5
	c0-7.1,5.9-12.9,13.1-12.9h312.3C419.4,411.4,425.3,417.2,425.3,424.3z M224.8,62.6c1.9-7.6,10.6-14.3,18.5-14.3h25.4
	c8,0,16.6,6.7,18.5,14.3l13.1,52.1h-88.8L224.8,62.6z M207.5,130.9h97l10.5,41.6H197L207.5,130.9z M192.9,188.8h126.3l15.4,61.1
	H177.5L192.9,188.8z M173.3,266.1h165.4l10.5,41.6H162.8L173.3,266.1z M158.7,324h194.6l18,71.1H140.7L158.7,324z"/>
<g display="none">
	<g id="Oval-Copy-2" display="inline">
		<path d="M95.6,320C60.5,320,32,291.3,32,256s28.5-64,63.6-64s63.6,28.7,63.6,64S130.7,320,95.6,320z M95.6,224.1
			c-17.4,0-31.5,14.3-31.5,31.9s14.1,31.9,31.5,31.9c17.4,0,31.5-14.3,31.5-31.9S113,224.1,95.6,224.1z"/>
	</g>
	<g id="Oval-Copy-3" display="inline">
		<path d="M256,320c-35.1,0-63.6-28.7-63.6-64s28.5-64,63.6-64s63.6,28.7,63.6,64S291.1,320,256,320z M256,224.1
			c-17.4,0-31.5,14.3-31.5,31.9s14.1,31.9,31.5,31.9s31.5-14.3,31.5-31.9S273.4,224.1,256,224.1z"/>
	</g>
	<g id="Oval-Copy-4" display="inline">
		<path d="M416.4,320c-35.1,0-63.6-28.7-63.6-64s28.5-64,63.6-64s63.6,28.7,63.6,64S451.5,320,416.4,320z M416.4,224.1
			c-17.4,0-31.5,14.3-31.5,31.9s14.1,31.9,31.5,31.9s31.5-14.3,31.5-31.9S433.8,224.1,416.4,224.1z"/>
	</g>
</g>
<path display="none" d="M37.1,243.7L238.3,42.1c10-9.5,27.3-9,36.8,1l199.6,200.6c3.5,3.6,6.9,9.2,4.6,15.3
	c-2.6,6.7-14.2,6.4-14.2,6.4h-46.3V443c0,18.9-12,33.7-27.4,33.7h-63.5c-15.4,0-27.4-14.8-27.4-33.7v-98.8l-81.4,0.1V443
	c0,18.9-12,33.7-27.4,33.7h-63.5c-15.4,0-27.4-14.8-27.4-33.7V265.4H48.4c-4.5,0-13.6-1-15.7-6.4C29.7,251.2,37.1,243.7,37.1,243.7z
	 M58.5,247h60.6l0,196c0,8.8,4.8,15.3,9,15.3h63.5c4.2,0,9-6.5,9-15.3V325.9l118.2-0.2V443c0,8.8,4.8,15.3,9,15.3h63.5
	c4.2,0,9-6.5,9-15.3l0-196h52L261.7,55.8c-2.8-2.9-7.8-3.1-10.8-0.3L58.5,247z"/>
<g display="none">
	<path id="Fill-8_2_" display="inline" d="M338.5,392c12,0,16.4-3.3,16.5-28.5v1.9c-0.1-25.2-4.5-28.5-16.5-28.5
		c-12,0-16.4,3.3-16.5,28.5v-1.9C322.1,388.6,326.5,392,338.5,392"/>
	<path id="Fill-10" display="inline" d="M137.4,392c12,0,16.4-3.3,16.5-28.5v1.9c-0.1-25.2-4.5-28.5-16.5-28.5
		c-12,0-16.4,3.3-16.5,28.5v-1.9C121,388.6,125.4,392,137.4,392"/>
	<path display="inline" d="M344,304.6l-13.7-72.7c-0.4-12.1-10.4-21.8-22.5-21.8h-1.2H169.8h-0.8c-12.2,0-22.1,9.7-22.5,21.8
		l-13.4,72.7h-0.3v0c-39.2,0.1-64.8,5.3-64.8,37.8v87.7c0,2,1.6,3.7,3.6,3.7h23.8H115c-0.1,2-0.2,3.9-0.2,6.2
		c0,34.9,9.9,39.8,36.3,40c16.2,0,36.3,2.7,36.3-40c0-2.2-0.1-4.2-0.2-6.2h43.8h58.8c-0.1,2-0.2,3.9-0.2,6.2
		c0,34.9,9.9,39.8,36.3,40c16.2,0,36.3,2.7,36.3-40c0-2.2-0.1-4.2-0.2-6.2h43.1c2,0,3.6-1.7,3.6-3.7v-87.7
		C408.8,309.9,383.1,304.7,344,304.6z M161.9,233.3c0-4.3,3.5-7.8,7.9-7.8h137.3c4.3,0,7.9,3.5,7.9,7.8l13.4,71.3H148.7L161.9,233.3
		z M151.1,463.8c-12.1,0-18.8-3.2-18.8-23.7c0-2.4,0.2-4.3,0.4-6.3h2.2h34.7c0.2,1.9,0.4,3.8,0.4,6.3
		C169.9,460.6,163.3,463.7,151.1,463.8z M326,463.8c-12.1,0-18.8-3.2-18.8-23.7c0-2.4,0.2-4.3,0.4-6.3h36.9c0.2,1.9,0.4,3.8,0.4,6.3
		C344.8,460.6,338.1,463.7,326,463.8z M392.9,416.6h-45.6h-2.9H132.4h-37H83.9v-74.1c0-15.4,15.5-20.1,49.6-20.2h98.7l110.9,0
		c34.2,0,49.8,4.8,49.8,20.2V416.6z"/>
	<path display="inline" d="M395,295.9c-18.5,0-33.5-15.1-33.5-33.7c0-18.6,15-33.7,33.5-33.7s33.5,15.1,33.5,33.7
		C428.5,280.8,413.4,295.9,395,295.9z M395,245.4c-9.2,0-16.6,7.5-16.6,16.8c0,9.3,7.5,16.8,16.6,16.8c9.2,0,16.6-7.5,16.6-16.8
		C411.6,252.9,404.1,245.4,395,245.4z"/>
	<path display="inline" d="M382.9,205.6c-19.7,0-38-9.6-49.5-25.4c-21.3,8-46.1,3.2-62.7-12.1c-1.9,0.2-3.9,0.3-5.8,0.3
		c-33.7,0-61.1-27.6-61.1-61.5c0-33.9,27.4-61.5,61.1-61.5c11.1,0,22,3.1,31.5,8.8c11.5-14,28.5-22.1,46.9-22.1
		c31.1,0,57.1,23.8,60.7,54.3C427.8,95,444,118,444,144.1C444,178,416.6,205.6,382.9,205.6z M340.1,158l4,7.4
		c7.8,14.3,22.6,23.2,38.8,23.2c24.4,0,44.2-20,44.2-44.6c0-20.4-13.7-38.2-33.3-43.2l-6.3-1.6l-0.1-6.5
		c-0.4-24.2-20.2-43.8-44.2-43.8c-15.5,0-29.6,8-37.7,21.3l-5.1,8.4l-7.5-6.3c-7.9-6.5-17.8-10.1-28-10.1c-24.4,0-44.2,20-44.2,44.6
		c0,24.6,19.8,44.6,44.2,44.6c2.5,0,5-0.2,7.5-0.6l4.4-0.7l3.1,3.3c13.4,14.3,35.7,17.9,52.8,8.7L340.1,158z"/>
</g>
<path display="none" d="M256,480l-6.9-7.8C242.6,464.8,90.3,291,90.3,200.5C90.3,107.6,164.6,32,256,32s165.7,75.6,165.7,168.5
	c0,90.4-152.3,264.3-158.8,271.6L256,480z M256,50.5c-81.2,0-147.3,67.3-147.3,150.1c0,73.2,117.2,216,147.3,251.3
	c30-35.4,147.3-178.2,147.3-251.3C403.3,117.8,337.2,50.5,256,50.5z M256,296.4c-52,0-94.3-43-94.3-95.8c0-52.8,42.3-95.8,94.3-95.8
	s94.3,43,94.3,95.8C350.3,253.4,308,296.4,256,296.4z M256,123.2c-41.8,0-75.8,34.7-75.8,77.4s34,77.4,75.8,77.4
	s75.8-34.7,75.8-77.4S297.8,123.2,256,123.2z"/>
<g display="none">
	<path id="Fill-1-Copy-3" display="inline" d="M335.3,281c-7.7,5.4-15.9,10-24.6,13.8c-17.4,7.5-35.8,11.4-54.8,11.4
		s-37.4-3.8-54.8-11.4c-8.7-3.8-16.9-8.4-24.6-13.8c-75.1,16.4-132,85.3-132,167.2V480h422.6v-31.8
		C467.3,366.3,410.5,297.4,335.3,281"/>
	<path id="Fill-4-Copy" display="inline" d="M256.8,263c62.1,0,112.5-51.7,112.5-115.5S319,32,256.8,32S144.3,83.7,144.3,147.5
		S194.7,263,256.8,263"/>
</g>
<g display="none">
	<polygon id="Fill-1_5_" display="inline" points="83,313.6 305.1,313.6 305.1,289.6 83,289.6 	"/>
	<path id="Fill-2_1_" display="inline" d="M285.6,239.3c0,5.7-4.7,10.3-10.4,10.3h-92.7v-96.3h92.7c5.7,0,10.4,4.6,10.4,10.3V239.3z
		 M275.3,131.2h-217v0.1h-9.2c-2.6,0-4.5,2-4.5,4.5v13.1c0,2.5,1.9,4.5,4.5,4.5h35.8v-0.1h73.7v96.3H58.3v0.1h-9.2
		c-2.6,0-4.5,2-4.5,4.5v13.1c0,2.5,1.9,4.5,4.5,4.5h35.8v-0.1h190.4c18,0,32.5-14.6,32.5-32.5v-75.6
		C307.8,145.8,293.2,131.2,275.3,131.2L275.3,131.2z"/>
	<defs>
		<filter id="Adobe_OpacityMaskFilter" filterUnits="userSpaceOnUse" x="32" y="96.9" width="448" height="318.2">
			<feColorMatrix  type="matrix" values="1 0 0 0 0  0 1 0 0 0  0 0 1 0 0  0 0 0 1 0"/>
		</filter>
	</defs>
	<mask maskUnits="userSpaceOnUse" x="32" y="96.9" width="448" height="318.2" id="mask-2_1_" display="inline">
		<g filter="url(#Adobe_OpacityMaskFilter)">
			<polygon id="path-1_1_" fill="#FFFFFF" points="480,415.1 32,415.1 32,96.9 480,96.9 			"/>
		</g>
	</mask>
	<path id="Fill-4" display="inline" mask="url(#mask-2_1_)" d="M347.7,348.4c0-25.1,7.9-28.2,23.4-28.2c14.9,0,22.9,3.3,22.9,28.2
		c0,25.3-8.2,29.1-23.2,29.2C355.9,377.6,347.7,373.7,347.7,348.4L347.7,348.4z M365.1,249.7c-5.7,0-10.4-4.6-10.4-10.3v-75.6
		c0-5.7,4.6-10.3,10.4-10.3h50.3l17.6,96.3H365.1z M475.5,395.5h-80.8c10.1-3.4,18.4-12.3,20.3-35.5h9.9c17.9,0,32.5-14.6,32.5-32.5
		l-0.1-62.4c0-3.6-0.3-7.1-1-10.7l-23-126.2c-0.6-17.4-15-31.4-32.5-31.4H49.1c-2.6,0-4.5,2-4.5,4.5v13.1c0,2.4,1.9,4.5,4.5,4.5
		h351.8c5.7,0,10.4,4.6,10.4,10.3v1l0.1,0.9h-46.3c-17.9,0-32.5,14.6-32.5,32.5v75.6c0,17.9,14.6,32.5,32.5,32.5h70.1l0.1,55.7
		c0,5.7-4.6,10.3-10.3,10.3h-9.7c-2.2-30.8-14.9-37.5-44.4-37.5c-29.5,0-42.2,6.7-44.4,37.5H49.1c-2.6,0-4.5,2-4.5,4.5v13.1
		c0,2.5,1.9,4.5,4.5,4.5h277.5c1.6,23,8.5,32.1,22.8,35.5H36.5c-2.5,0-4.5,2.1-4.5,4.5v10.5c0,2.5,1.9,4.5,4.5,4.5h439.1
		c2.6,0,4.5-2,4.5-4.5v-10.5C480,397.6,478.1,395.5,475.5,395.5L475.5,395.5z"/>
</g>
<g display="none">
	<path id="Fill-1_6_" display="inline" d="M387.6,319.7c15.8,0,21.5-4.2,21.7-35.6v2.4c-0.1-31.4-5.9-35.6-21.7-35.6
		c-15.8,0-21.5,4.2-21.7,35.6v-2.4C366.1,315.5,371.8,319.7,387.6,319.7"/>
	<path id="Fill-3_1_" display="inline" d="M123.2,319.7c15.8,0,21.5-4.2,21.7-35.6v2.4c-0.1-31.4-5.9-35.6-21.7-35.6
		s-21.5,4.2-21.7,35.6v-2.4C101.7,315.5,107.5,319.7,123.2,319.7"/>
	<path id="Fill-5" display="inline" d="M218.8,146.3c0,12.7-10.9,23.1-24.3,23.1c-13.4,0-24.3-10.3-24.3-23.1s10.9-23.1,24.3-23.1
		C208,123.3,218.8,133.6,218.8,146.3"/>
	<path id="Fill-7" display="inline" d="M348.1,146.3c0,12.7-10.9,23.1-24.3,23.1c-13.4,0-24.3-10.3-24.3-23.1s10.9-23.1,24.3-23.1
		C337.3,123.3,348.1,133.6,348.1,146.3"/>
	<defs>
		<filter id="Adobe_OpacityMaskFilter_1_" filterUnits="userSpaceOnUse" x="32" y="82.4" width="448" height="347.2">
			<feColorMatrix  type="matrix" values="1 0 0 0 0  0 1 0 0 0  0 0 1 0 0  0 0 0 1 0"/>
		</filter>
	</defs>
	<mask maskUnits="userSpaceOnUse" x="32" y="82.4" width="448" height="347.2" id="mask-2_2_" display="inline">
		<g filter="url(#Adobe_OpacityMaskFilter_1_)">
			<polygon id="path-1_2_" fill="#FFFFFF" points="480,82.4 32,82.4 32,429.6 480,429.6 			"/>
		</g>
	</mask>
	<path id="Fill-9" display="inline" mask="url(#mask-2_2_)" d="M459.1,350.4H52.9v-92.4c0-19.2,20.4-25.2,65.3-25.2h275.4
		c44.9,0,65.4,6,65.4,25.2V350.4z M371.1,409.3c-16,0-24.7-3.9-24.7-29.6c0-3,0.2-5.5,0.4-7.9h48.7c0.2,2.3,0.4,4.9,0.4,7.9
		C395.9,405.4,387,409.3,371.1,409.3L371.1,409.3z M141.3,409.3c-16,0-24.7-3.9-24.7-29.6c0-3,0.2-5.5,0.4-7.9h48.7
		c0.2,2.3,0.4,4.9,0.4,7.9C166,405.4,157.3,409.3,141.3,409.3L141.3,409.3z M138.1,116.4c0-6.3,5.4-11.5,12.1-11.5h211.6
		c6.7,0,12.1,5.1,12.1,11.5l18.7,94.2h-21.7c-3.2-29.3-17-33.9-46.9-34c-18.9,0-41.8-2.6-46.8,34h-35.6c-3.2-29.3-17-33.9-46.9-34
		c-18.9,0-41.8-2.6-46.8,34h-28L138.1,116.4z M416.8,211.2l-19.2-96.9c-0.6-17.7-15.9-31.9-34.7-31.9H149.1
		c-18.8,0-34.1,14.2-34.8,31.9l-18.8,96.9c-16.1,0.9-29.8,3.1-40.3,7.8C40.4,225.7,32,237.4,32,257.8v109.5c0,2.6,2.1,4.6,4.8,4.6
		h57c-0.2,2.4-0.2,5-0.2,7.8c0,43.5,13,49.8,47.7,49.9c21.3,0,47.7,3.4,47.7-49.9c0-2.8-0.1-5.4-0.2-7.8h134.8
		c-0.1,2.4-0.2,5-0.2,7.8c0,43.5,13,49.8,47.7,49.9c21.2,0,47.7,3.4,47.7-49.9c0-2.8-0.1-5.4-0.2-7.8h56.6c2.7,0,4.8-2,4.8-4.6
		V257.8C480,223.3,455.7,213.4,416.8,211.2L416.8,211.2z"/>
</g>
<path id="Fill-1_7_" display="none" d="M193,338.7c6.2,0,11.7,2.8,15.6,7.2l0.1-0.1l26.4,30.1V266.8c0-11.9,9.4-21.6,21-21.6
	s21,9.7,21,21.6v109.1l26.4-30.1l0.1,0.1c3.8-4.4,9.4-7.2,15.6-7.2c11.6,0,21,9.7,21,21.6c0,5.5-2.1,10.6-5.4,14.4l0.1,0l-63,71.9
	l-0.1-0.1c-3.8,4.4-9.4,7.2-15.6,7.2c-6.2,0-11.7-2.8-15.6-7.2l-0.1,0.1l-63-71.9l0.1,0c-3.3-3.8-5.4-8.8-5.4-14.4
	C172,348.3,181.4,338.7,193,338.7 M375,374.6c-11.6,0-21-9.7-21-21.6s9.4-21.6,21-21.6c34.8,0,63-29,63-64.7
	c0-19.3-8.2-36.5-21.3-48.4c-1.3-1.2-2.7-2.4-4.2-3.5c-0.1-0.1-0.2-0.1-0.3-0.2c-1.4-1-2.8-2-4.2-2.9c-0.2-0.1-0.4-0.3-0.7-0.4
	c-1.3-0.8-2.7-1.6-4.1-2.3c-0.4-0.2-0.8-0.4-1.2-0.6c-1.3-0.6-2.6-1.2-3.9-1.8c-0.6-0.2-1.2-0.4-1.8-0.7c-1.2-0.4-2.4-0.9-3.6-1.3
	c-0.8-0.2-1.7-0.4-2.5-0.7c-1.1-0.3-2.1-0.6-3.2-0.8c-1.1-0.2-2.3-0.4-3.5-0.5c-0.8-0.1-1.7-0.3-2.5-0.4c-2-0.2-4.1-0.3-6.2-0.3
	c-0.7,0-1.3,0.1-1.9,0.1c-0.6-3.7-1.4-7.3-2.4-10.9c-0.2-0.9-0.6-1.7-0.8-2.6c-0.8-2.7-1.6-5.4-2.5-8c-0.3-0.8-0.6-1.5-0.9-2.3
	c-1-2.7-2.1-5.3-3.3-7.9c-0.3-0.6-0.6-1.2-0.9-1.8c-1.3-2.7-2.7-5.3-4.2-7.9c-20.8-35.6-58.6-59.4-101.9-59.4
	c-43.3,0-81.2,23.8-101.9,59.4c-1.5,2.6-2.9,5.2-4.2,7.9c-0.3,0.6-0.6,1.2-0.9,1.8c-1.2,2.6-2.3,5.2-3.3,7.9
	c-0.3,0.8-0.7,1.5-0.9,2.3c-1,2.6-1.8,5.3-2.5,8c-0.2,0.9-0.6,1.7-0.8,2.6c-1,3.6-1.8,7.2-2.4,10.9c-0.7,0-1.3-0.1-1.9-0.1
	c-2.1,0-4.1,0.1-6.2,0.3c-0.8,0.1-1.7,0.3-2.5,0.4c-1.2,0.2-2.3,0.3-3.4,0.5c-1.1,0.2-2.1,0.5-3.2,0.8c-0.8,0.2-1.7,0.4-2.5,0.7
	c-1.2,0.4-2.4,0.8-3.6,1.3c-0.6,0.2-1.2,0.4-1.8,0.7c-1.3,0.5-2.6,1.1-3.9,1.8c-0.4,0.2-0.8,0.4-1.2,0.6c-1.4,0.7-2.8,1.5-4.1,2.3
	c-0.2,0.1-0.4,0.3-0.7,0.4c-1.4,0.9-2.8,1.9-4.2,2.9c-0.1,0.1-0.2,0.1-0.3,0.2c-1.4,1.1-2.8,2.3-4.2,3.5
	c-13,11.9-21.3,29.1-21.3,48.4c0,35.7,28.2,64.7,63,64.7c11.6,0,21,9.7,21,21.6s-9.4,21.6-21,21.6c-58,0-105-48.3-105-107.8
	c0-48.6,31.3-89.6,74.3-103.1C129.7,102.1,187.7,58.4,256,58.4s126.3,43.7,149.7,105.3c43,13.5,74.3,54.5,74.3,103.1
	C480,326.3,433,374.6,375,374.6"/>
<g display="none">
	<path id="Fill-1_8_" display="inline" d="M211.3,202L211.3,202c8.6,0,11.1-3.9,11.2-17.4c-0.1-13.5-2.6-17.4-11.2-17.4h-0.1
		c-8.6,0-11.1,3.9-11.2,17.4C200.3,198.1,202.8,202,211.3,202"/>
	<path id="Fill-3_2_" display="inline" d="M98.9,202.2L98.9,202.2c8.6,0,11.1-3.9,11.2-17.4c-0.1-13.5-2.7-17.4-11.2-17.4h-0.1
		c-8.6,0-11.1,3.9-11.2,17.4C87.8,198.3,90.4,202.2,98.9,202.2"/>
	<path id="Fill-5_1_" display="inline" d="M76.9,150.9c2.8-11.8,7.7-23.2,14.4-33.4l-5.9,32.3C82.2,150,79.4,150.4,76.9,150.9
		L76.9,150.9z M106.7,251.3l1.5,0c5,0,10.8,0.1,15.1-4.2c3.8-3.8,5.7-10.4,5.7-20.2c0-0.5,0-1,0-1.5l53.2-0.1c0,0.5,0,1,0,1.4
		c0,20.9,6.6,24.2,22.3,24.3l1.5,0c5.1,0,10.8,0.1,15.1-4.2c3.8-3.8,5.7-10.4,5.7-20.2c0-0.5,0-1,0-1.5l22,0c1.1,0,2.1-0.4,2.8-1.2
		c0.8-0.8,1.2-1.8,1.2-2.9l-0.1-49c0-17.9-13.5-21.7-27.3-22.7l-7.9-41.5c-0.3-9-7.7-16.1-16.8-16.1h0l-86,0.1
		c18.7-14.7,41.9-22.8,65.8-22.8c58.7,0,106.5,47.7,106.5,106.3c0,58.6-47.8,106.3-106.5,106.3c-27.8,0-54.7-11.1-74.6-30.5
		C106.1,251.3,106.4,251.3,106.7,251.3L106.7,251.3z M98.1,227c0-0.5,0-1,0-1.5l17,0c0,0.5,0,1,0,1.5c0,10.7-3.1,11.2-8.5,11.3
		c-3.2,0-5.2-0.5-6.4-1.7C98.9,235.1,98.1,231.9,98.1,227L98.1,227z M107.1,109.6l0-0.4c0-1.7,1.4-3.1,3.1-3.1l90-0.1h0
		c1.7,0,3.1,1.4,3.2,3.5l7.6,39.7l-111.2,0.2L107.1,109.6z M213.9,163.1h0.3c21.3,0,25.6,3.5,25.6,9.2l0.1,39.4L80.5,212
		c-4.3-11.7-6.5-24-6.5-36.5c0-2.9,0.1-5.8,0.4-8.9c3.7-2.3,10.7-3.3,22.3-3.3L213.9,163.1z M195.9,226.9c0-0.5,0-1,0-1.5l16.9,0
		c0,0.5,0,1,0,1.5v0c0,10.7-3.1,11.2-8.5,11.3c-3.3,0.1-5.2-0.5-6.3-1.7C196.6,234.9,195.9,231.8,195.9,226.9L195.9,226.9z
		 M180.5,55.4c-60.6,0-111.9,45.3-119.4,105.3c-0.6,5.1-1,10.1-1,14.8c0,17,3.5,33.4,10.5,48.9c19.4,43.3,62.5,71.2,109.9,71.2
		c66.4,0,120.3-53.9,120.3-120.1C300.8,109.3,246.8,55.4,180.5,55.4L180.5,55.4z"/>
	<defs>
		<filter id="Adobe_OpacityMaskFilter_2_" filterUnits="userSpaceOnUse" x="36.7" y="32" width="438.6" height="448">
			<feColorMatrix  type="matrix" values="1 0 0 0 0  0 1 0 0 0  0 0 1 0 0  0 0 0 1 0"/>
		</filter>
	</defs>
	<mask maskUnits="userSpaceOnUse" x="36.7" y="32" width="438.6" height="448" id="mask-2_3_" display="inline">
		<g filter="url(#Adobe_OpacityMaskFilter_2_)">
			<polygon id="path-1_3_" fill="#FFFFFF" points="475.3,480 475.3,32 36.7,32 36.7,480 			"/>
		</g>
	</mask>
	<path id="Fill-7_1_" display="inline" mask="url(#mask-2_3_)" d="M310.4,175.5c0,71.5-58.3,129.7-130,129.7s-130-58.2-130-129.7
		c0-71.5,58.3-129.7,130-129.7S310.4,104,310.4,175.5L310.4,175.5z M310.7,314.2l-33.1-33c0.8-0.8,1.6-1.5,2.5-2.3l33,32.9
		L310.7,314.2z M461.5,437.7c0,1.2-0.4,2.3-1.3,3.1l-22.2,22c-0.8,0.8-1.8,1.2-3.1,1.3c-1.2,0-2.3-0.5-3.1-1.4l-120-130.1l19.3-19.3
		l129,121.4C461,435.4,461.5,436.5,461.5,437.7L461.5,437.7z M469.7,424.6L339.2,301.9c-4.6-4.4-11.8-4.3-16.3,0.2l0,0l-33.3-33.3
		c22.4-26,34.7-59.1,34.7-93.3C324.3,96.4,259.8,32,180.5,32C101.2,32,36.7,96.4,36.7,175.5c0,79.1,64.5,143.5,143.8,143.5
		c31.5,0,61.4-10,86.5-29l34,33.9l-0.2,0.2c-4.4,4.4-4.6,11.5-0.3,16.1c0,0,120.7,132.3,121.3,132.9c2.9,3.1,7.5,6.8,13.3,6.8
		c5.3,0,9.9-3.4,12.8-6.4l22.2-22.6c3.4-3.4,5.4-8.3,5.3-13.3C475.3,432.8,473.2,428,469.7,424.6L469.7,424.6z"/>
</g>
<g display="none">
	<path id="Fill-1_9_" display="inline" d="M133.5,347.7c8.6,4.2,19.5,9.2,27,11.9c5.3,1.9,10.4,3.2,15.2,3.9l2-13.7
		c-3.9-0.6-8.2-1.7-12.6-3.3c-6.8-2.4-17.3-7.3-25.6-11.3L133.5,347.7z"/>
	<path id="Fill-3_3_" display="inline" d="M325.8,361.7l11.9-6.9c-0.6-1-1.2-2.3-1.9-3.7c-4.5-8.7-12.1-23.4-29.9-33l-6.5,12.2
		c14.1,7.6,20,18.9,24.3,27.2C324.3,359,325.1,360.4,325.8,361.7"/>
	<path id="Fill-5_2_" display="inline" d="M272.9,323c4.1,0.4,8.1,1,11.7,1.8l3.1-13.5c-4.3-1-8.9-1.7-13.7-2.1
		c-18.3-1.5-32.1,7.2-42.1,15l8.4,11C248.9,328.6,259.4,322,272.9,323"/>
	<path id="Fill-7_2_" display="inline" d="M229.1,344.3l-8.7-10.7c-10,8.2-19.3,15.1-31.4,16.5l1.6,13.7
		C206.4,362,218.3,353.2,229.1,344.3"/>
	<path id="Fill-9_1_" display="inline" d="M258.5,227.1l-40.1-13.4c-3.6-1.2-7.5,0.7-8.7,4.4c-1.2,3.6,0.8,7.5,4.4,8.7l42.3,14.1
		c1.4,0.5,2.9,0.5,4.3,0l25.8-8.5c4.3-1.4,6-6.5,3.5-10.3l-0.1-0.1c-1.6-2.6-4.9-3.6-7.8-2.7L258.5,227.1z"/>
	<path id="Fill-11_1_" display="inline" d="M357.4,273.5V402l-99.3,37.3l-119.9-31.1c-1.3-0.3-2.7-0.3-4,0.2L45.8,439V298.4
		c0-3.8-3.1-6.9-6.9-6.9c-3.8,0-6.9,3.1-6.9,6.9v150.3c0,2.2,1.1,4.3,2.9,5.6c1.2,0.8,2.6,1.3,4,1.3c0.8,0,1.5-0.1,2.2-0.4l95.7-33
		l120,31.1c1.4,0.3,2.8,0.3,4.1-0.2l105.8-39.8c2.7-1,4.5-3.6,4.5-6.5V273.5c-2.4-2.6-3.8-4.2-6.2-6.8c0,0-0.1,0-0.1,0
		C360.8,266.4,357.4,269.5,357.4,273.5"/>
	<path id="Fill-13" display="inline" d="M112.1,135.2c34.7,0,66.3,31.7,66.3,66.6c0,27.8-14.7,44.1-31.8,63
		c-11.9,13.3-25.2,27.9-34.6,48.2c-9.4-20.3-22.6-34.9-34.6-48.2c-17-18.9-31.8-35.3-31.8-63C45.8,166.9,77.4,135.2,112.1,135.2
		 M105.5,334.3c0.9,2.9,3.6,4.9,6.6,4.9s5.7-2,6.6-4.9c8-26.8,23.4-43.8,38.2-60.3c18.2-20.2,35.3-39.2,35.3-72.3
		c0-42.8-37.4-80.4-80.1-80.4S32,158.9,32,201.8c0,33.1,17.2,52.1,35.3,72.3C82.1,290.5,97.5,307.5,105.5,334.3"/>
	<path id="Fill-16" display="inline" d="M112,184.2c9.7,0,17.6,7.8,17.6,17.5c0,9.6-7.9,17.5-17.6,17.5c-9.7,0-17.6-7.8-17.6-17.5
		C94.4,192,102.3,184.2,112,184.2 M112,232.9c17.3,0,31.4-14,31.4-31.3c0-17.3-14.1-31.3-31.4-31.3s-31.4,14-31.4,31.3
		C80.6,218.9,94.7,232.9,112,232.9"/>
	<defs>
		<filter id="Adobe_OpacityMaskFilter_3_" filterUnits="userSpaceOnUse" x="282.6" y="56.4" width="197.4" height="184.9">
			<feColorMatrix  type="matrix" values="1 0 0 0 0  0 1 0 0 0  0 0 1 0 0  0 0 0 1 0"/>
		</filter>
	</defs>
	<mask maskUnits="userSpaceOnUse" x="282.6" y="56.4" width="197.4" height="184.9" id="mask-2_4_" display="inline">
		<g filter="url(#Adobe_OpacityMaskFilter_3_)">
			<polygon id="path-1_4_" fill="#FFFFFF" points="282.6,56.4 480,56.4 480,241.3 282.6,241.3 			"/>
		</g>
	</mask>
	<path id="Fill-18" display="inline" mask="url(#mask-2_4_)" d="M369.3,61c-9.7,0.3-19.4,2.2-28.7,5.8
		c-46.4,17.6-69.7,69.7-52.2,116.2c17.5,46.5,69.5,70,115.9,52.4c46.4-17.6,69.8-69.7,52.3-116.2c-1.4-3.4-5.3-4.9-8.7-3.4
		c-3.1,1.4-4.7,4.9-3.7,8.1c15,39.8-4.9,84.1-44.6,99.2c-39.7,15.1-83.8-4.9-98.9-44.7c-15-39.8,4.9-84.1,44.6-99.2
		c24.2-9.2,51.4-5.6,72.3,9.8c2.8,2.3,7,1.8,9.2-1c2.3-2.9,1.8-7-1-9.3c-0.2-0.1-0.3-0.2-0.5-0.4c-15.3-11.2-33.5-17-51.9-17.2
		C372.1,61,370.7,61,369.3,61 M473,56.4c-1.7,0.1-3.3,0.8-4.5,2.1c-23.5,24.6-77.3,82.5-103.1,109.8l-32.5-28.8
		c-2.7-2.4-6.8-2.2-9.3,0.5c-2.4,2.7-2.2,6.9,0.5,9.3c0,0,0.1,0.1,0.1,0.1l37.3,33c2.6,2.4,6.7,2.2,9.1-0.3
		c24.5-25.7,83.2-88.9,107.4-114.4c2.6-2.6,2.6-6.8,0-9.3C476.8,57,474.9,56.3,473,56.4"/>
</g>
<g display="none">
	<path id="Shape" display="inline" d="M451.9,199.8l27.7-4.9c-10.9-60.2-46.9-114-98.9-147.7l-15.4,23.1
		C410.7,99.9,442.3,147.1,451.9,199.8z"/>
	<path id="Shape_1_" display="inline" d="M146.8,70.3l-15.4-23.1c-51.9,33.7-88,87.5-98.9,147.7l27.7,4.9
		C69.7,147.1,101.3,99.9,146.8,70.3z"/>
	<path id="Shape_2_" display="inline" d="M445.6,332.2l-28.1-27.7v-69.8c0-72.3-49.6-135.2-119.4-153.7v-7.5
		c0-22.9-18.9-41.5-42.1-41.5s-42.1,18.6-42.1,41.5V81C144,99.5,94.5,162.4,94.5,234.7v69.8l-28.1,27.7v55.6H43v27.7h134.7
		c6.7,36.7,39.2,64.6,78.3,64.6s71.7-27.9,78.3-64.6H469v-27.7h-23.4V332.2z M94.5,343.6l28.1-27.7v-81.2
		c0-62.9,45.4-117.2,108-129.1l11.4-2.2V73.5c0-7.6,6.3-13.8,14-13.8c7.7,0,14,6.2,14,13.8v29.9l11.4,2.2
		c62.6,11.9,108,66.2,108,129.1v81.2l28.1,27.7v44.1h-323V343.6L94.5,343.6z M256,452.3c-23.5,0-43.4-15.6-49.5-36.9h99.1
		C299.4,436.7,279.5,452.3,256,452.3z"/>
</g>
<path id="Fill-1_10_" display="none" d="M145.2,213.6c10.5-41.1,38.5-57.5,70.6-66.9c3.2-1.1,2.6-4.2,2.6-4.2l-4.7-32.7
	c0,0-0.5-2.6-4.7-2.1C96.2,119.7,20.3,205.6,33.5,310c13.7,72.7,70.6,100.7,122.3,93.3c52.2-8.4,88-56.9,79.6-109.1
	C228.5,247.8,190,215.1,145.2,213.6 M478.9,294.2c-6.9-45.9-45.9-78.5-90.1-80.7c11.1-41.1,38-57.5,70.6-66.9
	c3.2-1.1,2.6-4.2,2.6-4.2l-5.3-32.7c0,0-0.5-2.6-4.7-2.1c-112.8,12.7-189.2,98.6-175,202.9c13.2,72.2,69.6,100.2,121.8,92.8
	C451,394.9,486.8,346.4,478.9,294.2"/>
<g display="none">
	<path id="Fill-1_11_" display="inline" d="M186.6,64.3c19.4,0,35.2,15.8,35.2,35.2s-15.8,35.2-35.2,35.2s-35.2-15.8-35.2-35.2
		S167.1,64.3,186.6,64.3 M47.7,115.1H122c7.1,29.7,33.6,50.9,64.6,50.9s57.4-21.1,64.6-50.9h213.2c8.6,0,15.7-7,15.7-15.7
		s-7-15.7-15.7-15.7H251.1C244,54.1,217.5,33,186.6,33S129.1,54.1,122,83.8H47.7c-8.6,0-15.7,7-15.7,15.7S39,115.1,47.7,115.1"/>
	<path id="Fill-1_12_" display="inline" d="M325.4,291.2c-19.4,0-35.2-15.8-35.2-35.2s15.8-35.2,35.2-35.2s35.2,15.8,35.2,35.2
		S344.9,291.2,325.4,291.2 M464.3,240.3H390c-7.1-29.7-33.6-50.9-64.6-50.9s-57.4,21.1-64.6,50.9H47.7c-8.6,0-15.7,7-15.7,15.7
		c0,8.6,7,15.7,15.7,15.7h213.2c7.1,29.7,33.6,50.9,64.6,50.9s57.4-21.1,64.6-50.9h74.3c8.6,0,15.7-7,15.7-15.7
		C480,247.4,473,240.3,464.3,240.3"/>
	<path id="Fill-6_1_" display="inline" d="M186.6,447.7c-19.4,0-35.2-15.8-35.2-35.2c0-19.4,15.8-35.2,35.2-35.2
		s35.2,15.8,35.2,35.2C221.8,431.9,206,447.7,186.6,447.7 M464.3,396.9H251.1c-7.1-29.7-33.6-50.9-64.6-50.9s-57.4,21.1-64.6,50.9
		H47.7c-8.6,0-15.7,7-15.7,15.7c0,8.6,7,15.7,15.7,15.7H122c7.1,29.7,33.6,50.9,64.6,50.9s57.4-21.1,64.6-50.9h213.2
		c8.6,0,15.7-7,15.7-15.7C480,403.9,473,396.9,464.3,396.9"/>
</g>
<g display="none">
	<polygon id="Fill-1_13_" display="inline" points="83,315.9 305.1,315.9 305.1,290.9 83,290.9 	"/>
	<path id="Fill-2_2_" display="inline" d="M285.6,238.7c0,6-4.7,10.7-10.4,10.7h-92.7v-100h92.7c5.7,0,10.4,4.8,10.4,10.7V238.7z
		 M275.3,126.4h-217v0.1h-9.2c-2.6,0-4.5,2.1-4.5,4.7v13.6c0,2.5,1.9,4.7,4.5,4.7h35.8v-0.1h73.7v100H58.3v0.1h-9.2
		c-2.6,0-4.5,2.1-4.5,4.7v13.6c0,2.6,1.9,4.7,4.5,4.7h35.8v-0.1h190.4c18,0,32.5-15.1,32.5-33.7v-78.5
		C307.8,141.6,293.2,126.4,275.3,126.4L275.3,126.4z"/>
	<path id="Fill-4_1_" display="inline" d="M347.7,352c0-26,7.9-29.3,23.4-29.3c14.9,0,22.9,3.4,22.9,29.3c0,26.2-8.2,30.3-23.2,30.3
		C355.9,382.3,347.7,378.2,347.7,352L347.7,352z M365.1,249.4c-5.7,0-10.4-4.8-10.4-10.7v-78.5c0-5.9,4.6-10.7,10.4-10.7h50.3
		l17.6,100H365.1z M475.5,400.9h-80.8c10.1-3.6,18.4-12.8,20.3-36.9h9.9c17.9,0,32.5-15.1,32.5-33.8l-0.1-64.8c0-3.7-0.3-7.4-1-11.1
		l-23-131c-0.6-18.1-15-32.6-32.5-32.6H49.1c-2.6,0-4.5,2.1-4.5,4.7V109c0,2.5,1.9,4.7,4.5,4.7h351.8c5.7,0,10.4,4.8,10.4,10.7v1.1
		l0.1,0.9h-46.3c-17.9,0-32.5,15.1-32.5,33.7v78.5c0,18.6,14.6,33.7,32.5,33.7h70.1l0.1,57.8c0,6-4.6,10.7-10.3,10.7h-9.7
		c-2.2-32-14.9-39-44.4-39s-42.2,7-44.4,39H49.1c-2.6,0-4.5,2.1-4.5,4.7v13.6c0,2.6,1.9,4.7,4.5,4.7h277.5
		c1.6,23.9,8.5,33.4,22.8,36.9H36.5c-2.5,0-4.5,2.2-4.5,4.7v10.9c0,2.6,1.9,4.7,4.5,4.7h439.1c2.6,0,4.5-2.1,4.5-4.7v-10.9
		C480,403.1,478.1,400.9,475.5,400.9L475.5,400.9z"/>
</g>
<path display="none" d="M401.5,223.3c-6.1,0-11.9,0.8-17.6,2.1l-23-62.7c29.8,0.8,43.6,6.1,43.6,20.5v12.4v13.9
	c0,2.1,1.7,3.7,3.8,3.7h9.1c2.1,0,3.8-1.7,3.8-3.7v-26.5c0-33.2-26.7-38.6-67.5-38.7l0,0h-1.3c0,0,0,0,0,0v0h-11.3
	c-2.1,0-3.8,1.7-3.8,3.8l1.5,4.2c0,0.1,0,0.2,0,0.3l4,10.8l0,0.1c0,0,0,0,0,0l9.4,25.5H219.2c-0.5,0-0.8,0.3-1.2,0.5l-14-38.2h23.8
	h5.2c2.2,0,3.8-1.7,3.8-3.8v-8.7c0-2.1-1.6-3.8-3.8-3.8h-69.3c-2.1,0-3.8,1.7-3.8,3.8v8.7c0,2.1,1.7,3.8,3.8,3.8h5.2h17.3
	c0,0.5-0.2,0.9-0.1,1.4l14.9,40.7l-45.7,44.1c-12.7-8.7-28.1-13.9-44.8-13.9c-43.3,0-78.5,34.5-78.5,76.9s35.2,76.9,78.5,76.9
	c39.3,0,71.6-28.5,77.3-65.4h35.4c1.7,17.9,9.5,20.8,26.8,20.8c8.7,0,18.7,0.8,23.8-10l11.5,5.8l4.7,2.3c2,1,4.2,0.1,5.1-1.7l4-7.8
	c0.9-1.9,0.3-4.1-1.7-5l-20.4-10.3c0-0.9,0.2-1.6,0.2-2.5c0-5.2-0.4-9.3-1.2-12.9l81.1-79.8l2.1-2l8.3,22.7
	c-26.3,12.4-44.7,38.6-44.7,69.1c0,42.4,35.2,76.9,78.5,76.9c43.3,0,78.5-34.5,78.5-76.9S444.8,223.3,401.5,223.3z M224.4,205.2
	h114.7l-72.9,71.7c-4.1-1.7-9.3-2.4-16.2-2.4c-0.3,0-0.5,0-0.8,0l-25.5-69.4H224.4z M232.1,277.8c-1.5,0.9-2.8,2-3.9,3.3l-18.1-9.1
	c-1.9-0.9-4.2-0.1-5.1,1.7l-4,7.8c-1,1.9-0.2,4.1,1.7,5l4.7,2.3l13,6.6h-31.8c-1.2-18.2-8.7-34.7-20.7-47.3l39.4-38L232.1,277.8z
	 M155.7,259.8c8.9,9.6,14.6,21.9,15.8,35.6h-52.7L155.7,259.8z M110.5,360.4c-33.9,0-61.5-27-61.5-60.2c0-33.2,27.6-60.2,61.5-60.2
	c11.9,0,22.9,3.5,32.3,9.2l-50.5,48.7c-1.5,1.5-1.5,3.8,0,5.3l6.3,6.2c0.2,0.2,0.6,0.2,0.8,0.3c0.7,1.1,1.6,1.9,3,1.9h5.2h63.2
	C165.3,339.4,140.4,360.4,110.5,360.4z M250.1,320.7c-9.1,0-14.1-2.3-14.1-17.4c0-0.1,0-0.1,0-0.2c0-2.1,0.1-3.8,0.3-5.4
	c0.1-0.5,0.2-1,0.2-1.5c0.2-1,0.4-2,0.7-2.8c0.1-0.4,0.3-0.8,0.4-1.2c0.3-0.7,0.7-1.4,1.1-2c0.2-0.2,0.3-0.5,0.6-0.7
	c0.6-0.7,1.3-1.2,2.1-1.7c2.2-1.2,5.2-1.5,8.8-1.5c9.1,0,13.9,2,13.9,16.9c0,0,0,0.1,0,0.1c0,2.8-0.2,5.1-0.6,7.1
	c-0.1,0.3-0.1,0.7-0.2,1c-0.4,1.8-1,3.3-1.7,4.5C259.3,319.8,255.4,320.7,250.1,320.7z M401.5,360.4c-33.9,0-61.4-27-61.4-60.2
	c0-23.2,13.7-43.2,33.4-53.2l22.5,61.4c0.8,2,2.9,2.9,4.9,2.2l9-3.2c2-0.7,3.1-2.7,2.3-4.8l-22.5-61.4c3.8-0.7,7.7-1.2,11.8-1.2
	c33.9,0,61.5,27,61.5,60.2C462.9,333.4,435.4,360.4,401.5,360.4z"/>
<g display="none">
	<path id="Fill-13_1_" display="inline" d="M268.7,375.6c-14.8,0-22.9-3.9-22.9-29.4c0-25.3,7.8-28.5,23.2-28.5
		c14.7,0,22.7,3.3,22.7,28.5C291.5,371.7,283.4,375.5,268.7,375.6 M169.8,375.6c-14.8,0-22.9-3.9-22.9-29.4
		c0-25.3,7.8-28.5,23.2-28.5c14.7,0,22.7,3.3,22.7,28.5C192.7,371.7,184.6,375.5,169.8,375.6 M69,375.6c-14.8,0-22.9-3.9-22.9-29.4
		c0-25.3,7.8-28.5,23.2-28.5c14.8,0,22.7,3.3,22.7,28.5C91.9,371.7,83.8,375.5,69,375.6 M495.6,393.9H291.7
		c8.8-2.8,16.2-9.7,19.5-26.4h125.2c37.2,0,43.5-19.9,43.5-34.7c0-26.1-19.9-46.1-35.2-63.9l-0.1,0.1L345.5,150
		c-45.1-43.6-120.8-50.3-152.2-51c-0.1-0.1-0.3-0.1-0.4-0.1c-3.5-0.1-6.4-0.1-8.7-0.1c-0.7,0-1.4,0-2,0.1v-0.5H31.5
		c-2.8,0-4.9,2.2-4.9,5v11.8c0,2.8,2.1,5.1,4.9,5.1h151.2v0.1c68.6,0,112.1,20.8,132.5,33.9c-9,6.1-11.1,15.6-11.1,23.4
		c0,22.6,17.2,39.7,30.4,55.1l4.1,4.1c22.9,22.2,55.1,33.3,83.1,38.7l5.4,6.5l-0.2,0.1c14.6,17,31.4,31.5,31.4,49.1
		c0,9.2-4.6,16.3-20.9,16.3H312.9v-1.6c0-40.2-12-48.4-44.3-48.4c-32.3,0-44.4,8.2-44.4,48.4c0,32.1,6.7,43.8,23.5,47.7h-55
		c11.8-3.8,21.3-15,21.3-47.7c0-40.2-12-48.4-44.3-48.4c-32.3,0-44.3,8.2-44.3,48.4c0,32.1,6.7,43.8,23.5,47.7H92.1
		c11.8-3.8,21.2-15,21.2-47.7c0-40.2-12-48.4-44.3-48.4c-32.2,0-44.3,8.2-44.3,48.4c0,32.1,6.7,43.8,23.5,47.7H16.4
		c-2.6,0-4.4,2.1-4.4,4.6V409c0,2.5,1.8,4.6,4.4,4.6h479.2c2.6,0,4.4-2,4.4-4.6v-10.6C500,396,498.2,393.9,495.6,393.9"/>
	<path id="Fill-16_1_" display="inline" d="M250.5,282.5H23.3v-19.5h227.3c27.9,0,27.9-14.1,27.9-20.1c0-16.6-12.1-30.5-23.9-43.9
		l-7.7-8.4c-46.3-44.8-179.3-41.1-180.6-41.1l-37.5-0.1l0.1-19.6l37.1,0.1c5.4-0.2,142.1-3.9,194.3,46.6l4.2,4.3l4.5,5.1
		c12.8,14.6,28.7,32.9,28.7,56.9C297.7,254.7,293.1,282.5,250.5,282.5"/>
</g>
<g display="none">
	<path id="Fill-5_3_" display="inline" d="M480,467.6v10.6c0,2.5-1.9,4.6-4.5,4.6H36.5c-2.6,0-4.5-2-4.5-4.6v-10.6
		c0-2.5,1.9-4.6,4.5-4.6h139.7c3.9,0,8,0.1,12.1,0h149.2c3.9,0,8,0.1,12.1,0h126C478.1,463,480,465.1,480,467.6"/>
	<path display="inline" d="M456.8,281.9c0-3.6-0.3-7.3-1-10.8l-23-106.4c-0.6-17.5-15-31.6-32.5-31.6H226.4v-4.7
		c0-1.5-0.5-2.7-1.3-4l-45.7-70.5h41.6c3.1,0,5.5-2.5,5.5-5.7V35.1c0-3.1-2.4-5.8-5.5-5.8h-69.5c-3.2,0-5.6,2.6-5.6,5.8v13.1
		c0,1.2,0.3,2.2,0.9,3.1l46.2,71.3h-41.5c-3.2,0-5.6,2.5-5.6,5.7v4.7H47.3c-2.5,0-4.5,2.1-4.5,4.6v13.2c0,2.5,1.9,4.6,4.5,4.6h49.9
		v110.7H61.4v0.1H45.5c-2.6,0-4.5,2.1-4.5,4.6v12.6c0,2.5,1.9,4.6,4.5,4.6h181.3v67.6H61.4v0.1H50.2c-2.6,0-4.5,2-4.5,4.6V373
		c0,2.5,1.9,4.6,4.5,4.6h35.8v-0.1h39.8c-0.1,2.1-0.1,4.3-0.1,6.7c0,43.1,12.2,49.3,44.7,49.5h12.1c16.7-0.8,32.6-7,32.6-49.5
		c0-2.4-0.1-4.6-0.1-6.7H287c-0.1,2.1-0.1,4.3-0.1,6.7c0,43.1,12.1,49.3,44.7,49.5h12.1c16.6-0.8,32.6-7,32.6-49.5
		c0-2.4-0.1-4.6-0.1-6.7h48.3c17.9,0,32.5-14.7,32.5-32.7L456.8,281.9z M170.3,413.4c-15,0-23.2-3.9-23.2-29.3
		c0-2.5,0.1-4.7,0.3-6.7h45.7c0.2,2,0.3,4.3,0.3,6.7C193.5,409.6,185.3,413.4,170.3,413.4z M325.5,155.4h74.8
		c5.7,0,10.4,4.6,10.4,10.4v1l21.5,99.3H325.5V155.4z M226.8,266.1H121.3V155.4h105.5h0V266.1z M301.6,355.5H251V155.4h50.6V355.5z
		 M331.5,413.4c-15,0-23.2-3.9-23.2-29.3c0-2.5,0.1-4.7,0.3-6.7h45.7c0.1,2,0.3,4.3,0.3,6.7C354.7,409.6,346.4,413.4,331.5,413.4z
		 M424.4,355.1h-23.5v0.4h-75.4v-67.6h109.1l0.1,56.7C434.7,350.3,430.1,355.1,424.4,355.1z"/>
</g>
<g display="none">
	<g id="Group-3" transform="translate(11.555556, 0.311877)" display="inline">
		<path id="Fill-1_14_" d="M468.1,258.1c0,48.7-15.1,91.6-45.3,128.8c-32.7,34.4-83,51.5-125.8,28.6c-22.6-11.5-42.8-28.6-57.8-51.5
			c-5-5.7-5-14.3,0-20c7.5-5.7,12.6,2.9,17.6,8.6c15.1,22.9,32.7,34.4,55.3,40.1c25.2,5.7,47.8-2.9,67.9-20
			c42.8-40.1,50.3-91.6,42.8-148.9c-5-37.2-20.1-65.8-45.3-88.8c-32.7-25.8-67.9-25.8-105.6,2.9c-5,2.9-7.5,5.7-10.1,11.5
			c-2.5,8.6-7.5,11.5-12.6,5.7c-5-5.7-5-14.3,0-20c7.5-11.5,17.6-20,27.7-28.6c47.8-34.4,110.7-25.8,148.4,20
			C458.1,163.6,470.7,206.6,468.1,258.1"/>
	</g>
	<path id="Fill-4_2_" display="inline" d="M316.2,209.7c-20.1-2.9-37.7,22.9-37.7,42.9c0,25.8,15.1,42.9,37.7,42.9
		c20.1,0,37.7-20,37.7-42.9C353.9,232.6,338.8,206.9,316.2,209.7 M250.8,252.7c0-42.9,30.2-77.3,70.4-77.3
		c37.7,0,67.9,34.4,67.9,77.3s-30.2,80.2-70.4,80.2C281,330,250.8,295.6,250.8,252.7"/>
	<path id="Fill-6_2_" display="inline" d="M157.8,241.2L157.8,241.2h12.6c5,0,7.5-2.9,5-8.6c-5-11.5-22.6-14.3-30.2-5.7
		c-2.5,2.9-7.5,8.6-5,11.5c2.5,2.9,7.5,0,10.1,0C152.7,241.2,155.2,241.2,157.8,241.2 M167.8,267h-25.2c-5,0-5,2.9-2.5,5.7
		c7.5,14.3,17.6,20,30.2,8.6c7.5-5.7,15.1-2.9,22.6-2.9c2.5,0,2.5,2.9,2.5,5.7c-5,14.3-15.1,25.8-30.2,28.6
		c-12.6,2.9-25.2-2.9-30.2-14.3c-17.6-25.8-17.6-54.4-2.5-83c15.1-28.6,45.3-28.6,60.4,0c7.5,11.5,10.1,25.8,10.1,40.1
		c0,5.7-2.5,8.6-7.5,8.6C182.9,267,175.4,267,167.8,267"/>
	<path id="Fill-8_3_" display="inline" d="M32,247c0-25.8,5-51.5,17.6-71.6c7.5-11.5,15.1-20,25.2-25.8c20.1-8.6,40.2,8.6,47.8,22.9
		c2.5,5.7,0,11.5-2.5,14.3c-5,2.9-7.5,0-10.1-2.9c-22.6-31.5-47.8-11.5-57.8,17.2c-12.6,31.5-12.6,65.8,0,97.3
		c2.5,8.6,7.5,17.2,12.6,22.9c12.6,14.3,30.2,11.5,42.8-5.7c2.5-2.9,7.5-11.5,12.6-5.7c5,5.7,5,11.5,0,17.2
		c-22.6,31.5-50.3,28.6-70.4-5.7C37,301.4,32,275.6,32,247"/>
	<path id="Fill-10_1_" display="inline" d="M235.7,232.6v74.4c0,2.9,2.5,11.5-5,8.6c-5-2.9-17.6,5.7-17.6-11.5V201.1v-42.9
		c0-11.5,5-14.3,17.6-14.3c10.1,0,5,8.6,5,11.5V232.6z"/>
	<path id="Fill-12" display="inline" d="M87.3,264.1c5-17.2,7.5-31.5,10.1-48.7c0-2.9,0-8.6,5-8.6c5-2.9,10.1-5.7,12.6,0
		c2.5,2.9,0,8.6-2.5,11.5c-7.5,25.8-12.6,51.5-20.1,80.2c0,2.9-2.5,8.6-7.5,8.6c-5,0-7.5-2.9-7.5-8.6c-2.5-28.6-7.5-51.5-12.6-77.3
		c0-2.9-5-11.5,5-14.3c7.5-2.9,7.5,2.9,10.1,8.6C79.8,232.6,82.3,249.8,87.3,264.1"/>
</g>
<g display="none">
	<path id="Fill-2_3_" display="inline" d="M-1224.9,882.7c-14.1,0-16.5,2.2-16.5,26.4c0,24.9,2.7,27.5,16.5,27.5h1.3
		c13.8,0,16.5-2.6,16.5-27.5c0-24.2-2.4-26.3-16.8-26.3H-1224.9z M-1224.9,955.3c-29.2,0-35.1-11.8-35.1-46.3
		c0-34.2,5.7-45.1,35.1-45.1h0.9c29.4,0,35.4,10.8,35.4,45.1c0,34.4-5.9,46.2-35.1,46.2H-1224.9z"/>
	<path id="Fill-4_3_" display="inline" d="M-1225.8,1035.8l-29.7,80.3l-43-16.2l29.8-80.6c12.6-34.1,19.5-36,35.1-30.1
		C-1217,995.4-1213.4,1002-1225.8,1035.8 M-1110.1,1066h-62.4l-26.3-73.4c-0.2-0.7-0.6-1.2-1-1.5c-4-8.2-12.4-14.6-26.9-20.1
		c-13.3-5-23.3-6.1-31.2-3.3c-0.1,0-0.1,0-0.3,0.1c-0.1,0-0.4,0.1-0.6,0.1l-81.8,29.9c-1.7,0.6-2.7,2-2.7,3.7c0,0.1-0.1,0.4-0.1,0.5
		v73.7c0,2.5,2,4.2,4.3,4.2h9.9c2.4,0,4.3-1.8,4.3-4.2v-63l42.5-15.5c-2,4.4-3.9,9.3-5.9,14.7l-7.1,19.2l-22.8,61.9l-5.1,13.7
		c-0.1,0.3-0.2,0.5-0.2,0.8c-0.1,0.3-0.1,0.6-0.1,0.9l-0.4,81.7v0.1l-3.5,3.9c-1.6,1.8-2.9,3.2-2.9,3.2l-58.6,64.3
		c-1.4,1.6-1.4,3.9-0.3,5.5l21.3,19.8c1.8,1.7,4.4,1.5,6-0.3l6.7-7.4c1.7-1.8,1.7-4.4-0.1-6.1l-9.7-9l58.4-64.1
		c0.1-0.1,0.1-0.1,0.1-0.1c1.2-0.7,1.9-2,2-3.6l0.3-77.8l43.3,16.3l26.4,73.6v7.6v4.4v87.4c0,2.2,1.5,3.9,3.4,4.2v0.1h29
		c2.5,0,4.2-2,4.2-4.4v-10c0-2.4-1.7-4.3-4.2-4.3h-13.1v-87.5c0-0.4-0.1-0.7-0.1-1c0-0.2-0.1-0.4-0.2-0.7l-24.7-68.9l3.8-10.3
		l23.2-62.9l7-18.9c0.9-2.5,1.8-4.9,2.6-7.2l16.5,46.1c0.6,1.7,2,2.7,3.7,2.7c0.1,0,0.4,0.1,0.5,0.1h72.9c2.5,0,4.2-1.9,4.2-4.3
		v-10.1C-1105.9,1068-1107.7,1066-1110.1,1066"/>
</g>
<polygon id="path-1_30_" display="none" points="896,-255.1 767.1,-384 256,127.1 -255.1,-384 -384,-255.1 127.1,256 -384,767.1 
	-255.1,896 256,384.9 767.1,896 896,767.1 384.9,256 "/>
<polygon id="path-1_29_" display="none" points="-384,487.1 -233.7,629.4 256,167.7 745.7,629.4 896,487.1 256,-117.4 "/>
<polygon id="path-1_28_" display="none" points="24.9,-384 -117.4,-233.7 344.3,256 -117.4,745.7 24.9,896 629.4,256 "/>
<polygon id="path-1_7_" display="none" points="487.1,-384 629.4,-233.7 167.7,256 629.4,745.7 487.1,896 -117.4,256 "/>
<polygon id="path-1_5_" display="none" points="896,24.9 745.7,-117.4 256,344.3 -233.7,-117.4 -384,24.9 256,629.4 "/>
<polygon id="path-1_6_" fill-opacity="0.7" points="174.4,356.7 68.2,248.3 32,285 174.4,430.2 480,118.4 444.1,81.8 "/>
<path id="path-1_8_" display="none" d="M-215.6-384V896h943.1V-384H-215.6z M-80.7-252.9H593v229.7H-80.7V-252.9z M-80.7,108.3H54.1
	v131.4H-80.7V108.3z M188.7,108.3h134.9v131.4H188.7V108.3z M458.1,108.3H593v131.4H458.1V108.3z M-80.7,370.9H54.1V502H-80.7V370.9
	z M188.7,370.9h134.9V502H188.7V370.9z M458.1,370.9H593v393.7H458.1V370.9z M-80.7,633.4H54.1v131.1H-80.7V633.4z M188.7,633.4
	h134.9v131.1H188.7V633.4z"/>
<polygon id="path-1_9_" display="none" points="32,280.9 384.7,280.9 295.6,370.2 330.7,405.3 480,256 330.7,106.7 295.6,141.8 
	384.7,231.1 32,231.1 "/>
<path id="path-1_10_" display="none" d="M99,896l-1.7-581.7h-220.6V81.4H97.3V-64c0-216,126.9-320,309.4-320
	c87.4,0,162.6,6.9,184.6,10v225.7H464.7c-99.4,0-118.6,49.7-118.6,122.9V81.4h289.1L525,314.3H346.1V896H99z"/>
<path id="path-1_11_" display="none" d="M621.7,42.4h-60.9v-122c0-168-136.6-304.6-304.9-304.6S-48.9-247.6-48.9-79.3v122h-60.9
	c-67.1,0-122,54.9-122,122v609.4c0,67.1,54.9,122,122,122h731.4c67.1,0,122-54.9,122-122V164.4C743.7,97.3,688.9,42.4,621.7,42.4
	L621.7,42.4z M256,591c-67.1,0-122-54.9-122-122s54.9-121.7,122-121.7s122,54.9,122,122S323.1,591,256,591L256,591z M444.9,42.4
	H67.1v-122c0-104.3,84.9-188.9,188.9-188.9s188.9,84.9,188.9,188.9V42.4L444.9,42.4z"/>
<polygon id="path-1_12_" display="none" points="-384,347.4 -384,164.6 896,164.6 896,347.4 "/>
<polygon id="path-1_13_" display="none" points="896,347.4 347.4,347.4 347.4,896 164.6,896 164.6,347.4 -384,347.4 -384,164.6 
	164.6,164.6 164.6,-384 347.4,-384 347.4,164.6 896,164.6 "/>
<path id="path-1_14_" display="none" d="M530.9,421.1h-58l-20.6-19.7c72-83.7,115.1-192,115.1-309.7C567.4-171.1,354.6-384,91.7-384
	S-384-171.1-384,91.7s212.9,475.7,475.7,475.7c117.7,0,226-43.1,309.4-114.9l19.7,20.6v57.7l366,365.1L896,786.9L530.9,421.1
	L530.9,421.1z M91.7,421.1c-182.3,0-329.4-147.1-329.4-329.4S-90.6-237.7,91.7-237.7S421.1-90.6,421.1,91.7S274,421.1,91.7,421.1
	L91.7,421.1z"/>
<polygon id="path-1_15_" display="none" points="-384,-64 256,576 896,-64 "/>
<path id="path-1_16_" display="none" d="M798.3,798.3H-286.3V-286.3H256v-154.9h-542.3c-86,0-154.9,69.7-154.9,154.9V798.3
	c0,85.1,68.9,154.9,154.9,154.9H798.3c85.1,0,154.9-69.7,154.9-154.9V256H798.3V798.3z M410.9-441.1v154.9h278L-72.6,475.1
	L36.6,584.3L798-177.1v278h155.1v-542H410.9z"/>
<path id="path-1_17_" display="none" d="M-126.7,170c102.3,201.1,267.4,365.4,468.6,468.6L498.4,482c19.1-19.1,47.7-25.7,72.6-17.1
	c79.7,26.3,165.7,40.6,254,40.6c39.1,0,71.1,32,71.1,71.1v248.3c0,39.1-32,71.1-71.1,71.1C157,896-384.1,354.9-384.1-312.9
	c0-39.1,32-71.1,71.1-71.1h248.9C-25-384,7-352,7-312.9c0,88.9,14.3,174.3,40.6,254c7.7,24.9,2,52.6-17.7,72.6L-126.7,170
	L-126.7,170z"/>
<path id="path-1_18_" display="none" d="M896.1-134.6c-48,21.1-96,36.9-149.4,42.3c53.4-31.7,96-84.6,117.4-142.6
	c-53.4,31.7-106.6,52.9-165.4,63.4c-48-52.9-117.4-84.6-192-84.6c-144,0-261.4,116-261.4,258.6c0,21.1,0,42.3,5.4,58
	c-224-10.3-416-116-544-274.3c-26.6,42.3-37.4,84.6-37.4,132c0,89.7,48,168.9,117.4,216.3c-42.6,0-85.4-10.6-117.4-31.7
	c0,0,0,0,0,5.1c0,126.6,90.6,232.3,208,253.4c-21.4,5.1-42.6,10.6-69.4,10.6c-16,0-32,0-48-5.1c32,105.4,128,179.4,245.4,179.4
	c-90.6,68.6-202.6,110.9-325.4,110.9c-21.4,0-42.6,0-64-5.1c117.4,74,256,116,400,116c485.4,0,746.6-396,746.6-738.9V-2.6
	C816.1-39.7,858.7-87.1,896.1-134.6z"/>
<path id="path-1_19_" display="none" d="M896,103.7L435.7,62L256-384L76.3,62.6L-384,103.7l349.4,318.6L-139.4,896L256,644.9
	L651.4,896L547.1,422.3L896,103.7L896,103.7z M256,518.9L15.4,671.7l64-288.3l-212.6-194l280.3-25.7L256-107.7l109.4,272.3
	l280.3,25.7L433.1,384l64,288.3L256,518.9L256,518.9z"/>
<polygon id="path-1_20_" display="none" points="256,644.9 651.4,896 546.6,422.3 896,103.7 435.7,62.6 256,-384 76.3,62.6 
	-384,103.7 -34.6,422.3 -139.4,896 "/>
<path id="path-1_21_" display="none" d="M896,103.7L435.7,62L256-384L76.3,62.6L-384,103.7l349.4,318.6L-139.4,896L256,644.9
	L651.4,896L547.1,422.3L896,103.7z M256,518.9v-626.6l109.4,272.3l280.3,25.7L433.1,384l64,288.3L256,518.9z"/>
<path id="path-1_22_" display="none" d="M768-256H-256c-70.3,0-127.4,57.7-127.4,128l-0.6,768c0,70.3,57.7,128,128,128H768
	c70.3,0,128-57.7,128-128v-768C896-198.3,838.3-256,768-256z M768,640H-256V0l512,320L768,0V640z M256,192l-512-320H768L256,192z"/>
<path id="path-1_23_" display="none" fill-opacity="0.7" d="M783.1,67.7H482V-384H30V67.7h-301.1L256,594.9L783.1,67.7L783.1,67.7z
	 M-271.1,745.4V896h1054V745.4H-271.1L-271.1,745.4z"/>
<path id="path-1_24_" display="none" d="M896,896H-224V736H896V896L896,896z M896,336H-384V176H896V336L896,336z M896-384v160H96
	v-160H896L896-384z"/>
<path id="path-1_26_" display="none" d="M384-384h-512c-70.3,0-127.4,57.7-127.4,128L-256,768c0,70.3,56.9,128,127.4,128H640
	c70.3,0,128-57.7,128-128V0L384-384z M512,640H0V512h512V640z M512,384H0V256h512V384z M320,64v-352L672,64H320z"/>
<polygon id="path-1_25_" display="none" points="480,280.9 127.3,280.9 216.4,370.2 181.3,405.3 32,256 181.3,106.7 216.4,141.8 
	127.3,231.1 480,231.1 "/>
<path id="Fill-1_3_" display="none" d="M470.6,156L470.6,156L225.3,401.3c-5.8,5.8-13.8,9.4-22.6,9.4c-8.8,0-16.8-3.6-22.6-9.4
	L41.4,262.6c-5.8-5.8-9.4-13.8-9.4-22.6c0-17.7,14.3-32,32-32c8.8,0,16.8,3.6,22.6,9.4l116,116l222.7-222.7
	c5.8-5.8,13.8-9.4,22.6-9.4c17.7,0,32,14.3,32,32C480,142.2,476.4,150.2,470.6,156"/>
</svg>
