<?xml version="1.0" encoding="utf-8"?>
<!-- Generator: Adobe Illustrator 17.1.0, SVG Export Plug-In . SVG Version: 6.00 Build 0)  -->
<!DOCTYPE svg PUBLIC "-//W3C//DTD SVG 1.1//EN" "http://www.w3.org/Graphics/SVG/1.1/DTD/svg11.dtd">
<svg version="1.1" id="Layer_1" xmlns="http://www.w3.org/2000/svg" xmlns:xlink="http://www.w3.org/1999/xlink" x="0px" y="0px"
	 viewBox="0 45 512 512" enable-background="new 0 45 512 512" xml:space="preserve">
<path d="M303.6,301l166.5-166.6c13.1-13.1,13.1-34.4,0-47.6c-13.1-13.1-34.4-13.1-47.6,0L256,253.4L89.4,86.9
	c-13.1-13.1-34.4-13.1-47.6,0c-13.1,13.1-13.1,34.4,0,47.6L208.4,301L41.9,467.6c-13.1,13.1-13.1,34.4,0,47.6
	c13.1,13.1,34.4,13.1,47.6,0L256,348.6l166.6,166.6c13.1,13.1,34.4,13.1,47.6,0c13.1-13.1,13.1-34.4,0-47.6L303.6,301z"/>
</svg>
