<?xml version="1.0" encoding="utf-8"?>
<!-- Generator: Adobe Illustrator 17.1.0, SVG Export Plug-In . SVG Version: 6.00 Build 0)  -->
<!DOCTYPE svg PUBLIC "-//W3C//DTD SVG 1.1//EN" "http://www.w3.org/Graphics/SVG/1.1/DTD/svg11.dtd">
<svg version="1.1" id="Layer_1" xmlns="http://www.w3.org/2000/svg" xmlns:xlink="http://www.w3.org/1999/xlink" x="0px" y="0px"
	 viewBox="0 -467 512 512" enable-background="new 0 -467 512 512" xml:space="preserve">
<path id="path-1_1_" display="none" d="M36.9,35.1c-3.1-2.4-5.8-4.6-5.8-4.6s-1.4-1.2-3.8,1.1l9.1,7C36.4,38.6,38,36.1,36.9,35.1
	 M20.8,12.2c0,0-0.2-5.9-0.2-7.6s-3.1-1.9-3.1-1.9l0.2,10.9C19.3,14.4,20.8,12.2,20.8,12.2 M21.5,31.5l-2.7-4.7c0,0-2-3.6-4-7.8
	c-1.3-3.2,1.7-4.9,1.7-4.9s-0.2-5-0.4-11.3C9.9,3.9,8.7,6.5,8.4,7.3C6.2,15.4,10,25.7,11.3,28c7.9,12.9,15.3,14.4,16.4,14.2
	c3.7-0.1,7.5-2.6,7.5-2.6l-8.9-7C22.7,33.9,21.5,31.5,21.5,31.5"/>
<path id="path-1_2_" display="none" d="M37.7,35.6H7.3c-0.4,0-0.9-0.1-1.2-0.4l13.4-13.5l2.8,2.8l2.9-2.9l13.6,13.7l0.7-0.7
	C39.1,35.2,38.5,35.6,37.7,35.6L37.7,35.6z M5.2,11.4c0-1.1,0.9-2.1,2-2.1l11.2,11.3L5.3,34c0-0.1,0-0.3,0-0.4V11.4z M39.8,11.4
	v22.1c0,0.2,0,0.4-0.1,0.6L26.2,20.6L37.4,9.4h0.4C38.9,9.4,39.8,10.3,39.8,11.4L39.8,11.4z M38.1,6.9H6.9c-2.3,0-4.1,1.8-4.1,4.1
	V34c0,2.3,1.8,4.1,4.1,4.1h31.2c2.3,0,4.1-1.8,4.1-4.1V11C42.2,8.8,40.4,6.9,38.1,6.9L38.1,6.9z"/>
<g id="_x2699_-Symbols">
	<g id="atom_x2F_icon_x2F_facebook" transform="translate(-1.000000, -1.000000)">
		<g id="quark_x2F_color-white" transform="translate(1.000000, 1.000000)">
			<g id="Shape">
				<path id="path-1_4_" d="M455.3-435H56.7C43.1-435,32-423.9,32-410.3v398.6C32,1.9,43.1,13,56.7,13h214.6v-173.5h-58.4v-67.6
					h58.4V-278c0-57.8,35.4-89.3,87-89.3c24.7,0,46,1.8,52.2,2.6v60.5h-35.9c-28,0-33.5,13.5-33.5,33.1v43.1H408l-8.7,67.8h-58.2V13
					h114.1C468.9,13,480,1.9,480-11.7v-398.6C480-423.9,468.9-435,455.3-435"/>
			</g>
		</g>
	</g>
</g>
</svg>
