<?xml version="1.0" encoding="utf-8"?>
<!-- Generator: Adobe Illustrator 17.1.0, SVG Export Plug-In . SVG Version: 6.00 Build 0)  -->
<!DOCTYPE svg PUBLIC "-//W3C//DTD SVG 1.1//EN" "http://www.w3.org/Graphics/SVG/1.1/DTD/svg11.dtd">
<svg version="1.1" id="Layer_1" xmlns="http://www.w3.org/2000/svg" xmlns:xlink="http://www.w3.org/1999/xlink" x="0px" y="0px"
	 viewBox="-10 0 512 512" enable-background="new -10 0 512 512" xml:space="preserve">
<path d="M246,32C122.5,32,22,132.5,22,256s100.5,224,224,224s224-100.5,224-224S369.5,32,246,32z M246,439.3
	c-101.1,0-183.3-82.2-183.3-183.3S144.9,72.7,246,72.7S429.3,154.9,429.3,256S347.1,439.3,246,439.3z M250.7,125.3
	c-12.9,0-23.3,10.5-23.3,23.3c0,12.9,10.5,23.3,23.3,23.3s23.3-10.5,23.3-23.3C274,135.8,263.5,125.3,250.7,125.3z M250.7,218.7
	c-12.9,0-23.3,9.1-23.3,20.4v122.2c0,11.2,10.4,20.4,23.3,20.4c12.9,0,23.3-9.1,23.3-20.4V239C274,227.8,263.6,218.7,250.7,218.7z"
	/>
</svg>
