<?xml version="1.0" encoding="utf-8"?>
<!-- Generator: Adobe Illustrator 17.1.0, SVG Export Plug-In . SVG Version: 6.00 Build 0)  -->
<!DOCTYPE svg PUBLIC "-//W3C//DTD SVG 1.1//EN" "http://www.w3.org/Graphics/SVG/1.1/DTD/svg11.dtd">
<svg version="1.1" id="Layer_1" xmlns="http://www.w3.org/2000/svg" xmlns:xlink="http://www.w3.org/1999/xlink" x="0px" y="0px"
	 viewBox="0 0 512 512" enable-background="new 0 0 512 512" xml:space="preserve">
<path id="path-1_1_" d="M419.6,399c-35.8-27.2-66.2-51.8-66.2-51.8s-16.1-13.2-42.9,12.3l103.8,79.9
	C414.2,439.4,432.1,410.4,419.6,399 M236.1,139.1c0,0-1.8-67.6-1.8-86c0-18.4-35.8-21.1-35.8-21.1l1.8,123.8
	C220.1,163.7,236.1,139.1,236.1,139.1 M245.1,358.6L214.7,305c0,0-23.3-40.4-45.6-88.7c-15.2-36.9,19.7-55.3,19.7-55.3
	S186,104,184.3,32c-71.6,12.3-85,42.1-88.6,50.9c-25.1,92.2,17.9,209.8,33.1,235.3c89.5,146.6,173.6,164.2,187,161.6
	c42-0.9,85.9-29.9,85.9-29.9L300.6,370C258.5,385.8,245.1,358.6,245.1,358.6"/>
</svg>
