<?xml version="1.0" encoding="utf-8"?>
<!-- Generator: Adobe Illustrator 17.1.0, SVG Export Plug-In . SVG Version: 6.00 Build 0)  -->
<!DOCTYPE svg PUBLIC "-//W3C//DTD SVG 1.1//EN" "http://www.w3.org/Graphics/SVG/1.1/DTD/svg11.dtd">
<svg version="1.1" id="Layer_1" xmlns="http://www.w3.org/2000/svg" xmlns:xlink="http://www.w3.org/1999/xlink" x="0px" y="0px"
	 viewBox="0 -467 512 512" enable-background="new 0 -467 512 512" xml:space="preserve">
<path id="path-1_1_" display="none" d="M3.2-422.9c-0.3-0.2-0.5-0.4-0.5-0.4s-0.1-0.1-0.3,0.1l0.8,0.6
	C3.2-422.6,3.3-422.8,3.2-422.9 M1.8-424.9c0,0,0-0.5,0-0.7s-0.3-0.2-0.3-0.2l0,1C1.7-424.7,1.8-424.9,1.8-424.9 M1.9-423.2
	l-0.2-0.4c0,0-0.2-0.3-0.4-0.7c-0.1-0.3,0.1-0.4,0.1-0.4s0-0.4,0-1c-0.5,0.1-0.7,0.3-0.7,0.4c-0.2,0.7,0.1,1.6,0.3,1.8
	c0.7,1.1,1.3,1.3,1.4,1.2c0.3,0,0.7-0.2,0.7-0.2l-0.8-0.6C2-423,1.9-423.2,1.9-423.2"/>
<path id="path-1_2_" display="none" d="M3.3-422.8H0.6c0,0-0.1,0-0.1,0l1.2-1.2l0.2,0.2l0.3-0.3L3.3-422.8l0.2-0.1
	C3.4-422.9,3.4-422.8,3.3-422.8L3.3-422.8z M0.5-425c0-0.1,0.1-0.2,0.2-0.2l1,1L0.5-423c0,0,0,0,0,0L0.5-425L0.5-425z M3.5-425v1.9
	c0,0,0,0,0,0.1l-1.2-1.2l1-1h0C3.4-425.1,3.5-425,3.5-425L3.5-425z M3.3-425.3H0.6c-0.2,0-0.4,0.2-0.4,0.4v2c0,0.2,0.2,0.4,0.4,0.4
	h2.7c0.2,0,0.4-0.2,0.4-0.4v-2C3.7-425.2,3.6-425.3,3.3-425.3L3.3-425.3z"/>
<g id="_x2699_-Symbols_1_">
	<g id="atom_x2F_icon_x2F_location" transform="translate(-4.000000, -1.000000)">
		<g id="quark_x2F_color-black_1_" transform="translate(4.000000, 1.000000)">
			<g>
				<g id="Mask_1_">
					<path id="path-1_4_" d="M256-435c-89.8,0-162.9,72.8-162.9,162.2c0,111,145.8,274,152,280.9c5.8,6.5,16,6.5,21.8,0
						c6.2-6.9,152-169.9,152-280.9C418.9-362.2,345.8-435,256-435z M256-191.1c-45.2,0-82-36.6-82-81.6s36.8-81.6,82-81.6
						s82,36.6,82,81.6S301.2-191.1,256-191.1z"/>
				</g>
			</g>
		</g>
	</g>
</g>
</svg>
