<?xml version="1.0" encoding="utf-8"?>
<!-- Generator: Adobe Illustrator 17.1.0, SVG Export Plug-In . SVG Version: 6.00 Build 0)  -->
<!DOCTYPE svg PUBLIC "-//W3C//DTD SVG 1.1//EN" "http://www.w3.org/Graphics/SVG/1.1/DTD/svg11.dtd">
<svg version="1.1" id="Layer_1" xmlns="http://www.w3.org/2000/svg" xmlns:xlink="http://www.w3.org/1999/xlink" x="0px" y="0px"
	 viewBox="-10 35 512 512" enable-background="new -10 35 512 512" xml:space="preserve">
<path d="M342.2,348.8h-20.2l-7.2-6.9c25.1-29.2,40.2-67.1,40.2-108.3c0-92-74.5-166.5-166.5-166.5S22,141.5,22,233.5
	S96.5,400,188.5,400c41.2,0,79.1-15.1,108.3-40.2l6.9,7.2v20.2L431.8,515l38.2-38.2L342.2,348.8z M188.5,348.8
	c-63.8,0-115.3-51.5-115.3-115.3s51.5-115.3,115.3-115.3s115.3,51.5,115.3,115.3S252.3,348.8,188.5,348.8z"/>
<path fill="none" d="M-10,35h24v24h-24V35z"/>
</svg>
