<?xml version="1.0" encoding="utf-8"?>
<!-- Generator: Adobe Illustrator 17.1.0, SVG Export Plug-In . SVG Version: 6.00 Build 0)  -->
<!DOCTYPE svg PUBLIC "-//W3C//DTD SVG 1.1//EN" "http://www.w3.org/Graphics/SVG/1.1/DTD/svg11.dtd">
<svg version="1.1" id="Layer_1" xmlns="http://www.w3.org/2000/svg" xmlns:xlink="http://www.w3.org/1999/xlink" x="0px" y="0px"
	 viewBox="0 -467 512 512" enable-background="new 0 -467 512 512" xml:space="preserve">
<path id="path-1_1_" display="none" d="M3.2-422.9c-0.3-0.2-0.5-0.4-0.5-0.4s-0.1-0.1-0.3,0.1l0.8,0.6
	C3.2-422.6,3.3-422.8,3.2-422.9 M1.8-424.9c0,0,0-0.5,0-0.7s-0.3-0.2-0.3-0.2l0,1C1.7-424.7,1.8-424.9,1.8-424.9 M1.9-423.2
	l-0.2-0.4c0,0-0.2-0.3-0.4-0.7c-0.1-0.3,0.1-0.4,0.1-0.4s0-0.4,0-1c-0.5,0.1-0.7,0.3-0.7,0.4c-0.2,0.7,0.1,1.6,0.3,1.8
	c0.7,1.1,1.3,1.3,1.4,1.2c0.3,0,0.7-0.2,0.7-0.2l-0.8-0.6C2-423,1.9-423.2,1.9-423.2"/>
<path id="path-1_2_" display="none" d="M3.3-422.8H0.6c0,0-0.1,0-0.1,0l1.2-1.2l0.2,0.2l0.3-0.3L3.3-422.8l0.2-0.1
	C3.4-422.9,3.4-422.8,3.3-422.8L3.3-422.8z M0.5-425c0-0.1,0.1-0.2,0.2-0.2l1,1L0.5-423c0,0,0,0,0,0L0.5-425L0.5-425z M3.5-425v1.9
	c0,0,0,0,0,0.1l-1.2-1.2l1-1h0C3.4-425.1,3.5-425,3.5-425L3.5-425z M3.3-425.3H0.6c-0.2,0-0.4,0.2-0.4,0.4v2c0,0.2,0.2,0.4,0.4,0.4
	h2.7c0.2,0,0.4-0.2,0.4-0.4v-2C3.7-425.2,3.6-425.3,3.3-425.3L3.3-425.3z"/>
<g id="_x2699_-Symbols">
	<g id="atom_x2F_icon_x2F_person" transform="translate(-4.000000, -2.000000)">
		<g id="quark_x2F_color-black" transform="translate(4.000000, 2.000000)">
			<g id="Mask">
				<path id="path-1_3_" d="M256-217c-52.3,0-94.6-48.8-94.6-109c0-60.2,13.9-109,94.6-109s94.6,48.8,94.6,109
					C350.6-265.8,308.3-217,256-217z M434.5-51.9c0.1,6.6,0.2,7.8,0.2,7.2c0,1.8,0,4.3,0,8.1c0,0-26.3,49.7-178.7,49.7
					C103.6,13,77.3-36.7,77.3-36.7c0-5.8,0-9.1,0-10.9c0,1,0.1,0.5,0.3-7.7c2-100.9,17.3-130,126.6-148.4c0,0,15.6,18.6,51.8,18.6
					s51.8-18.6,51.8-18.6C418.3-185,432.8-155.5,434.5-51.9z"/>
			</g>
		</g>
	</g>
</g>
</svg>
