<?xml version="1.0" encoding="utf-8"?>
<!-- Generator: Adobe Illustrator 19.0.0, SVG Export Plug-In . SVG Version: 6.00 Build 0)  -->
<svg version="1.1" id="Layer_1" xmlns="http://www.w3.org/2000/svg" xmlns:xlink="http://www.w3.org/1999/xlink" x="0px" y="0px"
	 viewBox="0 0 595.3 841.9" style="enable-background:new 0 0 595.3 841.9;" xml:space="preserve">
<style type="text/css">
	.st0{fill:#010101;}
</style>
<g id="Letters_3_">
	<path id="XMLID_14_" class="st0" d="M64.1,33.1c4.7,0,9.1,0.7,13.1,2.2c4,1.5,7.5,3.7,10.5,6.7c2.9,3,5.2,6.7,6.9,11.2
		C96.2,57.7,97,63,97,69c0,5.3-0.7,10.2-2,14.7c-1.3,4.4-3.4,8.3-6.1,11.6c-2.7,3.3-6.1,5.8-10.3,7.6c-4.1,1.9-9,2.8-14.5,2.8H32.7
		l0-72.6L64.1,33.1L64.1,33.1z M62.9,92.3c2.3,0,4.5-0.4,6.7-1.2c2.1-0.7,4.1-2,5.8-3.7c1.7-1.7,3-4,4.1-6.8c1-2.7,1.5-6.1,1.5-10.2
		c0-3.6-0.4-6.9-1.1-10c-0.7-2.9-1.9-5.5-3.6-7.5c-1.6-2.1-3.8-3.7-6.5-4.8C67.3,47,64,46.4,60,46.4H48.6v45.7L62.9,92.3L62.9,92.3z
		"/>
	<path id="XMLID_13_" class="st0" d="M133.2,33.1l0,72.6h-16l0-72.6H133.2L133.2,33.1z"/>
	<path id="XMLID_12_" class="st0" d="M168.6,87.8c0.9,1.7,2,3.1,3.6,4.1c1.4,1.1,3.2,1.9,5.1,2.3c2,0.5,4,0.8,6.1,0.8
		c1.4,0,2.9-0.1,4.6-0.4c1.6-0.3,3.1-0.7,4.6-1.3c1.4-0.7,2.6-1.6,3.6-2.8c1-1.2,1.4-2.7,1.4-4.5c0-2-0.6-3.6-1.9-4.8
		c-1.2-1.2-2.9-2.2-5-3c-2-0.8-4.4-1.5-6.9-2.1c-2.6-0.6-5.1-1.2-7.8-2c-2.7-0.7-5.3-1.5-7.9-2.5c-2.6-1-4.9-2.2-6.9-3.8
		c-2-1.6-3.6-3.5-5-5.9c-1.2-2.3-1.9-5.2-1.9-8.5c0-3.7,0.8-6.9,2.4-9.7c1.6-2.8,3.6-5.1,6.2-6.8c2.6-1.9,5.5-3.2,8.7-4.1
		c3.3-0.9,6.5-1.3,9.8-1.3c3.8,0,7.5,0.4,10.9,1.2c3.5,0.9,6.6,2.2,9.3,4.1c2.8,1.9,4.9,4.4,6.5,7.3c1.6,2.9,2.4,6.5,2.4,10.7h-15.5
		c-0.2-2.1-0.6-4-1.3-5.4c-0.8-1.4-1.8-2.6-3.1-3.4c-1.3-0.8-2.8-1.4-4.4-1.7c-1.7-0.4-3.5-0.5-5.4-0.5c-1.3,0-2.6,0.2-3.9,0.4
		c-1.3,0.3-2.5,0.7-3.6,1.4c-1.1,0.7-2,1.5-2.6,2.6c-0.7,1-1,2.3-1,3.9c0,1.4,0.3,2.6,0.8,3.5c0.5,0.9,1.6,1.7,3.2,2.4
		c1.6,0.7,3.8,1.5,6.6,2.2c2.8,0.7,6.5,1.7,11,2.8c1.3,0.3,3.2,0.8,5.7,1.5c2.4,0.7,4.8,1.9,7.2,3.4c2.4,1.6,4.4,3.6,6.1,6.2
		c1.7,2.6,2.6,6,2.6,10c0,3.3-0.6,6.4-2,9.2c-1.3,2.8-3.2,5.3-5.8,7.4c-2.6,2-5.7,3.6-9.4,4.8c-3.7,1.2-8.1,1.7-13.1,1.7
		c-4,0-7.9-0.5-11.6-1.5c-3.7-1-7.1-2.5-9.9-4.6c-2.8-2.1-5.1-4.8-6.8-8c-1.7-3.3-2.5-7.1-2.4-11.6h15.4
		C167.3,84,167.7,86.1,168.6,87.8z"/>
	<path id="XMLID_11_" class="st0" d="M225.9,46.5l0-13.4h59.5l0,13.4l-21.8,0v59.1l-16,0V46.5H225.9z"/>
	<path id="XMLID_8_" class="st0" d="M341.9,33.1c3.3,0,6.2,0.5,8.8,1.6c2.6,1.1,4.9,2.5,6.7,4.4c1.9,1.9,3.3,3.9,4.3,6.4
		c1,2.4,1.5,5,1.5,7.8c0,4.3-0.9,8-2.7,11.1c-1.8,3.1-4.7,5.5-8.8,7.1v0.2c2,0.5,3.5,1.3,4.9,2.5c1.2,1.2,2.3,2.4,3.1,4
		c0.8,1.6,1.4,3.2,1.8,5.1c0.4,1.9,0.6,3.6,0.8,5.5c0.1,1.2,0.2,2.5,0.2,4.1c0.1,1.6,0.2,3.1,0.4,4.8c0.2,1.6,0.4,3.2,0.8,4.6
		c0.4,1.4,0.9,2.7,1.7,3.7l-16,0c-0.9-2.3-1.4-5.1-1.6-8.3c-0.2-3.2-0.5-6.2-0.9-9.1c-0.5-3.8-1.7-6.6-3.5-8.3
		c-1.8-1.8-4.6-2.7-8.6-2.7h-16v28.3l-16,0l0-72.6L341.9,33.1L341.9,33.1z M336.2,65.9c3.6,0,6.4-0.8,8.3-2.4
		c1.9-1.6,2.8-4.3,2.8-7.9c0-3.6-0.9-6.1-2.8-7.6c-1.9-1.6-4.6-2.4-8.3-2.4h-17.5V66L336.2,65.9L336.2,65.9z"/>
	<path id="XMLID_7_" class="st0" d="M401.3,33.1v72.6h-16V33.1H401.3L401.3,33.1z"/>
	<path id="XMLID_6_" class="st0" d="M471,52.5c-1-1.5-2.1-2.8-3.5-4c-1.4-1.2-3-2-4.8-2.7c-1.8-0.6-3.6-1-5.7-1
		c-3.6,0-6.7,0.7-9.1,2c-2.5,1.4-4.5,3.3-6.1,5.6c-1.6,2.3-2.7,5-3.4,8c-0.7,3-1.1,6-1.1,9.2c0,3,0.3,6,1.1,8.9
		c0.7,2.8,1.9,5.5,3.4,7.8c1.6,2.3,3.6,4.2,6.1,5.5c2.5,1.4,5.6,2,9.1,2c4.9,0,8.7-1.5,11.5-4.4c2.7-3,4.4-6.9,5.1-11.8H489
		c-0.4,4.5-1.4,8.6-3.1,12.3c-1.7,3.6-3.9,6.7-6.7,9.3c-2.8,2.6-6,4.5-9.8,5.9c-3.7,1.3-7.8,2-12.3,2c-5.6,0-10.6-1-15-2.9
		c-4.4-2-8.2-4.6-11.3-8c-3-3.4-5.4-7.4-7-12c-1.6-4.6-2.4-9.5-2.4-14.8c0-5.4,0.8-10.5,2.4-15.1c1.6-4.6,4-8.7,7-12.2
		c3-3.5,6.8-6.1,11.3-8.2c4.4-2,9.4-2.9,15-2.9c4,0,7.8,0.5,11.4,1.7c3.6,1.2,6.8,2.8,9.6,5.1c2.8,2.2,5.2,5,6.9,8.2
		c1.9,3.3,3,7,3.5,11.2l-15.5,0C472.6,55.7,472,54,471,52.5z"/>
	<path id="XMLID_5_" class="st0" d="M503.3,46.5V33.1l59.5,0v13.4l-21.8,0v59.1h-16l0-59.1L503.3,46.5z"/>
</g>
<path id="_x30_1_3_" class="st0" d="M521.3,149.6H74.2c-26.8,0-48.8,21.9-48.8,48.8v563.8c0,26.8,21.9,48.8,48.8,48.8h447.2
	c26.8,0,48.8-22,48.8-48.8l0-563.8C570.1,171.2,548.2,149.6,521.3,149.6z M84.5,660.5c-2.3,0-4.5,0-6.6-0.1l0-51.9
	c2.1,0.2,4.3,0.3,6.6,0.3c41.4,0,48.3-35.6,48.3-129.2c0-93.1-6.8-129.2-48.3-129.2c-2.3,0-4.6,0.1-6.7,0.3l0-51.9
	c2.2-0.1,4.4-0.1,6.6-0.1c105.3,0,118.5,75.1,118.5,180.9C203,585.5,189.9,660.5,84.5,660.5z M421.9,660.2h-73.3V425.7h-90.9v-55.3
	c51.1,1,98.1-16.5,105.9-71.8h58.4V660.2z"/>
</svg>
